<svg width="190" height="150" viewBox="0 0 190 150" fill="none" xmlns="http://www.w3.org/2000/svg">
<path d="M154 84V68.3148C154 40.0193 134 35.9194 130.873 35.0431C128.774 34.4551 122.42 26.2235 118.194 23.1604C129.897 11.246 118.705 9.74609 111.646 10.4855C112.872 4.14799 105.698 -1.35699 99.8037 4.46486L87.1254 18.4073C70.8526 20.8155 63.6265 39.7962 62.0475 48.9855C51.5055 48.8271 31.2016 55.6082 34.3224 84" stroke="#585AF1" stroke-width="3"/>
<ellipse rx="1.20825" ry="3.83895" transform="matrix(-0.984145 0.177368 0.181666 0.98336 87.7349 38.0238)" fill="#585AF1"/>
<ellipse rx="1.20825" ry="3.83895" transform="matrix(-0.984145 0.177368 0.181666 0.98336 95.8872 36.5543)" fill="#585AF1"/>
<path opacity="0.7" fill-rule="evenodd" clip-rule="evenodd" d="M78.2795 23.7486C78.2795 23.7485 78.2796 23.7484 78.2797 23.7484L89.7778 22.4864C89.7779 22.4864 89.7779 22.4864 89.7779 22.4865C89.7779 22.4865 89.778 22.4866 89.778 22.4866L101.521 21.1976C102.619 21.0771 103.635 21.8793 103.498 22.9746C103.019 26.8043 99.9347 29.9519 95.8822 30.3967C92.3431 30.7851 89.0664 29.0025 87.4145 26.1254C87.1089 25.5932 86.5371 25.2445 85.9278 25.3114C85.3184 25.3783 84.8381 25.8425 84.6583 26.4279C83.6862 29.5931 80.8856 32.0428 77.3465 32.4312C73.2939 32.876 69.5853 30.474 68.2666 26.8417C67.8894 25.8028 68.7021 24.8 69.8001 24.6794L78.2794 23.7488C78.2795 23.7488 78.2795 23.7487 78.2795 23.7486Z" fill="#EC4C56"/>
<path d="M97.151 48.4551C97.151 46.8084 95.7994 45.4734 94.1321 45.4734C92.4649 45.4734 91.1133 46.8084 91.1133 48.4551" stroke="#585AF1" stroke-width="3" stroke-linecap="round"/>
<rect x="0.5" y="66.5" width="189" height="83" rx="15.5" fill="#F0F0F0" stroke="#F0F0F0"/>
<path d="M66.8347 126.482H57.9054V138.055H45.5296V126.482H16V117.901L41.8482 82.9447H55.1639L31.1956 116.09H45.9212V105.776H57.9054V116.09H66.8347V126.482Z" fill="white"/>
<path d="M94.1283 139C89.5853 139 85.5383 137.872 81.9875 135.615C78.4366 133.358 75.6429 130.104 73.6064 125.852C71.6221 121.548 70.63 116.431 70.63 110.5C70.63 104.569 71.6221 99.4779 73.6064 95.2265C75.6429 90.9226 78.4366 87.6423 81.9875 85.3854C85.5383 83.1284 89.5853 82 94.1283 82C98.6713 82 102.718 83.1284 106.269 85.3854C109.82 87.6423 112.588 90.9226 114.572 95.2265C116.608 99.4779 117.627 104.569 117.627 110.5C117.627 116.431 116.608 121.548 114.572 125.852C112.588 130.104 109.82 133.358 106.269 135.615C102.718 137.872 98.6713 139 94.1283 139ZM94.1283 128.214C97.4703 128.214 100.081 126.771 101.961 123.884C103.893 120.997 104.859 116.536 104.859 110.5C104.859 104.464 103.893 100.003 101.961 97.116C100.081 94.2293 97.4703 92.7859 94.1283 92.7859C90.8385 92.7859 88.2276 94.2293 86.2955 97.116C84.4156 100.003 83.4757 104.464 83.4757 110.5C83.4757 116.536 84.4156 120.997 86.2955 123.884C88.2276 126.771 90.8385 128.214 94.1283 128.214Z" fill="white"/>
<path d="M174 126.482H165.071V138.055H152.695V126.482H123.165V117.901L149.013 82.9447H162.329L138.361 116.09H153.087V105.776H165.071V116.09H174V126.482Z" fill="white"/>
<path d="M108.686 75.9562C102.644 75.9562 107.818 66.0502 111.818 62.9417C120.272 56.3737 127.123 58.577 131.519 65.4041C137.744 76.1683 131.923 78.0777 130.248 76.4445C128.158 74.4054 127.454 72.1399 127.351 70.2266C127.894 80.3211 125.256 81.1456 122.894 80.0401C121.004 79.1557 121.626 73.6427 122.173 70.6968C121.091 75.2681 118.974 82.1038 114.6 80.8488C110.797 79.7574 113.765 72.7984 116.189 68.9654C112.511 74.4887 111.314 75.5782 108.686 75.9562Z" fill="white" stroke="#585AF1" stroke-width="3" stroke-linecap="round" stroke-linejoin="round"/>
<path d="M81.6418 75.9562C87.6838 75.9562 82.5105 66.0502 78.5097 62.9417C70.0564 56.3737 63.2053 58.577 58.8094 65.4041C52.5843 76.1683 58.4055 78.0777 60.0799 76.4445C62.1702 74.4054 62.8739 72.1399 62.9768 70.2266C62.4343 80.3211 65.0722 81.1456 67.4344 80.0401C69.3241 79.1557 68.702 73.6427 68.1547 70.6968C69.2373 75.2681 71.3542 82.1038 75.7278 80.8488C79.531 79.7574 76.5628 72.7984 74.1393 68.9654C77.8173 74.4887 79.0136 75.5782 81.6418 75.9562Z" fill="white" stroke="#585AF1" stroke-width="3" stroke-linecap="round" stroke-linejoin="round"/>
</svg>
