<svg width="100" height="30" viewBox="0 0 100 30" fill="none" xmlns="http://www.w3.org/2000/svg">
<path d="M68.1805 19.1009C68.6414 19.2789 69.0023 19.5587 69.2635 19.9402C69.5246 20.3132 69.6552 20.7667 69.6552 21.3007C69.6552 22.0806 69.371 22.6825 68.8027 23.1064C68.2344 23.5302 67.4126 23.7422 66.3373 23.7422H61.9826L61.9824 14.8411H66.1068C67.1359 14.8411 67.9193 15.0531 68.457 15.4769C68.9946 15.8923 69.2634 16.456 69.2634 17.1681C69.2634 17.592 69.1674 17.9734 68.9754 18.3125C68.7911 18.6431 68.5261 18.9059 68.1805 19.1009ZM64.2405 16.6595L64.2405 18.3761H65.8073C66.5753 18.3761 66.9593 18.0879 66.9593 17.5114C66.9593 16.9435 66.5753 16.6595 65.8073 16.6595H64.2405ZM66.153 21.9238C66.9517 21.9238 67.3511 21.6229 67.3511 21.021C67.3511 20.4191 66.9517 20.1182 66.1529 20.1182H64.2405L64.2406 21.9238H66.153Z" fill="#1A1D22"/>
<path d="M77.6568 21.7967L77.6569 23.7422H71.1823L71.1822 14.8411H77.507L77.507 16.7866H73.4402L73.4403 18.2871H77.0231L77.0232 20.169H73.4403L73.4403 21.7967H77.6568Z" fill="#1A1D22"/>
<path d="M80.9847 16.8375H78.5078L78.5078 14.8411H85.7312L85.7312 16.8375H83.2658L83.2659 23.7422H80.9848L80.9847 16.8375Z" fill="#1A1D22"/>
<path d="M91.9248 22.0128H88.5147L87.8811 23.7422H85.554L89.1137 14.8411H91.3602L94.9317 23.7422H92.5585L91.9248 22.0128ZM91.2566 20.1563L90.2197 17.308L89.1829 20.1563H91.2566Z" fill="#1A1D22"/>
<path d="M38.4802 14.3975L33.6157 23.6702L30.1884 23.3206L27.2363 13.2504L30.6462 13.5982L32.3408 19.7371L35.3151 14.0746L38.4802 14.3975Z" fill="#585AF1"/>
<path fill-rule="evenodd" clip-rule="evenodd" d="M17.2899 6.28868L13.7511 6L13.3055 11.6885C12.513 11.1952 11.5981 10.8792 10.6096 10.7985C7.23952 10.5236 4.28916 13.0888 4.01978 16.5281C3.7504 19.9674 6.26399 22.9784 9.63406 23.2533C10.6226 23.3339 11.5751 23.1702 12.4343 22.8117L12.3835 23.4605L15.9223 23.7492L17.2899 6.28868ZM12.6851 17.235C12.5748 18.6422 11.3576 19.7341 9.91889 19.6167C8.48014 19.4994 7.44836 18.224 7.55858 16.8168C7.6688 15.4096 8.886 14.3177 10.3247 14.4351C11.7635 14.5524 12.7953 15.8278 12.6851 17.235Z" fill="#585AF1"/>
<path fill-rule="evenodd" clip-rule="evenodd" d="M57.7527 6.02996L54.2105 6.26957L54.5744 11.8727C53.7575 11.5434 52.8581 11.3891 51.9235 11.4523C48.5501 11.6805 45.9966 14.6563 46.2202 18.099C46.4438 21.5417 49.3598 24.1476 52.7332 23.9194C53.6678 23.8562 54.5394 23.5821 55.3065 23.1456L55.3456 23.7474L58.8879 23.5078L57.7527 6.02996ZM54.8942 17.5123C54.9856 18.9208 53.937 20.1818 52.4968 20.2792C51.0565 20.3766 49.854 19.2679 49.7625 17.8594C49.671 16.4509 50.7196 15.1899 52.1599 15.0925C53.6002 14.9951 54.8027 16.1038 54.8942 17.5123Z" fill="#585AF1"/>
<path fill-rule="evenodd" clip-rule="evenodd" d="M20.6309 13.1701L24.1953 12.8951L25.3136 24.2105L21.7492 24.4855L20.6309 13.1701Z" fill="#585AF1"/>
<path d="M24.3299 9.55848C24.4246 10.9221 23.4244 12.0737 22.0959 12.1306C20.7674 12.1875 19.6137 11.1281 19.519 9.7645C19.4243 8.40085 20.4245 7.24928 21.753 7.19239C23.0815 7.1355 24.2353 8.19483 24.3299 9.55848Z" fill="#F4B04A"/>
<path fill-rule="evenodd" clip-rule="evenodd" d="M40.3418 11.8148L43.8878 11.9869L43.3582 23.3566L39.8122 23.1845L40.3418 11.8148Z" fill="#585AF1"/>
<path d="M44.7383 8.38856C44.8121 9.7566 43.7927 10.9271 42.4616 11.0028C41.1305 11.0786 39.9916 10.031 39.9178 8.66301C39.8441 7.29497 40.8634 6.12451 42.1946 6.04873C43.5257 5.97294 44.6646 7.02052 44.7383 8.38856Z" fill="#F4B04A"/>
</svg>
