<svg width="1920" height="980" viewBox="0 0 1920 980" fill="none" xmlns="http://www.w3.org/2000/svg">
<g clip-path="url(#clip0)">
<rect width="1920" height="980" fill="white"/>
<g opacity="0.5">
<rect x="1069" y="813" width="72" height="60" fill="white" stroke="#E0E0E0" stroke-width="2" stroke-miterlimit="10" stroke-linecap="round" stroke-linejoin="round"/>
<path d="M1141 877H1069V925H1141V877Z" fill="white" stroke="#E0E0E0" stroke-width="2" stroke-miterlimit="10" stroke-linecap="round" stroke-linejoin="round"/>
<path d="M1132 885H1078V917H1132V885Z" fill="white" stroke="#E0E0E0" stroke-width="2" stroke-miterlimit="10" stroke-linecap="round" stroke-linejoin="round"/>
<path d="M1144 873H1066V877H1144V873Z" fill="white" stroke="#E0E0E0" stroke-width="2" stroke-miterlimit="10" stroke-linecap="round" stroke-linejoin="round"/>
<path d="M1125 907H1113V917H1125V907Z" fill="white" stroke="#E0E0E0" stroke-width="2" stroke-miterlimit="10" stroke-linecap="round" stroke-linejoin="round"/>
<path d="M1104 909H1084V917H1104V909Z" fill="white" stroke="#E0E0E0" stroke-width="2" stroke-miterlimit="10" stroke-linecap="round" stroke-linejoin="round"/>
<path d="M1104 901H1084V909H1104V901Z" fill="white" stroke="#E0E0E0" stroke-width="2" stroke-miterlimit="10" stroke-linecap="round" stroke-linejoin="round"/>
<path d="M1104 893H1084V901H1104V893Z" fill="white" stroke="#E0E0E0" stroke-width="2" stroke-miterlimit="10" stroke-linecap="round" stroke-linejoin="round"/>
<path d="M1123 901H1115V907H1123V901Z" fill="white" stroke="#E0E0E0" stroke-width="2" stroke-miterlimit="10" stroke-linecap="round" stroke-linejoin="round"/>
<path d="M1145 812.2C1145 812.6 1144 813 1143 813H1067C1066 813 1065 812.6 1065 812.2V805.8C1065 805.4 1066 805 1067 805H1143C1144 805 1145 805.4 1145 805.8V812.2Z" fill="white" stroke="#E0E0E0" stroke-width="2" stroke-miterlimit="10" stroke-linecap="round" stroke-linejoin="round"/>
<path d="M1141 753H1069V805H1141V753Z" fill="white" stroke="#E0E0E0" stroke-width="2" stroke-miterlimit="10" stroke-linecap="round" stroke-linejoin="round"/>
<path d="M1134 776H1076V798H1134V776Z" fill="white" stroke="#E0E0E0" stroke-width="2" stroke-miterlimit="10" stroke-linecap="round" stroke-linejoin="round"/>
<path d="M1105 760V764" stroke="#E0E0E0" stroke-width="2" stroke-miterlimit="10" stroke-linecap="round" stroke-linejoin="round"/>
<path d="M1102 768L1105 764L1108 768H1102Z" fill="white" stroke="#E0E0E0" stroke-width="2" stroke-miterlimit="10" stroke-linecap="round" stroke-linejoin="round"/>
<path d="M1081 760V764" stroke="#E0E0E0" stroke-width="2" stroke-miterlimit="10" stroke-linecap="round" stroke-linejoin="round"/>
<path d="M1078 768L1081 764L1084 768H1078Z" fill="white" stroke="#E0E0E0" stroke-width="2" stroke-miterlimit="10" stroke-linecap="round" stroke-linejoin="round"/>
<path d="M1129 760V764" stroke="#E0E0E0" stroke-width="2" stroke-miterlimit="10" stroke-linecap="round" stroke-linejoin="round"/>
<path d="M1126 768L1129 764L1132 768H1126Z" fill="white" stroke="#E0E0E0" stroke-width="2" stroke-miterlimit="10" stroke-linecap="round" stroke-linejoin="round"/>
<path d="M1079.2 789.8C1082.1 788.8 1084.3 788.5 1087 787C1089.3 785.8 1090 785 1090 783C1090 781 1087 781 1086 782C1084 784 1083.5 786.5 1083.7 787.6C1084.1 789.1 1085.7 789.8 1087.2 790.1C1089.1 790.6 1091.1 790.7 1093.1 790.3C1095.1 789.8 1096.9 788.7 1098.7 787.8C1100.6 786.9 1102.7 786.4 1104.7 787C1106.6 787.7 1107.9 789.5 1109.7 790.5C1111.5 791.6 1113.7 791.8 1115.8 791.9C1120.8 792 1125.7 790.9 1130.2 788.7" fill="white"/>
<path d="M1079.2 789.8C1082.1 788.8 1084.3 788.5 1087 787C1089.3 785.8 1090 785 1090 783C1090 781 1087 781 1086 782C1084 784 1083.5 786.5 1083.7 787.6C1084.1 789.1 1085.7 789.8 1087.2 790.1C1089.1 790.6 1091.1 790.7 1093.1 790.3C1095.1 789.8 1096.9 788.7 1098.7 787.8C1100.6 786.9 1102.7 786.4 1104.7 787C1106.6 787.7 1107.9 789.5 1109.7 790.5C1111.5 791.6 1113.7 791.8 1115.8 791.9C1120.8 792 1125.7 790.9 1130.2 788.7" stroke="#E0E0E0" stroke-width="2" stroke-miterlimit="10" stroke-linecap="round" stroke-linejoin="round"/>
<path d="M1084 798V805" stroke="#E0E0E0" stroke-width="2" stroke-miterlimit="10" stroke-linecap="round" stroke-linejoin="round"/>
<path d="M1126 798V805" stroke="#E0E0E0" stroke-width="2" stroke-miterlimit="10" stroke-linecap="round" stroke-linejoin="round"/>
<path d="M1080 747H1074V753H1080V747Z" fill="white" stroke="#E0E0E0" stroke-width="2" stroke-miterlimit="10" stroke-linecap="round" stroke-linejoin="round"/>
<path d="M1088 745H1084V753H1088V745Z" fill="white" stroke="#E0E0E0" stroke-width="2" stroke-miterlimit="10" stroke-linecap="round" stroke-linejoin="round"/>
<path d="M1080 743H1074V747H1080V743Z" fill="white" stroke="#E0E0E0" stroke-width="2" stroke-miterlimit="10" stroke-linecap="round" stroke-linejoin="round"/>
<path d="M1096 835C1096 830.6 1092.4 827 1088 827C1083.6 827 1080 830.6 1080 835C1085 835 1092 835 1096 835Z" fill="white" stroke="#E0E0E0" stroke-width="2" stroke-miterlimit="10" stroke-linecap="round" stroke-linejoin="round"/>
<path d="M1094 860H1082C1080.9 860 1080 859.1 1080 858V835H1096V858C1096 859.1 1095.1 860 1094 860Z" fill="white" stroke="#E0E0E0" stroke-width="2" stroke-miterlimit="10" stroke-linecap="round" stroke-linejoin="round"/>
<path d="M1130 835C1130 830.6 1126.4 827 1122 827C1117.6 827 1114 830.6 1114 835C1119 835 1126 835 1130 835Z" fill="white" stroke="#E0E0E0" stroke-width="2" stroke-miterlimit="10" stroke-linecap="round" stroke-linejoin="round"/>
<path d="M1128 860H1116C1114.9 860 1114 859.1 1114 858V835H1130V858C1130 859.1 1129.1 860 1128 860Z" fill="white" stroke="#E0E0E0" stroke-width="2" stroke-miterlimit="10" stroke-linecap="round" stroke-linejoin="round"/>
<path d="M1141 956V981H1069V956" fill="white"/>
<path d="M1141 956V981H1069V956" stroke="#E0E0E0" stroke-width="2" stroke-miterlimit="10" stroke-linecap="round" stroke-linejoin="round"/>
<path d="M1101 955V979C1101 980.1 1100.1 981 1099 981H1083C1081.9 981 1081 980.1 1081 979V953" fill="white"/>
<path d="M1101 955V979C1101 980.1 1100.1 981 1099 981H1083C1081.9 981 1081 980.1 1081 979V953" stroke="#E0E0E0" stroke-width="2" stroke-miterlimit="10" stroke-linecap="round" stroke-linejoin="round"/>
<path d="M1137 950H1105V970H1137V950Z" fill="white" stroke="#E0E0E0" stroke-width="2" stroke-miterlimit="10" stroke-linecap="round" stroke-linejoin="round"/>
<path d="M1086 973H1096C1096.6 973 1097 973.4 1097 974V976C1097 976.6 1096.6 977 1096 977H1086C1085.4 977 1085 976.6 1085 976V974C1085 973.4 1085.4 973 1086 973Z" fill="white" stroke="#E0E0E0" stroke-width="2" stroke-miterlimit="10" stroke-linecap="round" stroke-linejoin="round"/>
<path d="M1097 956V968C1097 968.6 1096.6 969 1096 969H1086C1085.4 969 1085 968.6 1085 968V952" fill="white"/>
<path d="M1097 956V968C1097 968.6 1096.6 969 1096 969H1086C1085.4 969 1085 968.6 1085 968V952" stroke="#E0E0E0" stroke-width="2" stroke-miterlimit="10" stroke-linecap="round" stroke-linejoin="round"/>
<path fill-rule="evenodd" clip-rule="evenodd" d="M1069 935L1060 944.9C1060 951.6 1065.4 956.8 1072.1 956.8C1076.8 956.8 1081.6 953.9 1083.7 949.9C1085.6 953.9 1089.1 956.8 1094.1 956.8C1098.8 956.8 1103.1 953.9 1105 949.9C1106.9 953.9 1111.2 956.8 1115.9 956.8C1120.6 956.8 1124.4 953.9 1126.3 949.9C1128.2 953.9 1132.9 956.8 1137.9 956.8C1144.5 956.8 1150 951.6 1150 944.9L1141 935H1069Z" fill="white" stroke="#E0E0E0" stroke-width="2" stroke-miterlimit="10" stroke-linecap="round" stroke-linejoin="round"/>
<path d="M1084.7 941.9L1086.7 935.9" stroke="#E0E0E0" stroke-width="2" stroke-miterlimit="10" stroke-linecap="round" stroke-linejoin="round"/>
<path d="M1125.7 941.9L1123.7 935.9" stroke="#E0E0E0" stroke-width="2" stroke-miterlimit="10" stroke-linecap="round" stroke-linejoin="round"/>
<path d="M1105 935V942" stroke="#E0E0E0" stroke-width="2" stroke-miterlimit="10" stroke-linecap="round" stroke-linejoin="round"/>
<path d="M1069 934.9V931C1069 931 1069.9 930.9 1071 930.9H1139C1140.1 930.9 1141 930.9 1141 931V934.9H1069Z" fill="white" stroke="#E0E0E0" stroke-width="2" stroke-miterlimit="10" stroke-linecap="round" stroke-linejoin="round"/>
<path d="M1067 931V928.5V925.1C1067 925 1067.9 925 1069.1 925H1140.9C1142.1 925 1143 925 1143 925.1V931H1067Z" fill="white" stroke="#E0E0E0" stroke-width="2" stroke-miterlimit="10" stroke-linecap="round" stroke-linejoin="round"/>
</g>
<mask id="path-44-inside-1" fill="white">
<path fill-rule="evenodd" clip-rule="evenodd" d="M343.841 348.237C340.527 347.428 337.063 347 333.5 347C309.476 347 290 366.476 290 390.5C290 414.524 309.476 434 333.5 434H441H445L444.767 433.851C468.963 431.932 488 411.689 488 387C488 361.086 467.028 340.071 441.131 340C432.844 322.278 414.856 310 394 310C370.046 310 349.875 326.197 343.841 348.237Z"/>
</mask>
<path d="M343.841 348.237L343.13 351.151L345.964 351.842L346.734 349.029L343.841 348.237ZM445 434V437H455.257L446.617 431.473L445 434ZM444.767 433.851L444.53 430.861L435.629 431.567L443.151 436.378L444.767 433.851ZM441.131 340L438.413 341.271L439.219 342.995L441.122 343L441.131 340ZM344.552 345.322C341.006 344.458 337.305 344 333.5 344V350C336.822 350 340.047 350.399 343.13 351.151L344.552 345.322ZM333.5 344C307.819 344 287 364.819 287 390.5H293C293 368.132 311.132 350 333.5 350V344ZM287 390.5C287 416.181 307.819 437 333.5 437V431C311.132 431 293 412.868 293 390.5H287ZM333.5 437H441V431H333.5V437ZM441 437H445V431H441V437ZM446.617 431.473L446.384 431.324L443.151 436.378L443.383 436.527L446.617 431.473ZM445.005 436.842C470.748 434.8 491 413.267 491 387H485C485 410.112 467.179 429.064 444.53 430.861L445.005 436.842ZM491 387C491 359.432 468.689 337.075 441.139 337L441.122 343C465.367 343.066 485 362.74 485 387H491ZM394 313C413.648 313 430.601 324.564 438.413 341.271L443.848 338.729C435.087 319.992 416.064 307 394 307V313ZM346.734 349.029C352.42 328.259 371.432 313 394 313V307C368.66 307 347.329 324.135 340.947 347.444L346.734 349.029Z" fill="#E8E8E8" mask="url(#path-44-inside-1)"/>
<mask id="path-46-inside-2" fill="white">
<path fill-rule="evenodd" clip-rule="evenodd" d="M1662.84 510.237C1659.53 509.428 1656.06 509 1652.5 509C1628.48 509 1609 528.476 1609 552.5C1609 576.524 1628.48 596 1652.5 596H1760H1764L1763.77 595.851C1787.96 593.932 1807 573.689 1807 549C1807 523.086 1786.03 502.071 1760.13 502C1751.84 484.278 1733.86 472 1713 472C1689.05 472 1668.87 488.197 1662.84 510.237Z"/>
</mask>
<path d="M1662.84 510.237L1662.13 513.151L1664.96 513.842L1665.73 511.029L1662.84 510.237ZM1764 596V599H1774.26L1765.62 593.473L1764 596ZM1763.77 595.851L1763.53 592.861L1754.63 593.567L1762.15 598.378L1763.77 595.851ZM1760.13 502L1757.41 503.271L1758.22 504.995L1760.12 505L1760.13 502ZM1663.55 507.322C1660.01 506.458 1656.3 506 1652.5 506V512C1655.82 512 1659.05 512.399 1662.13 513.151L1663.55 507.322ZM1652.5 506C1626.82 506 1606 526.819 1606 552.5H1612C1612 530.132 1630.13 512 1652.5 512V506ZM1606 552.5C1606 578.181 1626.82 599 1652.5 599V593C1630.13 593 1612 574.868 1612 552.5H1606ZM1652.5 599H1760V593H1652.5V599ZM1760 599H1764V593H1760V599ZM1765.62 593.473L1765.38 593.324L1762.15 598.378L1762.38 598.527L1765.62 593.473ZM1764 598.842C1789.75 596.8 1810 575.267 1810 549H1804C1804 572.112 1786.18 591.064 1763.53 592.861L1764 598.842ZM1810 549C1810 521.432 1787.69 499.075 1760.14 499L1760.12 505C1784.37 505.066 1804 524.74 1804 549H1810ZM1713 475C1732.65 475 1749.6 486.564 1757.41 503.271L1762.85 500.729C1754.09 481.992 1735.06 469 1713 469V475ZM1665.73 511.029C1671.42 490.259 1690.43 475 1713 475V469C1687.66 469 1666.33 486.135 1659.95 509.444L1665.73 511.029Z" fill="#E8E8E8" mask="url(#path-46-inside-2)"/>
<mask id="path-48-inside-3" fill="white">
<path fill-rule="evenodd" clip-rule="evenodd" d="M1520.01 434.669C1516.11 420.45 1503.1 410 1487.65 410C1474.19 410 1462.58 417.921 1457.24 429.355C1440.53 429.4 1427 442.959 1427 459.678C1427 475.606 1439.28 488.666 1454.89 489.904L1454.74 490H1457.32H1526.68C1542.18 490 1554.74 477.435 1554.74 461.936C1554.74 446.436 1542.18 433.871 1526.68 433.871C1524.38 433.871 1522.14 434.147 1520.01 434.669Z"/>
</mask>
<path d="M1520.01 434.669L1520.72 437.583L1517.88 438.274L1517.11 435.461L1520.01 434.669ZM1457.24 429.355L1459.96 430.626L1459.15 432.35L1457.25 432.355L1457.24 429.355ZM1454.89 489.904L1455.13 486.914L1464.03 487.619L1456.51 492.431L1454.89 489.904ZM1454.74 490V493H1444.49L1453.13 487.473L1454.74 490ZM1517.11 435.461C1513.57 422.512 1501.71 413 1487.65 413V407C1504.49 407 1518.66 418.387 1522.9 433.877L1517.11 435.461ZM1487.65 413C1475.4 413 1464.83 420.208 1459.96 430.626L1454.52 428.084C1460.34 415.635 1472.98 407 1487.65 407V413ZM1424 459.678C1424 441.305 1438.87 426.405 1457.23 426.355L1457.25 432.355C1442.19 432.396 1430 444.613 1430 459.678H1424ZM1454.65 492.895C1437.5 491.534 1424 477.183 1424 459.678H1430C1430 474.029 1441.07 485.798 1455.13 486.914L1454.65 492.895ZM1453.13 487.473L1453.28 487.377L1456.51 492.431L1456.36 492.527L1453.13 487.473ZM1457.32 493H1454.74V487H1457.32V493ZM1526.68 493H1457.32V487H1526.68V493ZM1557.74 461.936C1557.74 479.092 1543.83 493 1526.68 493V487C1540.52 487 1551.74 475.778 1551.74 461.936H1557.74ZM1526.68 430.871C1543.83 430.871 1557.74 444.779 1557.74 461.936H1551.74C1551.74 448.093 1540.52 436.871 1526.68 436.871V430.871ZM1519.3 431.754C1521.66 431.177 1524.14 430.871 1526.68 430.871V436.871C1524.62 436.871 1522.62 437.118 1520.72 437.583L1519.3 431.754Z" fill="#E8E8E8" mask="url(#path-48-inside-3)"/>
<mask id="path-50-inside-4" fill="white">
<path fill-rule="evenodd" clip-rule="evenodd" d="M891.119 638.677C893.605 638.071 896.202 637.749 898.875 637.749C916.893 637.749 931.5 652.356 931.5 670.374C931.5 688.393 916.893 702.999 898.875 702.999H818.456C818.387 703 818.319 703 818.25 703C818.181 703 818.113 703 818.044 702.999H815.25L815.424 702.888C797.277 701.449 783 686.266 783 667.75C783 648.314 798.729 632.553 818.152 632.5C824.367 619.208 837.858 610 853.5 610C871.465 610 886.594 622.147 891.119 638.677Z"/>
</mask>
<path d="M891.119 638.677L891.83 641.591L888.996 642.282L888.226 639.469L891.119 638.677ZM818.456 702.999L818.439 699.999L818.447 699.999H818.456V702.999ZM818.044 702.999V699.999H818.053L818.061 699.999L818.044 702.999ZM815.25 702.999V705.999H804.994L813.633 700.472L815.25 702.999ZM815.424 702.888L815.661 699.898L824.562 700.604L817.04 705.415L815.424 702.888ZM818.152 632.5L820.87 633.771L820.064 635.495L818.16 635.5L818.152 632.5ZM890.408 635.762C893.125 635.1 895.961 634.749 898.875 634.749V640.749C896.444 640.749 894.085 641.041 891.83 641.591L890.408 635.762ZM898.875 634.749C918.55 634.749 934.5 650.699 934.5 670.374H928.5C928.5 654.013 915.236 640.749 898.875 640.749V634.749ZM934.5 670.374C934.5 690.049 918.55 705.999 898.875 705.999V699.999C915.236 699.999 928.5 686.736 928.5 670.374H934.5ZM898.875 705.999H818.456V699.999H898.875V705.999ZM818.473 705.999C818.399 706 818.324 706 818.25 706V700C818.313 700 818.376 700 818.439 699.999L818.473 705.999ZM818.25 706C818.176 706 818.101 706 818.027 705.999L818.061 699.999C818.124 700 818.187 700 818.25 700V706ZM818.044 705.999H815.25V699.999H818.044V705.999ZM813.633 700.472L813.807 700.361L817.04 705.415L816.867 705.526L813.633 700.472ZM815.186 705.879C795.492 704.316 780 687.844 780 667.75H786C786 684.689 799.062 698.581 815.661 699.898L815.186 705.879ZM780 667.75C780 646.66 797.068 629.557 818.144 629.5L818.16 635.5C800.39 635.548 786 649.969 786 667.75H780ZM853.5 613C839.066 613 826.61 621.495 820.87 633.771L815.435 631.229C822.124 616.922 836.65 607 853.5 607V613ZM888.226 639.469C884.048 624.21 870.079 613 853.5 613V607C872.852 607 889.139 620.085 894.013 637.885L888.226 639.469Z" fill="#E8E8E8" mask="url(#path-50-inside-4)"/>
<g opacity="0.5">
<path d="M1582 906H1510V936H1582V906Z" fill="white" stroke="#E0E0E0" stroke-width="2" stroke-miterlimit="10" stroke-linejoin="round"/>
<path d="M1569 919V911" stroke="#E0E0E0" stroke-width="2" stroke-miterlimit="10" stroke-linejoin="round"/>
<path d="M1565 923C1565 920.8 1566.8 919 1569 919C1571.2 919 1573 920.8 1573 923H1565Z" fill="white" stroke="#E0E0E0" stroke-width="2" stroke-miterlimit="10" stroke-linejoin="round"/>
<path d="M1571 923C1571 924.1 1570.1 925 1569 925C1567.9 925 1567 924.1 1567 923H1571Z" fill="#E0E0E0"/>
<path d="M1546 919V915" stroke="#E0E0E0" stroke-width="2" stroke-miterlimit="10" stroke-linejoin="round"/>
<path d="M1542 923C1542 920.8 1543.8 919 1546 919C1548.2 919 1550 920.8 1550 923H1542Z" fill="white" stroke="#E0E0E0" stroke-width="2" stroke-miterlimit="10" stroke-linejoin="round"/>
<path d="M1548 923C1548 924.1 1547.1 925 1546 925C1544.9 925 1544 924.1 1544 923H1548Z" fill="#E0E0E0"/>
<path d="M1546 931V935" stroke="#E0E0E0" stroke-width="2" stroke-miterlimit="10" stroke-linejoin="round"/>
<path d="M1539 930H1553" stroke="#E0E0E0" stroke-width="2" stroke-miterlimit="10" stroke-linecap="round" stroke-linejoin="round"/>
<path d="M1569 931V935" stroke="#E0E0E0" stroke-width="2" stroke-miterlimit="10" stroke-linejoin="round"/>
<path d="M1576 930H1562" stroke="#E0E0E0" stroke-width="2" stroke-miterlimit="10" stroke-linecap="round" stroke-linejoin="round"/>
<path d="M1523 919V911" stroke="#E0E0E0" stroke-width="2" stroke-miterlimit="10" stroke-linejoin="round"/>
<path d="M1519 923C1519 920.8 1520.8 919 1523 919C1525.2 919 1527 920.8 1527 923H1519Z" fill="white" stroke="#E0E0E0" stroke-width="2" stroke-miterlimit="10" stroke-linejoin="round"/>
<path d="M1525 923C1525 924.1 1524.1 925 1523 925C1521.9 925 1521 924.1 1521 923H1525Z" fill="#E0E0E0"/>
<path d="M1523 931V935" stroke="#E0E0E0" stroke-width="2" stroke-miterlimit="10" stroke-linejoin="round"/>
<path d="M1530 930H1516" stroke="#E0E0E0" stroke-width="2" stroke-miterlimit="10" stroke-linecap="round" stroke-linejoin="round"/>
<path d="M1582 942H1510V986H1582V942Z" fill="white" stroke="#E0E0E0" stroke-width="2" stroke-miterlimit="10" stroke-linejoin="round"/>
<path d="M1582 936H1510V942H1582V936Z" fill="white" stroke="#E0E0E0" stroke-width="2" stroke-miterlimit="10" stroke-linejoin="round"/>
<path d="M1582 942H1533V972H1582V942Z" fill="white" stroke="#E0E0E0" stroke-width="2" stroke-miterlimit="10" stroke-linejoin="round"/>
<path d="M1569 955V942" stroke="#E0E0E0" stroke-width="2" stroke-miterlimit="10" stroke-linejoin="round"/>
<path d="M1565 959C1565 956.8 1566.8 955 1569 955C1571.2 955 1573 956.8 1573 959H1565Z" fill="white" stroke="#E0E0E0" stroke-width="2" stroke-miterlimit="10" stroke-linejoin="round"/>
<path d="M1571 959C1571 960.1 1570.1 961 1569 961C1567.9 961 1567 960.1 1567 959H1571Z" fill="#E0E0E0"/>
<path d="M1546 955V942" stroke="#E0E0E0" stroke-width="2" stroke-miterlimit="10" stroke-linejoin="round"/>
<path d="M1542 959C1542 956.8 1543.8 955 1546 955C1548.2 955 1550 956.8 1550 959H1542Z" fill="white" stroke="#E0E0E0" stroke-width="2" stroke-miterlimit="10" stroke-linejoin="round"/>
<path d="M1548 959C1548 960.1 1547.1 961 1546 961C1544.9 961 1544 960.1 1544 959H1548Z" fill="#E0E0E0"/>
<path d="M1533 951V985.7" stroke="#E0E0E0" stroke-width="2" stroke-miterlimit="10" stroke-linecap="round" stroke-linejoin="round"/>
<path d="M1532 980H1510" stroke="#E0E0E0" stroke-width="2" stroke-miterlimit="10" stroke-linejoin="round"/>
<path d="M1515 963V967" stroke="#E0E0E0" stroke-width="2" stroke-miterlimit="10" stroke-linecap="round" stroke-linejoin="round"/>
<path d="M1546 967V971" stroke="#E0E0E0" stroke-width="2" stroke-miterlimit="10" stroke-linejoin="round"/>
<path d="M1539 966H1553" stroke="#E0E0E0" stroke-width="2" stroke-miterlimit="10" stroke-linecap="round" stroke-linejoin="round"/>
<path d="M1569 967V971" stroke="#E0E0E0" stroke-width="2" stroke-miterlimit="10" stroke-linejoin="round"/>
<path d="M1576 966H1562" stroke="#E0E0E0" stroke-width="2" stroke-miterlimit="10" stroke-linecap="round" stroke-linejoin="round"/>
<path d="M1534 976H1581" stroke="#E0E0E0" stroke-width="2" stroke-miterlimit="10" stroke-linejoin="round"/>
<path d="M1585 909.4C1583.8 912.7 1580.7 914.9 1577.2 914.9C1573.7 914.9 1570.6 912.6 1569.4 909.4C1568.2 912.7 1565.1 914.9 1561.6 914.9C1558.1 914.9 1555 912.6 1553.8 909.4C1552.6 912.7 1549.5 915 1546 915C1542.5 915 1539.4 912.7 1538.2 909.5C1537 912.7 1533.9 915 1530.4 915C1526.9 915 1523.8 912.7 1522.6 909.5C1521.4 912.8 1518.3 915 1514.8 915C1511.3 915 1508.2 912.7 1507 909.4L1511.1 897H1580.9L1585 909.4Z" fill="white" stroke="#E0E0E0" stroke-width="2" stroke-miterlimit="10" stroke-linecap="round" stroke-linejoin="round"/>
<path d="M1566.3 897.5L1569.5 904.4L1566.3 897.5ZM1552.8 897.5L1553.9 904.4L1552.8 897.5ZM1539.5 897.5L1538.4 904.4L1539.5 897.5ZM1526.2 897.5L1522.9 904.4L1526.2 897.5Z" fill="white"/>
<path d="M1526.2 897.5L1522.9 904.4M1566.3 897.5L1569.5 904.4L1566.3 897.5ZM1552.8 897.5L1553.9 904.4L1552.8 897.5ZM1539.5 897.5L1538.4 904.4L1539.5 897.5Z" stroke="#E0E0E0" stroke-width="2" stroke-miterlimit="10" stroke-linecap="round" stroke-linejoin="round"/>
<path d="M1573 862H1567V869H1573V862Z" fill="white" stroke="#E0E0E0" stroke-width="2" stroke-miterlimit="10" stroke-linecap="round" stroke-linejoin="round"/>
<path d="M1563 864H1559V869H1563V864Z" fill="white" stroke="#E0E0E0" stroke-width="2" stroke-linecap="round" stroke-linejoin="round"/>
<path d="M1581 893H1511V897H1581V893Z" fill="white" stroke="#E0E0E0" stroke-width="2" stroke-miterlimit="10" stroke-linecap="round" stroke-linejoin="round"/>
<path d="M1581 869H1511V893H1581V869Z" fill="white" stroke="#E0E0E0" stroke-width="2" stroke-miterlimit="10" stroke-linecap="round" stroke-linejoin="round"/>
<path d="M1516.3 883.7C1518.8 882.6 1521.1 880.9 1523 878.8C1523.5 878.2 1524 877.6 1524.2 876.9C1524.4 876.2 1524.2 875.3 1523.5 874.9C1522.8 874.5 1521.8 874.8 1521.2 875.4C1520.6 876 1520.3 876.8 1520.1 877.6C1519.5 879.4 1519 881.6 1520.3 883C1521.7 884.5 1524.2 883.9 1526 883C1527.6 882.2 1529.1 881.2 1530.5 880C1529.7 880.9 1530 882.5 1531.1 883C1532.2 883.5 1533.6 882.6 1533.7 881.5C1534 882.4 1534.8 883 1535.7 883.3C1536.6 883.6 1537.6 883.5 1538.5 883.4C1541.5 883.2 1544.7 883 1547 881C1547.9 880.2 1548.6 879.1 1548.6 877.8C1548.6 876.6 1547.7 875.4 1546.5 875.3C1545.3 875.2 1544.3 876.2 1544 877.4C1543.7 878.6 1544.1 879.8 1544.8 880.8C1546 882.9 1548.2 884.3 1550.6 884.7C1553 885.1 1555.5 884.3 1557.3 882.7C1557.2 883.3 1557 883.8 1556.9 884.4C1557.5 884.6 1557.9 883.6 1557.4 883.3C1557.4 884.2 1558.6 884.8 1559.4 884.6C1560.3 884.4 1560.9 883.6 1561.5 882.8C1562.1 882 1562.6 881.2 1563.4 880.8C1564.2 880.3 1565.4 880.4 1565.8 881.2C1566.3 882.1 1565.7 883.1 1564.9 883.8C1564.2 884.5 1563.3 885.2 1563.3 886.2C1563.2 887.3 1564.4 888.3 1565.4 888C1566.5 887.7 1567 886.3 1566.5 885.4C1567.5 886.4 1569.3 886 1570.3 884.9C1571.3 883.8 1571.5 882.4 1571.8 881C1573.8 881.5 1575.9 879.5 1575.5 877.5" fill="white"/>
<path d="M1516.3 883.7C1518.8 882.6 1521.1 880.9 1523 878.8C1523.5 878.2 1524 877.6 1524.2 876.9C1524.4 876.2 1524.2 875.3 1523.5 874.9C1522.8 874.5 1521.8 874.8 1521.2 875.4C1520.6 876 1520.3 876.8 1520.1 877.6C1519.5 879.4 1519 881.6 1520.3 883C1521.7 884.5 1524.2 883.9 1526 883C1527.6 882.2 1529.1 881.2 1530.5 880C1529.7 880.9 1530 882.5 1531.1 883C1532.2 883.5 1533.6 882.6 1533.7 881.5C1534 882.4 1534.8 883 1535.7 883.3C1536.6 883.6 1537.6 883.5 1538.5 883.4C1541.5 883.2 1544.7 883 1547 881C1547.9 880.2 1548.6 879.1 1548.6 877.8C1548.6 876.6 1547.7 875.4 1546.5 875.3C1545.3 875.2 1544.3 876.2 1544 877.4C1543.7 878.6 1544.1 879.8 1544.8 880.8C1546 882.9 1548.2 884.3 1550.6 884.7C1553 885.1 1555.5 884.3 1557.3 882.7C1557.2 883.3 1557 883.8 1556.9 884.4C1557.5 884.6 1557.9 883.6 1557.4 883.3C1557.4 884.2 1558.6 884.8 1559.4 884.6C1560.3 884.4 1560.9 883.6 1561.5 882.8C1562.1 882 1562.6 881.2 1563.4 880.8C1564.2 880.3 1565.4 880.4 1565.8 881.2C1566.3 882.1 1565.7 883.1 1564.9 883.8C1564.2 884.5 1563.3 885.2 1563.3 886.2C1563.2 887.3 1564.4 888.3 1565.4 888C1566.5 887.7 1567 886.3 1566.5 885.4C1567.5 886.4 1569.3 886 1570.3 884.9C1571.3 883.8 1571.5 882.4 1571.8 881C1573.8 881.5 1575.9 879.5 1575.5 877.5" stroke="#E0E0E0" stroke-width="2" stroke-miterlimit="10" stroke-linecap="round" stroke-linejoin="round"/>
</g>
<g opacity="0.5">
<rect x="959" y="897" width="72" height="36" fill="white" stroke="#E0E0E0" stroke-width="2" stroke-miterlimit="10" stroke-linecap="round" stroke-linejoin="round"/>
<rect x="955" y="888" width="80" height="9" rx="2" fill="white" stroke="#E0E0E0" stroke-width="2" stroke-miterlimit="10" stroke-linecap="round" stroke-linejoin="round"/>
<path d="M959 947V981H1031V947" fill="white"/>
<path d="M959 947V981H1031V947H959Z" stroke="#E0E0E0" stroke-width="2" stroke-miterlimit="10" stroke-linecap="round" stroke-linejoin="round"/>
<path d="M1022 957V967C1022 968.1 1021.1 969 1020 969H1004C1002.9 969 1002 968.1 1002 967V957" fill="white"/>
<path d="M1022 957V967C1022 968.1 1021.1 969 1020 969H1004C1002.9 969 1002 968.1 1002 967V957" stroke="#E0E0E0" stroke-width="2" stroke-miterlimit="10" stroke-linecap="round" stroke-linejoin="round"/>
<path d="M969 957V981" stroke="#E0E0E0" stroke-width="2" stroke-miterlimit="10" stroke-linecap="round" stroke-linejoin="round"/>
<path d="M973 956V981" stroke="#E0E0E0" stroke-width="2" stroke-miterlimit="10" stroke-linecap="round" stroke-linejoin="round"/>
<path d="M989 956V981" stroke="#E0E0E0" stroke-width="2" stroke-miterlimit="10" stroke-linecap="round" stroke-linejoin="round"/>
<path d="M993 957V981" stroke="#E0E0E0" stroke-width="2" stroke-miterlimit="10" stroke-linecap="round" stroke-linejoin="round"/>
<path d="M1006 955V965H1018V955" fill="white"/>
<path d="M1006 955V965H1018V955" stroke="#E0E0E0" stroke-width="2" stroke-miterlimit="10" stroke-linecap="round" stroke-linejoin="round"/>
<path d="M985 967C985.552 967 986 966.552 986 966C986 965.448 985.552 965 985 965C984.448 965 984 965.448 984 966C984 966.552 984.448 967 985 967Z" fill="#E0E0E0"/>
<path d="M1031 933H959L953 947C953 954.8 959.2 961 967 961C974.8 961 981 954.8 981 947C981 954.8 987.2 961 995 961C1002.8 961 1009 954.8 1009 947C1009 954.8 1015.2 961 1023 961C1030.8 961 1037 954.8 1037 947L1031 933Z" fill="white" stroke="#E0E0E0" stroke-width="2" stroke-miterlimit="10" stroke-linecap="round" stroke-linejoin="round"/>
<path d="M981.699 939.9L983.699 933.9" stroke="#E0E0E0" stroke-width="2" stroke-miterlimit="10" stroke-linecap="round" stroke-linejoin="round"/>
<path d="M1009.7 939.9L1007.7 933.9" stroke="#E0E0E0" stroke-width="2" stroke-miterlimit="10" stroke-linecap="round" stroke-linejoin="round"/>
<path d="M978 903C983.5 903 988 905.3 988 907V925H968V907C968 905.3 972.5 903 978 903Z" fill="white" stroke="#E0E0E0" stroke-width="2" stroke-miterlimit="10" stroke-linecap="round" stroke-linejoin="round"/>
<path d="M973 920L983 920L983 910L973 910L973 920Z" fill="white" stroke="#E0E0E0" stroke-width="2" stroke-miterlimit="10" stroke-linecap="round" stroke-linejoin="round"/>
<path d="M978 910V920" stroke="#E0E0E0" stroke-width="2" stroke-miterlimit="10" stroke-linecap="round" stroke-linejoin="round"/>
<path d="M983 915H973" stroke="#E0E0E0" stroke-width="2" stroke-miterlimit="10" stroke-linecap="round" stroke-linejoin="round"/>
<path d="M1012 903C1017.5 903 1022 905.3 1022 907V925H1002V907C1002 905.3 1006.5 903 1012 903Z" fill="white" stroke="#E0E0E0" stroke-width="2" stroke-miterlimit="10" stroke-linecap="round" stroke-linejoin="round"/>
<path d="M1007 920L1017 920L1017 910L1007 910L1007 920Z" fill="white" stroke="#E0E0E0" stroke-width="2" stroke-miterlimit="10" stroke-linecap="round" stroke-linejoin="round"/>
<path d="M1012 910V920" stroke="#E0E0E0" stroke-width="2" stroke-miterlimit="10" stroke-linecap="round" stroke-linejoin="round"/>
<path d="M1017 915H1007" stroke="#E0E0E0" stroke-width="2" stroke-miterlimit="10" stroke-linecap="round" stroke-linejoin="round"/>
</g>
<g opacity="0.4">
<path d="M1721 719H1709V747H1721V719Z" fill="white" stroke="#E0E0E0" stroke-width="2" stroke-miterlimit="10" stroke-linecap="round" stroke-linejoin="round"/>
<path d="M1721 715H1709V719H1721V715Z" fill="white" stroke="#E0E0E0" stroke-width="2" stroke-miterlimit="10" stroke-linecap="round" stroke-linejoin="round"/>
<path d="M1739 843H1619V989H1739V843Z" fill="white" stroke="#E0E0E0" stroke-width="2" stroke-miterlimit="10" stroke-linecap="round" stroke-linejoin="round"/>
<path d="M1733 747H1625V791H1733V747Z" fill="white" stroke="#E0E0E0" stroke-width="2" stroke-miterlimit="10" stroke-linecap="round" stroke-linejoin="round"/>
<path d="M1739 791H1619V839H1739V791Z" fill="white" stroke="#E0E0E0" stroke-width="2" stroke-miterlimit="10" stroke-linecap="round" stroke-linejoin="round"/>
<path d="M1739 839H1619V843H1739V839Z" fill="white" stroke="#E0E0E0" stroke-width="2" stroke-miterlimit="10" stroke-linecap="round" stroke-linejoin="round"/>
<path d="M1733 735H1625V739H1733V735Z" fill="white" stroke="#E0E0E0" stroke-width="2" stroke-miterlimit="10" stroke-linecap="round" stroke-linejoin="round"/>
<path d="M1733 739H1625V747H1733V739Z" fill="white"/>
<path d="M1629 739V747M1633 739V747M1637 739V747M1641 739V747M1645 739V747M1649 739V747M1653 739V747M1657 739V747M1661 739V747M1665 739V747M1669 739V747M1673 739V747M1677 739V747M1681 739V747M1685 739V747M1689 739V747M1693 739V747M1697 739V747M1701 739V747M1705 739V747M1709 739V747M1713 739V747M1717 739V747M1721 739V747M1725 739V747M1729 739V747M1625 739H1733V747H1625V739Z" stroke="#E0E0E0" stroke-width="2" stroke-miterlimit="10" stroke-linecap="round" stroke-linejoin="round"/>
<path d="M1739 787H1619V791H1739V787Z" fill="white" stroke="#E0E0E0" stroke-width="2" stroke-miterlimit="10" stroke-linecap="round" stroke-linejoin="round"/>
<path d="M1665.33 862.886V858.568H1660.81V862.886H1659V853.114H1660.81V856.864H1665.33V853.114H1667.14V862.886H1665.33Z" fill="#CECECE"/>
<path d="M1673.37 863C1670.42 863 1668.61 860.841 1668.61 858C1668.61 855.159 1670.42 853 1673.37 853C1676.31 853 1678.12 855.159 1678.12 858C1678.12 860.841 1676.31 863 1673.37 863ZM1673.37 854.591C1671.56 854.591 1670.54 855.955 1670.54 857.886C1670.54 859.818 1671.56 861.182 1673.37 861.182C1675.17 861.182 1676.19 859.818 1676.19 857.886C1676.19 855.955 1675.17 854.591 1673.37 854.591Z" fill="#CECECE"/>
<path d="M1683.43 854.705V862.773H1681.62V854.705H1678.57V853H1686.6V854.705H1683.43Z" fill="#CECECE"/>
<path d="M1687.84 862.886V853.114H1694.74V854.818H1689.65V857.091H1694.18V858.568H1689.65V861.182H1694.86V862.773H1687.84V862.886Z" fill="#CECECE"/>
<path d="M1696.44 862.886V853.114H1698.25V861.182H1703V862.773H1696.44V862.886Z" fill="#CECECE"/>
<path d="M1668 779H1652C1650.9 779 1650 778.1 1650 777V757C1650 755.9 1650.9 755 1652 755H1668C1669.1 755 1670 755.9 1670 757V777C1670 778.1 1669.1 779 1668 779Z" fill="white" stroke="#E0E0E0" stroke-width="2" stroke-miterlimit="10" stroke-linecap="round" stroke-linejoin="round"/>
<path d="M1666 759H1654V775H1666V759Z" fill="white" stroke="#E0E0E0" stroke-width="2" stroke-miterlimit="10" stroke-linecap="round" stroke-linejoin="round"/>
<path d="M1662 763H1658V771H1662V763Z" fill="white" stroke="#E0E0E0" stroke-width="2" stroke-miterlimit="10" stroke-linecap="round" stroke-linejoin="round"/>
<path d="M1658 767H1662" stroke="#E0E0E0" stroke-width="2" stroke-miterlimit="10" stroke-linecap="round" stroke-linejoin="round"/>
<path d="M1704 779H1688C1686.9 779 1686 778.1 1686 777V757C1686 755.9 1686.9 755 1688 755H1704C1705.1 755 1706 755.9 1706 757V777C1706 778.1 1705.1 779 1704 779Z" fill="white" stroke="#E0E0E0" stroke-width="2" stroke-miterlimit="10" stroke-linecap="round" stroke-linejoin="round"/>
<path d="M1702 759H1690V775H1702V759Z" fill="white" stroke="#E0E0E0" stroke-width="2" stroke-miterlimit="10" stroke-linecap="round" stroke-linejoin="round"/>
<path d="M1698 763H1694V771H1698V763Z" fill="white" stroke="#E0E0E0" stroke-width="2" stroke-miterlimit="10" stroke-linecap="round" stroke-linejoin="round"/>
<path d="M1678 871C1671.4 871 1666 874.5 1666 877V878.7V882V914.7H1690V882V878.7V877C1690 874.6 1684.6 871 1678 871Z" fill="white" stroke="#E0E0E0" stroke-width="2" stroke-miterlimit="10" stroke-linecap="round" stroke-linejoin="round"/>
<path d="M1686 878.9C1686 877.2 1682.4 874.9 1678 874.9C1673.6 874.9 1670 877.2 1670 878.9V882.9H1686V878.9Z" fill="white" stroke="#E0E0E0" stroke-width="2" stroke-miterlimit="10" stroke-linecap="round" stroke-linejoin="round"/>
<path d="M1686 882.9H1670V906.9H1686V882.9Z" fill="white" stroke="#E0E0E0" stroke-width="2" stroke-miterlimit="10" stroke-linecap="round" stroke-linejoin="round"/>
<path d="M1690 906.9H1666V915.9H1690V906.9Z" fill="white" stroke="#E0E0E0" stroke-width="2" stroke-miterlimit="10" stroke-linecap="round" stroke-linejoin="round"/>
<path d="M1691 915.9H1665V919.9H1691V915.9Z" fill="white" stroke="#E0E0E0" stroke-width="2" stroke-miterlimit="10" stroke-linecap="round" stroke-linejoin="round"/>
<path d="M1678 928C1671.4 928 1666 931.5 1666 934V935.7V939V971.7H1690V939V935.7V934C1690 931.6 1684.6 928 1678 928Z" fill="white" stroke="#E0E0E0" stroke-width="2" stroke-miterlimit="10" stroke-linecap="round" stroke-linejoin="round"/>
<path d="M1686 935.9C1686 934.2 1682.4 931.9 1678 931.9C1673.6 931.9 1670 934.2 1670 935.9V939.9H1686V935.9Z" fill="white" stroke="#E0E0E0" stroke-width="2" stroke-miterlimit="10" stroke-linecap="round" stroke-linejoin="round"/>
<path d="M1686 939.9H1670V963.9H1686V939.9Z" fill="white" stroke="#E0E0E0" stroke-width="2" stroke-miterlimit="10" stroke-linecap="round" stroke-linejoin="round"/>
<path d="M1690 963.9H1666V972.9H1690V963.9Z" fill="white" stroke="#E0E0E0" stroke-width="2" stroke-miterlimit="10" stroke-linecap="round" stroke-linejoin="round"/>
<path d="M1691 972.9H1665V976.9H1691V972.9Z" fill="white" stroke="#E0E0E0" stroke-width="2" stroke-miterlimit="10" stroke-linecap="round" stroke-linejoin="round"/>
<path d="M1644 871C1637.4 871 1632 874.5 1632 877V878.7V882V914.7H1656V882V878.7V877C1656 874.6 1650.6 871 1644 871Z" fill="white" stroke="#E0E0E0" stroke-width="2" stroke-miterlimit="10" stroke-linecap="round" stroke-linejoin="round"/>
<path d="M1652 878.9C1652 877.2 1648.4 874.9 1644 874.9C1639.6 874.9 1636 877.2 1636 878.9V882.9H1652V878.9Z" fill="white" stroke="#E0E0E0" stroke-width="2" stroke-miterlimit="10" stroke-linecap="round" stroke-linejoin="round"/>
<path d="M1652 882.9H1636V906.9H1652V882.9Z" fill="white" stroke="#E0E0E0" stroke-width="2" stroke-miterlimit="10" stroke-linecap="round" stroke-linejoin="round"/>
<path d="M1656 906.9H1632V915.9H1656V906.9Z" fill="white" stroke="#E0E0E0" stroke-width="2" stroke-miterlimit="10" stroke-linecap="round" stroke-linejoin="round"/>
<path d="M1657 915.9H1631V919.9H1657V915.9Z" fill="white" stroke="#E0E0E0" stroke-width="2" stroke-miterlimit="10" stroke-linecap="round" stroke-linejoin="round"/>
<path d="M1644 928C1637.4 928 1632 931.5 1632 934V935.7V939V971.7H1656V939V935.7V934C1656 931.6 1650.6 928 1644 928Z" fill="white" stroke="#E0E0E0" stroke-width="2" stroke-miterlimit="10" stroke-linecap="round" stroke-linejoin="round"/>
<path d="M1652 935.9C1652 934.2 1648.4 931.9 1644 931.9C1639.6 931.9 1636 934.2 1636 935.9V939.9H1652V935.9Z" fill="white" stroke="#E0E0E0" stroke-width="2" stroke-miterlimit="10" stroke-linecap="round" stroke-linejoin="round"/>
<path d="M1652 939.9H1636V963.9H1652V939.9Z" fill="white" stroke="#E0E0E0" stroke-width="2" stroke-miterlimit="10" stroke-linecap="round" stroke-linejoin="round"/>
<path d="M1656 963.9H1632V972.9H1656V963.9Z" fill="white" stroke="#E0E0E0" stroke-width="2" stroke-miterlimit="10" stroke-linecap="round" stroke-linejoin="round"/>
<path d="M1657 972.9H1631V976.9H1657V972.9Z" fill="white" stroke="#E0E0E0" stroke-width="2" stroke-miterlimit="10" stroke-linecap="round" stroke-linejoin="round"/>
<path d="M1712 871C1705.4 871 1700 874.5 1700 877V878.7V882V914.7H1724V882V878.7V877C1724 874.6 1718.6 871 1712 871Z" fill="white" stroke="#E0E0E0" stroke-width="2" stroke-miterlimit="10" stroke-linecap="round" stroke-linejoin="round"/>
<path d="M1720 878.9C1720 877.2 1716.4 874.9 1712 874.9C1707.6 874.9 1704 877.2 1704 878.9V882.9H1720V878.9Z" fill="white" stroke="#E0E0E0" stroke-width="2" stroke-miterlimit="10" stroke-linecap="round" stroke-linejoin="round"/>
<path d="M1720 882.9H1704V906.9H1720V882.9Z" fill="white" stroke="#E0E0E0" stroke-width="2" stroke-miterlimit="10" stroke-linecap="round" stroke-linejoin="round"/>
<path d="M1724 906.9H1700V915.9H1724V906.9Z" fill="white" stroke="#E0E0E0" stroke-width="2" stroke-miterlimit="10" stroke-linecap="round" stroke-linejoin="round"/>
<path d="M1725 915.9H1699V919.9H1725V915.9Z" fill="white" stroke="#E0E0E0" stroke-width="2" stroke-miterlimit="10" stroke-linecap="round" stroke-linejoin="round"/>
<path d="M1712 928C1705.4 928 1700 931.5 1700 934V935.7V939V971.7H1724V939V935.7V934C1724 931.6 1718.6 928 1712 928Z" fill="white" stroke="#E0E0E0" stroke-width="2" stroke-miterlimit="10" stroke-linecap="round" stroke-linejoin="round"/>
<path d="M1720 935.9C1720 934.2 1716.4 931.9 1712 931.9C1707.6 931.9 1704 934.2 1704 935.9V939.9H1720V935.9Z" fill="white" stroke="#E0E0E0" stroke-width="2" stroke-miterlimit="10" stroke-linecap="round" stroke-linejoin="round"/>
<path d="M1720 939.9H1704V963.9H1720V939.9Z" fill="white" stroke="#E0E0E0" stroke-width="2" stroke-miterlimit="10" stroke-linecap="round" stroke-linejoin="round"/>
<path d="M1724 963.9H1700V972.9H1724V963.9Z" fill="white" stroke="#E0E0E0" stroke-width="2" stroke-miterlimit="10" stroke-linecap="round" stroke-linejoin="round"/>
<path d="M1725 972.9H1699V976.9H1725V972.9Z" fill="white" stroke="#E0E0E0" stroke-width="2" stroke-miterlimit="10" stroke-linecap="round" stroke-linejoin="round"/>
<path d="M1716 806C1716 801.6 1712.4 798 1708 798C1703.6 798 1700 801.6 1700 806C1705 806 1712 806 1716 806Z" fill="white" stroke="#E0E0E0" stroke-width="2" stroke-miterlimit="10" stroke-linecap="round" stroke-linejoin="round"/>
<path d="M1714 831H1702C1700.9 831 1700 830.1 1700 829V806H1716V829C1716 830.1 1715.1 831 1714 831Z" fill="white" stroke="#E0E0E0" stroke-width="2" stroke-miterlimit="10" stroke-linecap="round" stroke-linejoin="round"/>
<path d="M1712 810H1704V827H1712V810Z" fill="white" stroke="#E0E0E0" stroke-width="2" stroke-miterlimit="10" stroke-linecap="round" stroke-linejoin="round"/>
<path d="M1686 806C1686 801.6 1682.4 798 1678 798C1673.6 798 1670 801.6 1670 806C1675 806 1682 806 1686 806Z" fill="white" stroke="#E0E0E0" stroke-width="2" stroke-miterlimit="10" stroke-linecap="round" stroke-linejoin="round"/>
<path d="M1684 831H1672C1670.9 831 1670 830.1 1670 829V806H1686V829C1686 830.1 1685.1 831 1684 831Z" fill="white" stroke="#E0E0E0" stroke-width="2" stroke-miterlimit="10" stroke-linecap="round" stroke-linejoin="round"/>
<path d="M1682 810H1674V827H1682V810Z" fill="white" stroke="#E0E0E0" stroke-width="2" stroke-miterlimit="10" stroke-linecap="round" stroke-linejoin="round"/>
<path d="M1656 806C1656 801.6 1652.4 798 1648 798C1643.6 798 1640 801.6 1640 806C1645 806 1652 806 1656 806Z" fill="white" stroke="#E0E0E0" stroke-width="2" stroke-miterlimit="10" stroke-linecap="round" stroke-linejoin="round"/>
<path d="M1654 831H1642C1640.9 831 1640 830.1 1640 829V806H1656V829C1656 830.1 1655.1 831 1654 831Z" fill="white" stroke="#E0E0E0" stroke-width="2" stroke-miterlimit="10" stroke-linecap="round" stroke-linejoin="round"/>
<path d="M1652 810H1644V827H1652V810Z" fill="white" stroke="#E0E0E0" stroke-width="2" stroke-miterlimit="10" stroke-linecap="round" stroke-linejoin="round"/>
</g>
<path d="M908 852V979.5" stroke="#F2F2F2" stroke-width="2"/>
<path d="M944 853C944 842.507 935.941 834 926 834C916.059 834 908 842.507 908 853" stroke="#F2F2F2" stroke-width="2"/>
<path d="M908 853C908 835.879 919.417 822 933.5 822C941.118 822 947.956 826.061 952.629 832.5" stroke="#F2F2F2" stroke-width="2"/>
<path d="M908 853C908 828.699 919.512 809 933.712 809C937.961 809 941.969 810.763 945.5 813.886" stroke="#F2F2F2" stroke-width="2"/>
<path d="M871.629 853C871.629 842.507 879.688 834 889.629 834C899.57 834 907.629 842.507 907.629 853" stroke="#F2F2F2" stroke-width="2"/>
<path d="M907.629 853C907.629 835.879 896.212 822 882.129 822C874.511 822 867.673 826.061 863 832.5" stroke="#F2F2F2" stroke-width="2"/>
<path d="M907.629 853C907.629 828.699 896.117 809 881.917 809C877.668 809 873.66 810.763 870.129 813.886" stroke="#F2F2F2" stroke-width="2"/>
<g opacity="0.6">
<path d="M207 832.715V986.055" stroke="#E0E0E0" stroke-width="2"/>
<path d="M243 833.918C243 821.297 234.941 811.067 225 811.067C215.059 811.067 207 821.297 207 833.918" stroke="#E0E0E0" stroke-width="2"/>
<path d="M207 833.918C207 813.327 218.417 796.635 232.5 796.635C240.118 796.635 246.956 801.519 251.629 809.263" stroke="#E0E0E0" stroke-width="2"/>
<path d="M207 833.918C207 804.692 218.512 781 232.712 781C236.961 781 240.969 783.121 244.5 786.876" stroke="#E0E0E0" stroke-width="2"/>
<path d="M170.629 833.918C170.629 821.297 178.688 811.067 188.629 811.067C198.57 811.067 206.629 821.297 206.629 833.918" stroke="#E0E0E0" stroke-width="2"/>
<path d="M206.629 833.918C206.629 813.327 195.212 796.635 181.129 796.635C173.511 796.635 166.673 801.519 162 809.263" stroke="#E0E0E0" stroke-width="2"/>
<path d="M206.629 833.918C206.629 804.692 195.117 781 180.917 781C176.668 781 172.66 783.121 169.129 786.876" stroke="#E0E0E0" stroke-width="2"/>
</g>
<g opacity="0.6">
<path d="M292.331 907.938C300.637 900.224 302.443 886.3 296.367 876.837C290.291 867.375 278.633 865.957 270.328 873.671" stroke="#E0E0E0" stroke-width="2"/>
<path d="M270.328 873.671C283.878 861.086 301.841 861.751 310.449 875.156C315.106 882.407 316.071 891.902 313.831 901.082" stroke="#E0E0E0" stroke-width="2"/>
<path d="M270.326 873.67C289.559 855.807 312.187 852.283 320.866 865.8C323.463 869.844 324.517 874.956 324.204 880.612" stroke="#E0E0E0" stroke-width="2"/>
<path d="M248.097 839.049C256.402 831.335 268.06 832.753 274.137 842.216C280.213 851.678 278.406 865.602 270.101 873.316" stroke="#E0E0E0" stroke-width="2"/>
<path d="M270.1 873.317C283.65 860.731 287.657 839.662 279.049 826.256C274.392 819.005 266.998 815.481 259.046 815.767" stroke="#E0E0E0" stroke-width="2"/>
<path d="M270.1 873.317C289.332 855.454 297.888 830.016 289.208 816.499C286.611 812.454 282.766 809.936 278.136 808.87" stroke="#E0E0E0" stroke-width="2"/>
<path d="M271.279 872.222C235.182 901.057 219.092 947.277 216.047 993.906" stroke="#E0E0E0" stroke-width="2"/>
</g>
<g opacity="0.6">
<path d="M293.032 934.041C300.552 932.643 307.94 938.364 309.534 946.82C310.365 951.225 309.458 955.503 307.336 958.789" stroke="#E0E0E0" stroke-width="2"/>
<path d="M293.033 934.036C305.303 931.755 317.08 939.616 319.338 951.595C319.877 954.453 319.825 957.287 319.267 959.978" stroke="#E0E0E0" stroke-width="2"/>
<path d="M293.033 934.037C305.183 931.778 316.627 934.583 323.209 940.588C326.061 943.189 328 946.392 328.689 950.044" stroke="#E0E0E0" stroke-width="2"/>
<path d="M292.849 933.575C300.536 934.796 307.187 928.912 307.704 920.431C307.974 916.013 306.526 911.762 303.99 908.531" stroke="#E0E0E0" stroke-width="2"/>
<path d="M292.85 933.578C305.392 935.571 316.153 927.447 316.886 915.433C317.061 912.567 316.649 909.738 315.75 907.064" stroke="#E0E0E0" stroke-width="2"/>
<path d="M292.848 933.577C305.268 935.551 316.338 932.483 322.148 926.335C324.665 923.67 326.195 920.427 326.418 916.765" stroke="#E0E0E0" stroke-width="2"/>
<path d="M294.041 933.521C262.569 936.655 239.908 958.99 225.818 986.986" stroke="#E0E0E0" stroke-width="2"/>
</g>
<g opacity="0.6">
<path d="M1807 877V986" stroke="#E0E0E0" stroke-width="2"/>
<path d="M1843 878C1843 867.507 1834.94 859 1825 859C1815.06 859 1807 867.507 1807 878" stroke="#E0E0E0" stroke-width="2"/>
<path d="M1807 878C1807 860.879 1818.42 847 1832.5 847C1840.12 847 1846.96 851.061 1851.63 857.5" stroke="#E0E0E0" stroke-width="2"/>
<path d="M1807 878C1807 853.699 1818.51 834 1832.71 834C1836.96 834 1840.97 835.763 1844.5 838.886" stroke="#E0E0E0" stroke-width="2"/>
<path d="M1770.63 878C1770.63 867.507 1778.69 859 1788.63 859C1798.57 859 1806.63 867.507 1806.63 878" stroke="#E0E0E0" stroke-width="2"/>
<path d="M1806.63 878C1806.63 860.879 1795.21 847 1781.13 847C1773.51 847 1766.67 851.061 1762 857.5" stroke="#E0E0E0" stroke-width="2"/>
<path d="M1806.63 878C1806.63 853.699 1795.12 834 1780.92 834C1776.67 834 1772.66 835.763 1769.13 838.886" stroke="#E0E0E0" stroke-width="2"/>
</g>
<path opacity="0.6" d="M146.492 922.782C133.101 926.37 124.407 937.343 127.073 947.291L151.318 940.795M146.492 922.782C159.882 919.194 172.898 924.35 175.564 934.298L151.318 940.795M146.492 922.782L145.466 918.955M151.318 940.795L162.999 984.5" stroke="#E0E0E0" stroke-width="2"/>
</g>
<defs>
<clipPath id="clip0">
<rect width="1920" height="980" fill="white"/>
</clipPath>
</defs>
</svg>
