<svg width="74" height="75" viewBox="0 0 74 75" fill="none" xmlns="http://www.w3.org/2000/svg">
<circle cx="37" cy="37.7998" r="37" fill="#F0F0F0"/>
<mask id="mask0" mask-type="alpha" maskUnits="userSpaceOnUse" x="1" y="9" width="74" height="44">
<path d="M73.889 40.7998C69.809 37.2578 65.4288 36.3155 64.2451 35.9838C62.6582 35.5392 57.8544 29.3153 54.6591 26.9993C63.5077 17.9908 55.0453 16.8568 49.708 17.4158C50.635 12.6241 45.2108 8.46178 40.7541 12.8637L31.168 23.4055C18.8642 25.2264 13.4005 39.5776 12.2066 46.5256C9.23119 46.4809 5.22723 47.1673 1.5 49.162" stroke="white" stroke-width="2"/>
<ellipse rx="0.913552" ry="2.90262" transform="matrix(-0.984145 0.177368 0.181666 0.98336 32.3841 38.2376)" fill="white"/>
<ellipse rx="0.913552" ry="2.90262" transform="matrix(-0.984145 0.177368 0.181666 0.98336 38.5482 37.1265)" fill="white"/>
<path d="M39.5046 45.6368C39.5046 44.3917 38.4826 43.3823 37.222 43.3823C35.9614 43.3823 34.9395 44.3917 34.9395 45.6368" stroke="white" stroke-width="2" stroke-linecap="round"/>
<path d="M30.7178 45.2012L30.3327 46.2285C29.6077 48.1623 28.883 51.3992 30.9482 51.3992C33.0128 51.3992 32.2815 48.1644 31.543 46.2364L31.1459 45.1997C31.0705 45.0029 30.7918 45.0039 30.7178 45.2012Z" stroke="white" stroke-width="2" stroke-linejoin="round"/>
</mask>
<g mask="url(#mask0)">
<circle cx="37" cy="38" r="37" fill="#2C3038"/>
</g>
<path opacity="0.7" fill-rule="evenodd" clip-rule="evenodd" d="M26.7846 26.809C26.7846 26.8089 26.7847 26.8088 26.7848 26.8088L35.4784 25.8546C35.4785 25.8546 35.4786 25.8547 35.4786 25.8548C35.4786 25.8549 35.4787 25.8549 35.4787 25.8549L43.8735 24.9335C44.9715 24.813 45.9949 25.6233 45.774 26.7047C45.2275 29.3793 42.9873 31.5181 40.0946 31.8356C37.4186 32.1294 34.9409 30.7814 33.692 28.6058C33.4611 28.2036 33.0289 27.94 32.5682 27.9905C32.1076 28.0411 31.7446 28.392 31.6087 28.8345C30.8738 31.2278 28.7562 33.0802 26.0802 33.3739C23.1874 33.6914 20.5265 32.0905 19.3989 29.5996C18.943 28.5925 19.7613 27.5801 20.8593 27.4595L26.7845 26.8092C26.7846 26.8092 26.7846 26.8091 26.7846 26.809Z" fill="#EC4C56"/>
</svg>
