<svg width="74" height="74" viewBox="0 0 74 74" fill="none" xmlns="http://www.w3.org/2000/svg">
<circle cx="37" cy="37" r="37" fill="#F0F0F0"/>
<mask id="mask0" mask-type="alpha" maskUnits="userSpaceOnUse" x="0" y="9" width="74" height="41">
<path d="M72.889 40C68.809 36.458 64.4288 35.5156 63.2451 35.184C61.6582 34.7394 56.8544 28.5155 53.6591 26.1995C62.5077 17.191 54.0453 16.057 48.708 16.616C49.635 11.8243 44.2108 7.66197 39.7541 12.0639L30.168 22.6057C17.8642 24.4265 12.4005 38.7778 11.2066 45.7258C8.23119 45.6811 4.22723 46.3675 0.5 48.3622" stroke="white" stroke-width="2"/>
<ellipse rx="0.913552" ry="2.90262" transform="matrix(-0.984145 0.177368 0.181666 0.98336 31.3841 37.4377)" fill="white"/>
<ellipse rx="0.913552" ry="2.90262" transform="matrix(-0.984145 0.177368 0.181666 0.98336 37.5482 36.3267)" fill="white"/>
<path d="M38.5046 44.837C38.5046 43.5919 37.4826 42.5825 36.222 42.5825C34.9614 42.5825 33.9395 43.5919 33.9395 44.837" stroke="white" stroke-width="2" stroke-linecap="round"/>
</mask>
<g mask="url(#mask0)">
<circle cx="37" cy="37.2002" r="37" fill="#2C3038"/>
</g>
<path opacity="0.7" fill-rule="evenodd" clip-rule="evenodd" d="M24.7202 26.0092C24.7202 26.0091 24.7202 26.009 24.7203 26.009L33.4139 25.0548C33.414 25.0548 33.4141 25.0549 33.4141 25.055C33.4141 25.055 33.4142 25.0551 33.4143 25.0551L41.8091 24.1337C42.9071 24.0132 43.9304 24.8235 43.7095 25.9049C43.1631 28.5795 40.9229 30.7183 38.0301 31.0358C35.3541 31.3296 32.8765 29.9816 31.6275 27.806C31.3966 27.4037 30.9644 27.1401 30.5038 27.1907C30.0432 27.2413 29.6801 27.5922 29.5442 28.0347C28.8093 30.428 26.6917 32.2803 24.0157 32.5741C21.123 32.8916 18.462 31.2907 17.3344 28.7998C16.8785 27.7927 17.6968 26.7802 18.7948 26.6597L24.72 26.0094C24.7201 26.0094 24.7202 26.0093 24.7202 26.0092Z" fill="#51B598"/>
</svg>
