<svg width="74" height="74" viewBox="0 0 74 74" fill="none" xmlns="http://www.w3.org/2000/svg">
<circle cx="37" cy="37" r="37" fill="#F0F0F0"/>
<mask id="mask0" mask-type="alpha" maskUnits="userSpaceOnUse" x="1" y="9" width="74" height="41">
<path d="M73.889 40C69.809 36.458 65.4288 35.5156 64.2451 35.184C62.6582 34.7394 57.8544 28.5155 54.6591 26.1995C63.5077 17.191 55.0453 16.057 49.708 16.616C50.635 11.8243 45.2108 7.66197 40.7541 12.0639L31.168 22.6057C18.8642 24.4265 13.4005 38.7778 12.2066 45.7258C9.23119 45.6811 5.22723 46.3675 1.5 48.3622" stroke="white" stroke-width="2"/>
<ellipse rx="0.913552" ry="2.90262" transform="matrix(-0.984145 0.177368 0.181666 0.98336 32.3841 37.4377)" fill="white"/>
<ellipse rx="0.913552" ry="2.90262" transform="matrix(-0.984145 0.177368 0.181666 0.98336 38.5482 36.3267)" fill="white"/>
<path d="M39.5046 45.837C39.5046 44.5919 38.4826 43.5825 37.222 43.5825C35.9614 43.5825 34.9395 44.5919 34.9395 45.837" stroke="white" stroke-width="2" stroke-linecap="round"/>
</mask>
<g mask="url(#mask0)">
<circle cx="37" cy="37.2002" r="37" fill="#2C3038"/>
</g>
<path opacity="0.7" fill-rule="evenodd" clip-rule="evenodd" d="M26.7846 26.0092C26.7846 26.0091 26.7847 26.009 26.7848 26.009L35.4784 25.0548C35.4785 25.0548 35.4786 25.0549 35.4786 25.055C35.4786 25.055 35.4787 25.0551 35.4787 25.0551L43.8735 24.1337C44.9715 24.0132 45.9949 24.8235 45.774 25.9049C45.2275 28.5795 42.9873 30.7183 40.0946 31.0358C37.4186 31.3296 34.9409 29.9816 33.692 27.806C33.4611 27.4038 33.0289 27.1401 32.5682 27.1907C32.1076 27.2413 31.7446 27.5922 31.6087 28.0347C30.8738 30.428 28.7562 32.2803 26.0802 32.5741C23.1874 32.8916 20.5265 31.2907 19.3989 28.7998C18.943 27.7927 19.7613 26.7802 20.8593 26.6597L26.7845 26.0094C26.7846 26.0094 26.7846 26.0093 26.7846 26.0092Z" fill="#F4B04A"/>
</svg>
