<svg width="25" height="24" viewBox="0 0 25 24" fill="none" xmlns="http://www.w3.org/2000/svg">
<path d="M0.25 4C0.25 1.79086 2.04086 0 4.25 0H20.25C22.4591 0 24.25 1.79086 24.25 4V20C24.25 22.2091 22.4591 24 20.25 24H4.25C2.04086 24 0.25 22.2091 0.25 20V4Z" fill="#F7F7F7"/>
<path d="M4.25 1H20.25V-1H4.25V1ZM23.25 4V20H25.25V4H23.25ZM20.25 23H4.25V25H20.25V23ZM1.25 20V4H-0.75V20H1.25ZM4.25 23C2.59315 23 1.25 21.6569 1.25 20H-0.75C-0.75 22.7614 1.48858 25 4.25 25V23ZM23.25 20C23.25 21.6569 21.9069 23 20.25 23V25C23.0114 25 25.25 22.7614 25.25 20H23.25ZM20.25 1C21.9069 1 23.25 2.34315 23.25 4H25.25C25.25 1.23858 23.0114 -1 20.25 -1V1ZM4.25 -1C1.48858 -1 -0.75 1.23858 -0.75 4H1.25C1.25 2.34315 2.59315 1 4.25 1V-1Z" fill="#D5D6D7"/>
</svg>
