<svg width="226" height="241" viewBox="0 0 226 241" fill="none" xmlns="http://www.w3.org/2000/svg">
<path d="M121 145L111.5 83.4993C100.3 67.0993 70.5 97.3327 57 114.499L70 126.499C31 171 18.5 218.166 16 243.999H158.5L171.5 203.999L179 174.999L216.5 165.999C210.9 126.799 192.5 104.999 184 98.9993L121 145Z" fill="#51B598"/>
<path d="M133.06 230.625C134.637 226.616 139.658 229.51 141.971 231.458C138.414 225.401 140.871 224.881 142.544 225.378C141.032 223.056 143.109 221.74 144.337 221.372C147.687 216.914 149.969 219.91 150.69 221.966C154.54 222.802 152.356 225.784 150.782 227.171C155.265 224.114 154.937 225.77 154.213 226.98C156.382 224.457 158.504 225.905 159.294 226.944C160.357 227.441 162.554 228.56 162.839 229.064C163.125 229.568 162.625 229.868 162.339 229.954C162.488 231.019 162.589 233.658 161.798 235.697C161.006 237.735 156.777 238.038 154.761 237.935C156.396 238.542 159.834 240.283 160.501 242.39C161.168 244.497 158.994 245.714 157.824 246.059C159.638 245.887 159.708 246.377 159.517 246.643C155.237 253.194 150.582 251.657 148.789 250.07L149.404 251.49C146.566 251.225 145.652 249.209 145.55 248.234C145.417 251.765 144.371 251.02 143.866 250.206C141.646 255.382 138.988 252.504 137.936 250.418C133.331 252.646 133.089 248.858 133.543 246.686C133.012 244.098 134.718 242.41 136.257 241.548C131.222 243.366 130.078 238.561 130.166 235.722C128.449 233.449 131.38 231.377 133.06 230.625Z" fill="#F07078"/>
<ellipse rx="4.08492" ry="4.06489" transform="matrix(0.995661 0.0930561 -0.0938807 0.995584 145.77 237.242)" fill="#FAD769"/>
<path d="M27.0856 206.114C28.6623 202.104 33.6831 204.998 35.9965 206.947C32.4391 200.89 34.8965 200.37 36.5698 200.867C35.0574 198.545 37.1348 197.228 38.3626 196.86C41.7128 192.403 43.9939 195.399 44.7157 197.454C48.5655 198.291 46.381 201.273 44.8076 202.659C49.2909 199.602 48.9627 201.258 48.2382 202.468C50.4072 199.945 52.5291 201.393 53.319 202.432C54.3819 202.929 56.5792 204.049 56.8646 204.552C57.1501 205.056 56.6501 205.356 56.3645 205.443C56.5138 206.507 56.6146 209.146 55.823 211.185C55.0315 213.223 50.8023 213.527 48.7866 213.424C50.4218 214.031 53.859 215.772 54.5259 217.878C55.1929 219.985 53.0195 221.202 51.8494 221.547C53.6634 221.376 53.7338 221.865 53.5423 222.131C49.2622 228.682 44.6072 227.145 42.8147 225.558L43.4299 226.979C40.5916 226.713 39.6774 224.697 39.5752 223.722C39.4419 227.253 38.3968 226.508 37.891 225.694C35.6715 230.871 33.013 227.993 31.9612 225.907C27.3563 228.134 27.1142 224.346 27.5688 222.174C27.0378 219.586 28.7436 217.898 30.2827 217.037C25.247 218.854 24.1038 214.049 24.1912 211.21C22.4745 208.937 25.4055 206.865 27.0856 206.114Z" fill="#F07078"/>
<ellipse rx="4.08492" ry="4.06489" transform="matrix(0.995661 0.0930561 -0.0938807 0.995584 39.795 212.73)" fill="#FAD769"/>
<path d="M102.086 175.114C103.662 171.104 108.683 173.998 110.996 175.947C107.439 169.89 109.896 169.37 111.57 169.867C110.057 167.545 112.135 166.228 113.363 165.86C116.713 161.403 118.994 164.399 119.716 166.454C123.566 167.291 121.381 170.273 119.808 171.659C124.291 168.602 123.963 170.258 123.238 171.468C125.407 168.945 127.529 170.393 128.319 171.432C129.382 171.929 131.579 173.049 131.865 173.552C132.15 174.056 131.65 174.356 131.364 174.443C131.514 175.507 131.615 178.146 130.823 180.185C130.031 182.223 125.802 182.527 123.787 182.424C125.422 183.031 128.859 184.772 129.526 186.878C130.193 188.985 128.02 190.202 126.849 190.547C128.663 190.376 128.734 190.865 128.542 191.131C124.262 197.682 119.607 196.145 117.815 194.558L118.43 195.979C115.592 195.713 114.677 193.697 114.575 192.722C114.442 196.253 113.397 195.508 112.891 194.694C110.672 199.871 108.013 196.993 106.961 194.907C102.356 197.134 102.114 193.346 102.569 191.174C102.038 188.586 103.744 186.898 105.283 186.037C100.247 187.854 99.1038 183.049 99.1912 180.21C97.4745 177.937 100.405 175.865 102.086 175.114Z" fill="#F07078"/>
<ellipse rx="4.08492" ry="4.06489" transform="matrix(0.995661 0.0930561 -0.0938807 0.995584 114.795 181.73)" fill="#FAD769"/>
<path d="M71.0856 115.114C72.6623 111.104 77.6831 113.998 79.9965 115.947C76.4391 109.89 78.8965 109.37 80.5698 109.867C79.0574 107.545 81.1348 106.228 82.3626 105.86C85.7128 101.403 87.9939 104.399 88.7157 106.454C92.5655 107.291 90.381 110.273 88.8076 111.659C93.2909 108.602 92.9627 110.258 92.2382 111.468C94.4072 108.945 96.5291 110.393 97.319 111.432C98.3819 111.929 100.579 113.049 100.865 113.552C101.15 114.056 100.65 114.356 100.364 114.443C100.514 115.507 100.615 118.146 99.823 120.185C99.0315 122.223 94.8023 122.527 92.7866 122.424C94.4218 123.031 97.859 124.772 98.5259 126.878C99.1929 128.985 97.0195 130.202 95.8494 130.547C97.6634 130.376 97.7338 130.865 97.5423 131.131C93.2622 137.682 88.6072 136.145 86.8147 134.558L87.4299 135.979C84.5916 135.713 83.6774 133.697 83.5752 132.722C83.4419 136.253 82.3968 135.508 81.891 134.694C79.6715 139.871 77.013 136.993 75.9612 134.907C71.3563 137.134 71.1142 133.346 71.5688 131.174C71.0378 128.586 72.7436 126.898 74.2827 126.037C69.247 127.854 68.1038 123.049 68.1912 120.21C66.4745 117.937 69.4055 115.865 71.0856 115.114Z" fill="#F07078"/>
<ellipse rx="4.08492" ry="4.06489" transform="matrix(0.995661 0.0930561 -0.0938807 0.995584 83.795 121.73)" fill="#FAD769"/>
<path d="M180.086 143.114C181.662 139.104 186.683 141.998 188.996 143.947C185.439 137.89 187.896 137.37 189.57 137.867C188.057 135.545 190.135 134.228 191.363 133.86C194.713 129.403 196.994 132.399 197.716 134.454C201.566 135.291 199.381 138.273 197.808 139.659C202.291 136.602 201.963 138.258 201.238 139.468C203.407 136.945 205.529 138.393 206.319 139.432C207.382 139.929 209.579 141.049 209.865 141.552C210.15 142.056 209.65 142.356 209.364 142.443C209.514 143.507 209.615 146.146 208.823 148.185C208.031 150.223 203.802 150.527 201.787 150.424C203.422 151.031 206.859 152.772 207.526 154.878C208.193 156.985 206.02 158.202 204.849 158.547C206.663 158.376 206.734 158.865 206.542 159.131C202.262 165.682 197.607 164.145 195.815 162.558L196.43 163.979C193.592 163.713 192.677 161.697 192.575 160.722C192.442 164.253 191.397 163.508 190.891 162.694C188.672 167.871 186.013 164.993 184.961 162.907C180.356 165.134 180.114 161.346 180.569 159.174C180.038 156.586 181.744 154.898 183.283 154.037C178.247 155.854 177.104 151.049 177.191 148.21C175.474 145.937 178.405 143.865 180.086 143.114Z" fill="#F07078"/>
<ellipse rx="4.08492" ry="4.06489" transform="matrix(0.995661 0.0930561 -0.0938807 0.995584 192.795 149.73)" fill="#FAD769"/>
<path d="M121.5 145.5L106 120L118.5 112.5L93.5 84.5C96 82.1667 104 79.5 112 83.5" stroke="white" stroke-width="3" stroke-linejoin="round"/>
<ellipse rx="1.19549" ry="3.87055" transform="matrix(-0.98437 -0.176113 -0.178802 0.983885 138.655 76.0254)" fill="#585AF1"/>
<path d="M158.194 77.6669C156.724 77.0541 153.192 76.4444 150.827 78.9081" stroke="#585AF1" stroke-width="2" stroke-linecap="round"/>
<path d="M155.873 73.7685C154.301 74.0276 150.982 75.3815 150.282 78.7236" stroke="#585AF1" stroke-width="2" stroke-linecap="round"/>
<path d="M87.2891 110.5C64.6224 130 18.5891 185.5 15.7891 251.5" stroke="#585AF1" stroke-width="3" stroke-linecap="round"/>
<path d="M110.789 82.4815C114.76 77.8696 119.494 60.6082 133.338 61.348L158.463 50.8436C167.123 45.7858 177.333 49.7991 172.073 65.9868C176.606 64.8642 180.918 62.5776 186.677 65.738C189.535 67.3059 192.406 77.4004 180.064 83.7083C181.306 88.4722 184.711 97.5 187.5 102" stroke="#585AF1" stroke-width="3"/>
<path d="M152.48 93.1613C152.627 92.3461 152.087 91.5638 151.272 91.414L140.994 89.524C140.179 89.3742 139.399 89.9135 139.251 90.7287C138.588 94.394 140.998 97.9263 144.661 98.5999C148.324 99.2735 151.816 96.8266 152.48 93.1613Z" stroke="#585AF1" stroke-width="3" stroke-linecap="round" stroke-linejoin="round"/>
<path opacity="0.7" fill-rule="evenodd" clip-rule="evenodd" d="M151.495 78.6052C151.495 78.6051 151.495 78.6051 151.495 78.6051L140.126 77.3319C140.125 77.3319 140.125 77.3319 140.125 77.332C140.125 77.332 140.125 77.3321 140.125 77.3321L128.535 76.0341C127.437 75.9112 126.424 76.7112 126.557 77.8084C127.024 81.6793 130.077 84.863 134.089 85.3124C137.595 85.705 140.84 83.8995 142.471 80.9878C142.767 80.4596 143.33 80.1146 143.932 80.1819C144.534 80.2493 145.009 80.7106 145.182 81.2914C146.139 84.4928 148.912 86.9722 152.417 87.3648C156.43 87.8142 160.102 85.3835 161.401 81.7104C161.769 80.6693 160.955 79.6646 159.858 79.5417L151.495 78.6052C151.495 78.6052 151.495 78.6052 151.495 78.6052Z" fill="#EC4C56"/>
<path d="M171.484 179.956C174.202 176.484 179.613 174.475 183.66 177.146C182.205 175.768 180.56 174.363 179.501 173.5L216.501 166.437C229.301 223.987 208.503 248.931 196.504 254.209C168.052 272.151 146.915 233.869 144.835 210.617C135.997 206.662 137.691 193.429 137.238 185.932C129.642 183.195 115.573 176.131 120.067 169.765C128.727 157.849 138.728 168.481 143.653 176.872C142.353 173.748 142.069 169.225 147.255 166.437C152.419 163.661 156.026 166.357 157.921 169.152C147.02 146.92 171.851 142.964 170.284 154.058C166.818 172.853 169.64 179.155 171.484 179.956Z" fill="white"/>
<path d="M186.64 180.54C191.642 189.844 184.548 194.415 181.692 192.371C179.671 190.925 177.101 190.842 175.541 191.445C174.963 194.578 174.493 200.957 171.484 202.809L186.64 218.696M186.64 180.54C182.839 173.469 174.96 175.516 171.484 179.956C169.64 179.155 166.818 172.853 170.284 154.058C171.902 142.605 145.39 147.191 159.091 171.363M186.64 180.54C185.914 178.972 181.578 175.193 179.501 173.5L216.501 166.437M159.091 171.363C157.887 168.247 153.835 162.9 147.255 166.437C140.675 169.974 142.9 176.304 144.835 179.026M159.091 171.363L161.272 175.42M144.835 179.026C140.506 170.536 129.492 156.797 120.067 169.765C115.573 176.131 129.642 183.195 137.238 185.932C137.691 193.429 135.997 206.662 144.835 210.617M144.835 179.026L147.016 183.084M150.914 211.764C148.472 211.764 146.473 211.35 144.835 210.617M144.835 210.617C146.915 233.869 168.052 272.151 196.504 254.209C208.503 248.931 229.301 223.987 216.501 166.437M216.501 166.437C214.971 153.292 206.629 121.3 185.501 98.5" stroke="#585AF1" stroke-width="3" stroke-linecap="round" stroke-linejoin="round"/>
<path d="M15.3018 150.494C19.3038 157.197 20.2859 162.739 20.2767 164.673C20.0457 175.577 24.4633 195.301 43.981 186.964C49.7822 188.995 61.4356 189.443 61.6407 174.977C63.8007 171.53 66.5031 164.378 60.0328 163.339C55.4005 162.483 54.2719 168.687 51.8389 170.557C48.9109 172.808 46.1313 175.455 38.6831 171.864C35.5746 170.059 54.2201 165.585 54.0538 159.233C53.8876 152.88 51.3337 147.365 42.6839 156.811C35.7641 164.368 31.4745 162.881 30.1946 161.193C29.9307 158.873 28.9695 153.35 27.2365 149.822C22.0743 139.225 10.2993 142.115 15.3018 150.494Z" fill="white"/>
<path d="M27.2365 149.822C22.0743 139.225 10.2993 142.115 15.3018 150.494C19.3038 157.197 20.2859 162.739 20.2767 164.673C20.0457 175.577 24.4633 195.301 43.981 186.964C49.7821 188.995 61.4356 189.443 61.6407 174.977M27.2365 149.822C28.9695 153.35 29.9307 158.873 30.1946 161.193C31.4745 162.881 35.7641 164.368 42.6839 156.811C51.3337 147.365 53.8876 152.88 54.0538 159.233C54.2201 165.585 35.5746 170.059 38.6831 171.864C46.1313 175.455 48.9109 172.808 51.8389 170.557C54.2719 168.687 55.4005 162.483 60.0328 163.339C66.5031 164.378 63.8007 171.53 61.6407 174.977M27.2365 149.822C47.7539 121.215 93.3886 67.401 111.789 81.001M61.6407 174.977C58.5556 178.334 50.3427 184.401 42.172 181.808" stroke="#585AF1" stroke-width="3" stroke-linecap="round" stroke-linejoin="round"/>
<path d="M33.0507 178.545L13.5474 125.604C13.0811 124.338 13.9759 122.984 15.3231 122.915L41.0511 121.614C41.9483 121.569 42.7656 122.127 43.0496 122.98L61.6931 178.939C62.143 180.289 61.078 181.664 59.6578 181.566L34.7896 179.849C34.0038 179.795 33.323 179.284 33.0507 178.545Z" fill="white" stroke="#585AF1" stroke-width="3"/>
<path d="M15.5131 150.493C19.5152 157.196 20.4972 162.739 20.488 164.672C20.2571 175.576 24.6747 195.3 44.1924 186.963C49.9935 188.995 61.647 189.442 61.8521 174.976C64.012 171.53 66.7144 164.377 60.2441 163.339C55.6118 162.482 54.4833 168.686 52.0503 170.556C49.1223 172.808 46.3426 175.454 38.8944 171.863C35.786 170.059 54.4314 165.585 54.2652 159.232C54.099 152.879 51.5451 147.364 42.8953 156.81C35.9755 164.367 31.6858 162.88 30.406 161.192C30.142 158.872 29.1808 153.35 27.4478 149.821C22.2856 139.224 10.5106 142.115 15.5131 150.493Z" fill="white"/>
<path d="M61.8521 174.976C61.647 189.442 49.9935 188.995 44.1924 186.963C24.6747 195.3 20.2571 175.576 20.488 164.672C20.4972 162.739 19.5152 157.196 15.5131 150.493C10.5106 142.115 22.2856 139.224 27.4478 149.821C29.1808 153.35 30.142 158.872 30.406 161.192C31.6858 162.88 35.9755 164.367 42.8953 156.81C51.5451 147.364 54.099 152.879 54.2652 159.232C54.4314 165.585 35.786 170.059 38.8944 171.863C46.3426 175.454 49.1223 172.808 52.0503 170.556C54.4833 168.686 55.6118 162.482 60.2441 163.339C66.7144 164.377 64.012 171.53 61.8521 174.976ZM61.8521 174.976C58.7669 178.334 50.554 184.4 42.3833 181.807" stroke="#585AF1" stroke-width="3" stroke-linecap="round" stroke-linejoin="round"/>
<path d="M69.5 59.2857C54.3122 59.2857 42 47.1334 42 32.1429C42 17.1523 54.3122 5 69.5 5C84.6878 5 97 17.1523 97 32.1429C97 38.9206 94.4831 45.1182 90.3214 49.8746L92.6786 62L79.7264 57.3469C76.5652 58.5976 73.114 59.2857 69.5 59.2857Z" fill="#585AF1" stroke="#585AF1" stroke-width="3" stroke-linejoin="round"/>
<ellipse cx="70.2096" cy="20.7755" rx="4.88401" ry="4.88402" transform="rotate(3 70.2096 20.7755)" fill="#F4B04A"/>
<ellipse cx="69.0338" cy="43.2112" rx="4.88402" ry="4.88402" transform="rotate(3 69.0338 43.2112)" fill="#F4B04A"/>
<path fill-rule="evenodd" clip-rule="evenodd" d="M85.0504 36.2254L53.8355 34.5895L54.1934 27.7612L85.4082 29.3971L85.0504 36.2254Z" fill="white"/>
<path d="M182.499 98.5019L194.448 115.128L149.914 118.919L152.125 134.619L120 144.5" stroke="white" stroke-width="3" stroke-linejoin="round"/>
</svg>
