<svg width="142" height="151" viewBox="0 0 142 151" fill="none" xmlns="http://www.w3.org/2000/svg">
<path d="M83.7798 38.5749C75.0817 38.1097 70.4961 48.6001 68.0011 51.5L74.5015 94.5L117.811 64.1363C116.059 61.3068 113.919 55.6302 113.139 52.6348C120.894 48.6684 119.09 42.3211 117.294 41.3353C113.676 39.348 110.967 40.7858 108.118 41.4917C111.423 31.3131 105.008 28.7895 99.5664 31.9698L83.7798 38.5749Z" fill="white" stroke="#585AF1" stroke-width="2"/>
<path d="M12.741 103.544C12.7467 102.328 12.1297 98.8432 9.61514 94.6285C6.47197 89.3602 13.8704 87.5427 17.1139 94.2062C30.0054 76.2185 58.4389 42.4484 70 50.9999L32 95.4759C33.3844 95.8465 33.9057 97.9036 33.9638 100.123C34.0682 104.118 22.3529 106.931 24.306 108.066C28.9859 110.324 30.7324 108.66 32.5721 107.244C34.1008 106.068 34.8099 102.167 37.7204 102.706C41.7858 103.359 40.0879 107.856 38.7307 110.023C38.6019 119.119 31.2798 118.838 27.6348 117.56C15.3715 122.803 12.5959 110.4 12.741 103.544Z" fill="white"/>
<path d="M76.0281 91.1742L70.0591 52.5033C63.0219 42.1912 44.2981 61.2015 35.8158 71.9957L43.9839 79.5412C19.4795 107.523 11.6255 137.18 10.0547 153.424H99.5901L107.758 128.272L112.471 110.037L136.033 104.378C132.514 79.7298 120.953 66.0223 115.612 62.2495L76.0281 91.1742Z" fill="#51B598"/>
<path d="M83.6043 145.015C84.5949 142.493 87.7496 144.313 89.2031 145.538C86.968 141.73 88.512 141.403 89.5634 141.715C88.6131 140.255 89.9184 139.427 90.6898 139.196C92.7948 136.393 94.2281 138.277 94.6816 139.569C97.1005 140.096 95.728 141.97 94.7393 142.842C97.5563 140.92 97.3501 141.961 96.8948 142.722C98.2577 141.136 99.5909 142.046 100.087 142.7C100.755 143.012 102.136 143.716 102.315 144.033C102.494 144.35 102.18 144.538 102.001 144.593C102.095 145.262 102.158 146.921 101.661 148.203C101.163 149.485 98.5059 149.676 97.2394 149.611C98.2669 149.993 100.426 151.087 100.846 152.412C101.265 153.737 99.899 154.502 99.1639 154.719C100.304 154.611 100.348 154.919 100.228 155.086C97.5382 159.205 94.6134 158.239 93.4872 157.241L93.8737 158.134C92.0903 157.967 91.516 156.7 91.4517 156.086C91.368 158.307 90.7114 157.838 90.3935 157.327C88.999 160.581 87.3286 158.772 86.6677 157.46C83.7744 158.861 83.6223 156.479 83.9079 155.113C83.5743 153.486 84.646 152.425 85.6131 151.883C82.449 153.025 81.7307 150.004 81.7857 148.219C80.707 146.79 82.5486 145.487 83.6043 145.015Z" fill="#F07078"/>
<ellipse rx="2.56665" ry="2.55594" transform="matrix(0.995654 0.0931251 -0.0938112 0.99559 91.5892 149.175)" fill="#FAD769"/>
<path d="M17.0183 129.602C18.009 127.081 21.1637 128.9 22.6172 130.125C20.3821 126.317 21.9261 125.99 22.9774 126.303C22.0272 124.842 23.3325 124.015 24.1039 123.783C26.2089 120.981 27.6422 122.864 28.0957 124.157C30.5146 124.683 29.142 126.558 28.1534 127.429C30.9703 125.507 30.7641 126.549 30.3089 127.31C31.6717 125.723 33.005 126.633 33.5012 127.287C34.1691 127.599 35.5497 128.303 35.7291 128.62C35.9084 128.937 35.5943 129.125 35.4148 129.18C35.5086 129.849 35.5719 131.509 35.0746 132.79C34.5773 134.072 31.92 134.263 30.6535 134.198C31.6809 134.58 33.8405 135.675 34.2596 136.999C34.6787 138.324 33.3131 139.089 32.5779 139.306C33.7177 139.198 33.7619 139.506 33.6416 139.673C30.9523 143.793 28.0275 142.826 26.9012 141.828L27.2877 142.721C25.5044 142.555 24.93 141.287 24.8658 140.674C24.7821 142.894 24.1254 142.426 23.8076 141.914C22.4131 145.169 20.7427 143.359 20.0818 142.047C17.1885 143.448 17.0363 141.066 17.3219 139.7C16.9883 138.073 18.0601 137.012 19.0272 136.47C15.8631 137.613 15.1448 134.592 15.1997 132.806C14.1211 131.377 15.9627 130.074 17.0183 129.602Z" fill="#F07078"/>
<ellipse rx="2.56665" ry="2.55594" transform="matrix(0.995654 0.0931254 -0.0938109 0.99559 25.0032 133.762)" fill="#FAD769"/>
<path d="M64.1433 110.109C65.134 107.588 68.2887 109.408 69.7422 110.633C67.5071 106.824 69.0511 106.498 70.1024 106.81C69.1522 105.35 70.4575 104.522 71.2289 104.291C73.3339 101.488 74.7672 103.372 75.2207 104.664C77.6396 105.19 76.267 107.065 75.2784 107.937C78.0953 106.015 77.8891 107.056 77.4339 107.817C78.7967 106.231 80.13 107.141 80.6263 107.794C81.2941 108.107 82.6747 108.811 82.8541 109.128C83.0334 109.444 82.7193 109.633 82.5398 109.687C82.6336 110.357 82.6969 112.016 82.1996 113.298C81.7023 114.58 79.045 114.771 77.7785 114.706C78.8059 115.087 80.9656 116.182 81.3846 117.507C81.8037 118.832 80.4381 119.597 79.7029 119.814C80.8427 119.706 80.8869 120.014 80.7666 120.181C78.0773 124.3 75.1525 123.334 74.0262 122.336L74.4128 123.229C72.6294 123.062 72.055 121.794 71.9908 121.181C71.9071 123.402 71.2504 122.933 70.9326 122.421C69.5381 125.676 67.8677 123.867 67.2068 122.555C64.3135 123.956 64.1613 121.574 64.4469 120.208C64.1133 118.581 65.1851 117.519 66.1522 116.978C62.9881 118.12 62.2698 115.099 62.3247 113.314C61.2461 111.885 63.0877 110.582 64.1433 110.109Z" fill="#F07078"/>
<ellipse rx="2.56665" ry="2.55594" transform="matrix(0.995654 0.093125 -0.0938113 0.99559 72.1282 114.27)" fill="#FAD769"/>
<path d="M44.6648 72.3821C45.6555 69.8608 48.8102 71.6807 50.2637 72.9058C48.0286 69.0972 49.5725 68.7702 50.6239 69.0828C49.6737 67.6227 50.979 66.7949 51.7504 66.5635C53.8554 63.7608 55.2887 65.6446 55.7422 66.9369C58.1611 67.4631 56.7885 69.338 55.7999 70.2097C58.6168 68.2878 58.4106 69.329 57.9554 70.0899C59.3182 68.5033 60.6515 69.4137 61.1477 70.0671C61.8156 70.3796 63.1962 71.0836 63.3755 71.4004C63.5549 71.7171 63.2408 71.9055 63.0613 71.9602C63.1551 72.6296 63.2184 74.2888 62.7211 75.5707C62.2238 76.8526 59.5665 77.0433 58.3 76.9784C59.3274 77.3602 61.487 78.4549 61.9061 79.7797C62.3252 81.1044 60.9596 81.8694 60.2244 82.0863C61.3642 81.9787 61.4084 82.2863 61.2881 82.4536C58.5988 86.573 55.674 85.6066 54.5477 84.6085L54.9342 85.5017C53.1509 85.3349 52.5765 84.0671 52.5123 83.454C52.4286 85.6745 51.7719 85.2059 51.454 84.6941C50.0595 87.949 48.3891 86.1394 47.7283 84.8277C44.8349 86.2283 44.6828 83.8466 44.9684 82.4806C44.6348 80.8535 45.7066 79.7921 46.6737 79.2502C43.5096 80.3931 42.7913 77.3718 42.8462 75.5866C41.7676 74.1573 43.6092 72.8547 44.6648 72.3821Z" fill="#F07078"/>
<ellipse rx="2.56665" ry="2.55594" transform="matrix(0.995654 0.093125 -0.0938112 0.99559 52.6497 76.5425)" fill="#FAD769"/>
<path d="M113.151 89.9882C114.142 87.4669 117.297 89.2868 118.75 90.5118C116.515 86.7033 118.059 86.3763 119.11 86.6889C118.16 85.2288 119.465 84.401 120.237 84.1696C122.342 81.3669 123.775 83.2507 124.228 84.543C126.647 85.0692 125.275 86.9441 124.286 87.8158C127.103 85.8938 126.897 86.9351 126.442 87.696C127.805 86.1094 129.138 87.0197 129.634 87.6732C130.302 87.9856 131.683 88.6897 131.862 89.0064C132.041 89.3232 131.727 89.5116 131.548 89.5663C131.641 90.2357 131.705 91.8949 131.207 93.1768C130.71 94.4587 128.053 94.6494 126.786 94.5845C127.814 94.9663 129.973 96.061 130.392 97.3857C130.812 98.7105 129.446 99.4755 128.711 99.6924C129.851 99.5847 129.895 99.8924 129.774 100.06C127.085 104.179 124.16 103.213 123.034 102.215L123.421 103.108C121.637 102.941 121.063 101.673 120.999 101.06C120.915 103.281 120.258 102.812 119.94 102.3C118.546 105.555 116.875 103.745 116.215 102.434C113.321 103.834 113.169 101.453 113.455 100.087C113.121 98.4596 114.193 97.3982 115.16 96.8563C111.996 97.9991 111.278 94.9779 111.333 93.1926C110.254 91.7634 112.096 90.4608 113.151 89.9882Z" fill="#F07078"/>
<ellipse rx="2.56664" ry="2.55593" transform="matrix(0.995654 0.093125 -0.0938113 0.99559 121.136 94.1487)" fill="#FAD769"/>
<path d="M76.341 91.4886L66.602 75.4546L74.456 70.7386L58.748 53.1326C60.3188 51.6654 65.3454 49.9886 70.3719 52.5038" stroke="white" stroke-width="3" stroke-linejoin="round"/>
<ellipse rx="0.751162" ry="2.4337" transform="matrix(-0.984347 -0.176241 -0.178671 0.983909 87.1207 47.8038)" fill="#585AF1"/>
<path d="M99.3971 48.8362C98.4732 48.4508 96.2539 48.0674 94.7682 49.6166" stroke="#585AF1" stroke-width="2" stroke-linecap="round"/>
<path d="M97.9377 46.3847C96.9501 46.5476 94.8648 47.3989 94.4247 49.5004" stroke="#585AF1" stroke-width="2" stroke-linecap="round"/>
<path d="M54.8467 69.4811C40.6048 81.7424 11.6812 116.64 9.92188 158.14" stroke="#585AF1" stroke-width="2" stroke-linecap="round"/>
<path d="M95.8632 58.5891C95.9616 58.0456 95.601 57.5241 95.0578 57.4241L88.5999 56.2357C88.0567 56.1357 87.5367 56.4953 87.4384 57.0387C87.016 59.3733 88.5498 61.6249 90.8836 62.0544C93.2174 62.4839 95.4409 60.9237 95.8632 58.5891Z" stroke="#585AF1" stroke-width="2" stroke-linecap="round" stroke-linejoin="round"/>
<path opacity="0.7" fill-rule="evenodd" clip-rule="evenodd" d="M90.4356 50.4174C90.0575 50.375 89.7034 50.5918 89.5177 50.9237C88.4932 52.7548 86.454 53.8902 84.2512 53.6433C81.9869 53.3896 80.2092 51.7491 79.6576 49.6544C79.3761 48.5853 80.4023 47.769 81.5 47.892L88.0435 48.6254C88.0436 48.6254 88.0436 48.6254 88.0436 48.6253C88.0436 48.6253 88.0436 48.6253 88.0437 48.6253L95.1873 49.4259C95.1874 49.4259 95.1874 49.4259 95.1874 49.4259C95.1874 49.4259 95.1874 49.4259 95.1874 49.426L99.7034 49.9321C100.801 50.055 101.624 51.0782 101.117 52.0587C100.123 53.9806 98.0312 55.1876 95.7667 54.9339C93.5638 54.687 91.8215 53.1276 91.2206 51.1143C91.1118 50.7495 90.8136 50.4597 90.4356 50.4174Z" fill="#EC4C56"/>
<path d="M107.747 113.154C109.454 110.971 112.854 109.708 115.397 111.387C114.483 110.521 113.449 109.637 112.784 109.095L136.031 104.654C144.074 140.84 131.006 156.525 123.467 159.843C105.59 171.125 92.3092 147.054 91.0023 132.433C85.4495 129.947 86.5138 121.626 86.2295 116.912C81.4566 115.191 72.6168 110.749 75.4401 106.746C80.8815 99.2537 87.1656 105.939 90.2598 111.215C89.4428 109.251 89.2644 106.407 92.523 104.654C95.7676 102.908 98.034 104.604 99.2247 106.361C92.3755 92.3812 107.977 89.8938 106.992 96.8696C104.815 108.688 106.588 112.65 107.747 113.154Z" fill="white"/>
<path d="M117.269 113.521C120.412 119.372 115.955 122.246 114.161 120.961C112.891 120.051 111.276 119.999 110.295 120.378C109.932 122.348 109.637 126.359 107.747 127.524L117.269 137.514M117.269 113.521C114.881 109.075 109.931 110.363 107.747 113.154C106.588 112.65 104.815 108.688 106.992 96.8696C108.009 89.6686 91.3509 92.5517 99.9596 107.751M117.269 113.521C116.813 112.535 114.089 110.159 112.784 109.095L136.031 104.654M99.9596 107.751C99.2033 105.792 96.6571 102.43 92.523 104.654C88.3889 106.878 89.7867 110.858 91.0023 112.57M99.9596 107.751L101.33 110.302M91.0023 112.57C88.2824 107.231 81.3621 98.5918 75.4401 106.746C72.6168 110.749 81.4566 115.191 86.2295 116.912C86.5138 121.626 85.4495 129.947 91.0023 132.433M91.0023 112.57L92.3727 115.121M94.8223 133.155C93.2879 133.155 92.0315 132.894 91.0023 132.433M91.0023 132.433C92.3092 147.054 105.59 171.125 123.467 159.843C131.006 156.525 144.074 140.84 136.031 104.654M136.031 104.654C135.07 96.3879 129.829 76.272 116.554 61.9356" stroke="#585AF1" stroke-width="2" stroke-linecap="round" stroke-linejoin="round"/>
<path d="M9.61514 94.6285C12.1297 98.8432 12.7467 102.328 12.741 103.544C12.5959 110.4 15.3715 122.803 27.6348 117.56C31.2798 118.838 38.6019 119.119 38.7307 110.023C40.0879 107.856 41.7858 103.359 37.7204 102.706C34.8099 102.167 34.1008 106.068 32.5721 107.244C30.7324 108.66 28.9859 110.324 24.306 108.066C22.3529 106.931 34.0682 104.118 33.9638 100.123C33.8593 96.1288 32.2547 92.661 26.8199 98.6006C22.472 103.352 19.7767 102.417 18.9726 101.356C18.8067 99.8971 18.2028 96.4246 17.1139 94.2062C13.8704 87.5427 6.47197 89.3602 9.61514 94.6285Z" fill="white"/>
<path d="M17.1139 94.2062C13.8704 87.5427 6.47197 89.3602 9.61514 94.6285C12.1297 98.8432 12.7467 102.328 12.741 103.544C12.5959 110.4 15.3715 122.803 27.6348 117.56C31.2798 118.838 38.6019 119.119 38.7307 110.023M17.1139 94.2062C18.2028 96.4246 18.8067 99.8971 18.9726 101.356C19.7767 102.417 22.472 103.352 26.8199 98.6006C32.2547 92.661 33.8593 96.1288 33.9638 100.123C34.0682 104.118 22.3529 106.931 24.306 108.066C28.9859 110.324 30.7324 108.66 32.5721 107.244C34.1008 106.068 34.8099 102.167 37.7204 102.706C41.7858 103.359 40.0879 107.856 38.7307 110.023M17.1139 94.2062C30.0054 76.2185 58.4389 42.4484 70 50.9999M38.7307 110.023C36.7923 112.134 31.632 115.949 26.4982 114.318" stroke="#585AF1" stroke-width="2" stroke-linecap="round" stroke-linejoin="round"/>
<path d="M20.6007 111.816L8.86099 79.9251C8.39507 78.6594 9.28991 77.3048 10.6369 77.2366L25.229 76.4981C26.1264 76.4527 26.9438 77.0112 27.2276 77.8637L38.4132 111.463C38.8628 112.813 37.7976 114.188 36.3776 114.09L22.3395 113.12C21.5536 113.066 20.8728 112.555 20.6007 111.816Z" fill="white" stroke="#585AF1" stroke-width="2"/>
<path d="M9.7478 94.6282C12.2623 98.8429 12.8794 102.328 12.8736 103.544C12.7285 110.4 15.5041 122.802 27.7675 117.56C31.4125 118.838 38.7346 119.119 38.8634 110.023C40.2206 107.856 41.9185 103.358 37.8531 102.705C34.9425 102.167 34.2335 106.068 32.7047 107.244C30.865 108.659 29.1185 110.324 24.4387 108.066C22.4856 106.931 34.2009 104.118 34.0964 100.123C33.992 96.1285 32.3873 92.6607 26.9525 98.6003C22.6047 103.352 19.9094 102.417 19.1052 101.356C18.9394 99.8968 18.3355 96.4243 17.2466 94.2059C14.0031 87.5424 6.60463 89.3599 9.7478 94.6282Z" fill="white"/>
<path d="M38.8634 110.023C38.7346 119.119 31.4125 118.838 27.7675 117.56C15.5041 122.802 12.7285 110.4 12.8736 103.544C12.8794 102.328 12.2623 98.8429 9.7478 94.6282C6.60463 89.3599 14.0031 87.5424 17.2466 94.2059C18.3355 96.4243 18.9394 99.8968 19.1052 101.356C19.9094 102.417 22.6047 103.352 26.9525 98.6003C32.3873 92.6607 33.992 96.1285 34.0964 100.123C34.2009 104.118 22.4856 106.931 24.4387 108.066C29.1185 110.324 30.865 108.659 32.7047 107.244C34.2335 106.068 34.9425 102.167 37.8531 102.705C41.9185 103.358 40.2206 107.856 38.8634 110.023ZM38.8634 110.023C36.925 112.134 31.7646 115.949 26.6308 114.318" stroke="#585AF1" stroke-width="2" stroke-linecap="round" stroke-linejoin="round"/>
<path d="M43.6694 37.2781C34.1266 37.2781 26.3906 29.6369 26.3906 20.211C26.3906 10.7851 34.1266 3.14392 43.6694 3.14392C53.2122 3.14392 60.9481 10.7851 60.9481 20.211C60.9481 24.4728 59.3667 28.3697 56.7519 31.3605L58.2329 38.9848L50.0948 36.059C48.1086 36.8455 45.9401 37.2781 43.6694 37.2781Z" fill="white" stroke="#585AF1" stroke-width="2" stroke-linejoin="round"/>
<ellipse cx="44.3047" cy="12.7786" rx="3.24044" ry="3.24044" transform="rotate(3 44.3047 12.7786)" fill="#F4B04A"/>
<ellipse cx="43.5254" cy="27.6643" rx="3.24044" ry="3.24044" transform="rotate(3 43.5254 27.6643)" fill="#F4B04A"/>
<path fill-rule="evenodd" clip-rule="evenodd" d="M54.1507 23.0294L33.4403 21.944L33.6777 17.4136L54.3881 18.499L54.1507 23.0294Z" fill="#585AF1"/>
<path d="M114.669 61.9368L122.177 72.3913L94.1951 74.7746L95.5843 84.6465L75.3992 90.8598" stroke="white" stroke-width="3" stroke-linejoin="round"/>
</svg>
