<svg width="284" height="198" viewBox="0 0 284 198" fill="none" xmlns="http://www.w3.org/2000/svg">
<path d="M282 198.563V160.963C282 93.1361 235.333 83.3082 228.036 81.2078C223.139 79.7982 208.314 60.0662 198.453 52.7236C207.333 27.1696 199.645 20.5681 183.174 22.3405C186.035 7.14893 169.296 -6.04709 155.542 7.90851L125.959 41.3299C87.9895 47.1027 71.1284 68.6304 67.4441 90.6581C42.8461 90.2784 -4.5296 130.504 2.75229 198.563" stroke="#585AF1" stroke-width="3"/>
<ellipse rx="2.81925" ry="9.20233" transform="matrix(-1 0 0.00425365 -0.999991 151.95 81.4916)" fill="#585AF1"/>
<ellipse rx="2.81922" ry="9.20233" transform="matrix(-1 0 0.0042536 -0.999991 132.929 81.4916)" fill="#585AF1"/>
<path opacity="0.7" fill-rule="evenodd" clip-rule="evenodd" d="M119.104 106.98C127.432 106.98 134.593 101.85 137.679 94.5344C138.235 93.2174 139.469 92.2598 140.897 92.2598C142.325 92.2598 143.554 93.2172 144.103 94.534C147.151 101.85 154.286 106.98 162.614 106.98C172.398 106.98 180.571 99.8996 182.419 90.5117C182.845 88.3432 181.019 86.5354 178.81 86.5354L158.239 86.5354L139.3 86.5354L131.247 86.5354L103.014 86.5354C100.805 86.5354 98.9686 88.3436 99.3842 90.5122C101.184 99.8999 109.32 106.98 119.104 106.98Z" fill="#EC4C56"/>
<path d="M149.932 108.355C147.225 105.941 140.476 103.642 135.145 113.761" stroke="#585AF1" stroke-width="3" stroke-linecap="round"/>
<path fill-rule="evenodd" clip-rule="evenodd" d="M103.355 159.187C103.328 158.961 103.353 158.726 103.436 158.498C104.581 155.351 105.702 149.247 105.802 142.479C105.901 135.706 104.972 128.511 102.207 123.084C100.452 119.639 100.68 116.464 102.566 114.142C104.367 111.925 107.42 110.815 110.667 110.769C117.242 110.675 125.365 114.88 128.955 124.948C129.106 125.371 129.055 125.818 128.852 126.182C130.883 125.538 133.041 125.11 135.332 124.933C143.369 124.314 152.85 126.806 163.949 133.608C169.383 136.938 172.698 140.487 173.81 143.826C174.379 145.533 174.382 147.233 173.718 148.762C173.058 150.283 171.814 151.459 170.211 152.273C167.056 153.875 162.284 154.209 156.446 153.05C154.331 152.63 152.053 152.009 149.628 151.166C151.192 152.957 152.543 154.936 153.532 157.086C155.238 160.798 155.861 165.026 154.606 169.61C153.378 174.094 150.392 178.783 145.139 183.6C144.112 186.152 142.105 189.546 139.173 191.773C137.618 192.954 135.764 193.835 133.642 194.037C131.51 194.241 129.229 193.747 126.848 192.376C126.759 192.325 126.675 192.264 126.598 192.194C126.125 191.768 125.637 191.184 125.31 190.483C124.98 189.775 124.781 188.865 125.051 187.888C125.598 185.904 127.714 184.653 130.987 183.953C131.797 183.78 132.583 184.299 132.743 185.112C132.902 185.925 132.374 186.724 131.564 186.898C128.421 187.569 127.977 188.484 127.931 188.651C127.904 188.749 127.9 188.911 128.02 189.169C128.127 189.397 128.302 189.634 128.509 189.84C130.374 190.883 132.003 191.174 133.406 191.041C134.856 190.902 136.188 190.298 137.396 189.381C139.805 187.551 141.56 184.591 142.434 182.346C142.956 179.357 143.041 174.894 141.693 171.065C140.356 167.268 137.661 164.161 132.469 163.55C131.65 163.454 131.075 162.707 131.183 161.881C131.291 161.055 132.043 160.464 132.861 160.56C139.401 161.33 142.887 165.402 144.513 170.02C145.53 172.909 145.837 176.033 145.768 178.782C149.049 175.223 150.891 171.895 151.724 168.853C152.768 165.04 152.265 161.539 150.815 158.386C148.673 153.727 144.466 149.842 140.198 147.083C138.62 146.274 137.001 145.382 135.343 144.404C134.66 144.001 134.42 143.125 134.797 142.412C135.174 141.699 136.035 141.4 136.755 141.733C138.319 142.456 140.009 143.369 141.709 144.459C147.555 147.448 152.732 149.235 157.069 150.096C162.613 151.197 166.607 150.753 168.898 149.59C170.018 149.021 170.667 148.317 170.982 147.592C171.293 146.876 171.353 145.963 170.974 144.823C170.189 142.467 167.582 139.382 162.366 136.185C151.607 129.593 142.741 127.377 135.514 127.935C128.316 128.489 122.564 131.807 118.02 136.649C108.847 146.421 104.704 162.312 104.134 173.381C104.109 173.874 103.845 174.327 103.429 174.593L60.7643 201.923C60.0628 202.373 59.141 202.17 58.7055 201.471C58.27 200.771 58.4857 199.84 59.1872 199.391L101.194 172.483C101.453 168.485 102.148 163.9 103.355 159.187ZM104.88 121.723C103.538 119.088 103.917 117.238 104.895 116.034C105.959 114.724 108.026 113.807 110.71 113.769C115.995 113.693 122.969 117.092 126.129 125.955C126.281 126.379 126.603 126.693 126.991 126.846C122.679 128.56 118.984 131.273 115.862 134.599C113.04 137.605 110.677 141.119 108.728 144.872C108.765 144.098 108.79 143.314 108.802 142.523C108.904 135.537 107.965 127.777 104.88 121.723Z" fill="#585AF1"/>
</svg>
