<svg width="16" height="17" viewBox="0 0 16 17" fill="none" xmlns="http://www.w3.org/2000/svg">
<path fill-rule="evenodd" clip-rule="evenodd" d="M11.3333 4.3335C11.6095 4.3335 11.8333 4.10964 11.8333 3.8335C11.8333 3.55735 11.6095 3.3335 11.3333 3.3335C11.0572 3.3335 10.8333 3.55735 10.8333 3.8335C10.8333 4.10964 11.0572 4.3335 11.3333 4.3335ZM11.3333 5.8335C12.4379 5.8335 13.3333 4.93807 13.3333 3.8335C13.3333 2.72893 12.4379 1.8335 11.3333 1.8335C10.2288 1.8335 9.33333 2.72893 9.33333 3.8335C9.33333 3.98668 9.35055 4.13584 9.38317 4.27915L5.21292 6.9098C4.87647 6.65281 4.45606 6.50016 4 6.50016C2.89543 6.50016 2 7.39559 2 8.50016C2 9.60473 2.89543 10.5002 4 10.5002C4.36407 10.5002 4.70542 10.4029 4.99948 10.2329L9.34264 12.9726C9.33648 13.0365 9.33333 13.1013 9.33333 13.1668C9.33333 14.2714 10.2288 15.1668 11.3333 15.1668C12.4379 15.1668 13.3333 14.2714 13.3333 13.1668C13.3333 12.0623 12.4379 11.1668 11.3333 11.1668C10.8409 11.1668 10.39 11.3448 10.0415 11.64L5.92533 9.04344C5.97398 8.87069 6 8.68846 6 8.50016C6 8.39844 5.99241 8.29849 5.97775 8.20085L10.2429 5.51035C10.5565 5.71473 10.9311 5.8335 11.3333 5.8335ZM11.3333 13.6668C11.6095 13.6668 11.8333 13.443 11.8333 13.1668C11.8333 12.8907 11.6095 12.6668 11.3333 12.6668C11.0572 12.6668 10.8333 12.8907 10.8333 13.1668C10.8333 13.443 11.0572 13.6668 11.3333 13.6668ZM4.5 8.50016C4.5 8.7763 4.27614 9.00016 4 9.00016C3.72386 9.00016 3.5 8.7763 3.5 8.50016C3.5 8.22402 3.72386 8.00016 4 8.00016C4.27614 8.00016 4.5 8.22402 4.5 8.50016Z" fill="#585AF1"/>
</svg>
