<svg width="24" height="24" viewBox="0 0 24 24" fill="none" xmlns="http://www.w3.org/2000/svg">
<path fill-rule="evenodd" clip-rule="evenodd" d="M18.216 2.25929C17.5325 1.57587 16.4245 1.57587 15.7411 2.25929L5.57668 12.4237L3.89553 14.1048C3.60161 14.3988 3.42191 14.7877 3.3886 15.202L3.10772 18.6954C3.02131 19.77 3.91774 20.6664 4.99234 20.58L8.4857 20.2991C8.90002 20.2658 9.28897 20.0861 9.58288 19.7922L11.264 18.111L21.4284 7.94664C22.1118 7.26322 22.1118 6.15518 21.4284 5.47177L18.216 2.25929ZM16.8017 3.31995C16.8994 3.22232 17.0577 3.22232 17.1553 3.31995L20.3678 6.53243C20.4654 6.63006 20.4654 6.78835 20.3678 6.88598L18.0834 9.17036L14.5589 5.56276L16.8017 3.31995ZM13.4982 6.62348L6.63734 13.4843L4.95619 15.1655C4.9142 15.2075 4.88853 15.263 4.88377 15.3222L4.60289 18.8156C4.59055 18.9691 4.71861 19.0972 4.87212 19.0848L8.36548 18.8039C8.42467 18.7992 8.48023 18.7735 8.52222 18.7315L10.2034 17.0504L17.0227 10.2311L13.4982 6.62348Z" fill="#565960"/>
</svg>
