<svg xmlns="http://www.w3.org/2000/svg" width="387" height="352" viewBox="0 0 387 352" fill="none">
<style>.shadow_411 {
	animation: 1s linear 0s infinite normal forwards running shadow_411;
}
@keyframes shadow_411 {
	0% {
		width: 249.33px;
		height: 49.64px;
		opacity: 1;
	}
	50% {
		width: 200px;
		height: 30px;
		opacity: 0.3;
	}
	100% {
		width: 249.33px;
		height: 49.64px;
		opacity: 1;
	}
}.body_617 {
	animation: 1s linear 0s infinite normal forwards running body_617;
	transform-box: fill-box;
	transform-origin: 50% 50%;
	transform: translateX(26.34px) translateY(13.81px) rotate(-1.77deg);
}
@keyframes body_617 {
	0% {
		transform: translateX(26.34px) translateY(0px) rotate(0deg);
	}
	50% {
		transform: translateX(26.34px) translateY(-87.14px) rotate(-5deg);
	}
	100% {
		transform: translateX(26.34px) translateY(12.86px) rotate(0deg);
	}
}.cloud_82 {
	animation: 1s linear 0s infinite normal forwards running cloud_82;
	transform-box: fill-box;
	transform-origin: 50% 50%;
	transform: translateX(-35.58px) translateY(-2.27px) rotate(-5deg);
}
@keyframes cloud_82 {
	0% {
		transform: translateX(0px) translateY(-2.27px) rotate(-5deg);
		opacity: 0;
	}
	50% {
		transform: translateX(-31px) translateY(-2.27px) rotate(-5deg);
		opacity: 1;
	}
	100% {
		transform: translateX(-36px) translateY(-2.27px) rotate(-5deg);
		opacity: 0;
	}
}
</style><g clip-path="url(#clip_0_113)"><g transform="translate(44 88)"><g transform="translate(28.5 145.79)" class="shadow_411">
<path d="M178.899 38.5942C178.554 40.6116 138.227 33.8687 88.8258 23.5335C39.425 13.1983 -0.342728 3.18446 0.0022273 1.16704C0.347182 -0.850387 40.6742 5.89252 90.075 16.2277C139.476 26.563 179.244 36.5768 178.899 38.5942Z" fill="#E0E0E0" transform="translate(0 9.81)"/>
<path d="M179.085 37.9028C178.742 39.9204 138.421 33.1509 89.028 22.7826C39.6345 12.4142 -0.128036 2.37341 0.215806 0.355744C0.559648 -1.66193 40.8797 5.10762 90.2732 15.4759C139.667 25.8443 179.429 35.8851 179.085 37.9028Z" fill="#E0E0E0" transform="translate(66.21 0)"/></g><g transform="translate(23.72 18.08) rotate(-1.77)" class="body_617">
<path d="M5.61504 48.3457L49.209 69.8623C53.8318 72.144 59.0718 67.7107 57.4166 62.9183C57.3239 62.6498 57.2524 62.3745 57.2026 62.0946L50.9867 27.1062C51.2458 24.4037 51.5557 22.3718 51.9018 20.7283C52.9101 15.9397 51.2297 11.0538 46.7732 8.93648L30.2594 1.09077C25.2726 -1.27844 19.1701 0.777894 16.6291 5.68371L14.5442 9.70894L1.32108 35.2382C-1.19311 40.0923 0.719043 45.9292 5.61504 48.3457Z" fill="#F07078" transform="translate(20 55.43) rotate(-6.22)"/><g transform="translate(12.16 2.4) rotate(3.38)">
<path d="M71.6848 22.2002C74.3555 22.8669 79.3412 24.2002 78.8139 43.1998C79.1243 57.6229 80.452 87.5691 83.279 91.969L49.8098 96.9689L43.8036 95.9689C38.86 105.135 25.1303 116.569 11.8344 100.969C7.27595 91.469 0.964528 67.6994 0.384595 54.6996C-0.0793522 44.2998 21.374 25.8668 32.1632 18.7003C27.6479 16.2003 25.6202 11.7004 28.1048 9.20047C30.0926 7.20051 35.2725 9.36713 37.611 10.2004C35.5618 2.2006 38.5557 1.20062 41.0526 0.70063C43.5495 0.20064 56.0956 7.7005 60.1049 9.20047C66.5098 10.0005 70.4935 18.2003 71.6848 22.2002Z" fill="white" transform="translate(61 32) rotate(-6.22)"/>
<path d="M57.7873 4.58969C58.8699 7.30405 59.2351 10.6975 59.2533 12.9879C60.1906 36.8875 61.0759 51.918 61.9572 61.0058C62.3986 65.5574 62.8356 68.5802 63.2681 70.4693C63.4859 71.4205 63.6905 72.0286 63.8666 72.3865C63.9151 72.4852 63.9542 72.5507 63.9822 72.5923L65.3048 75.9173L20.5351 94.9102L4.5163 91.1079C3.34641 90.989 2.16665 90.7103 0.980789 90.2601L1.55599 88.3526L4.83274 89.1304C8.39424 89.4515 11.8597 88.0223 15.1681 85.3081C18.5004 82.5743 21.5852 78.132 24.334 73.565C29.831 64.4319 33.831 53.6128 35.5399 45.8658L35.793 44.7185L44.5948 48.2737L46.0245 45.489L46.1791 43.7837L50.9518 42.1345L46.778 38.4369L49.8498 36.4094L49.8235 32.8121L54.1334 18.5444L41.7193 17.4435L37.2297 28.4068L37.2274 28.4123L35.3736 27.6502L35.3759 27.6447L40.619 14.619L50.8913 0.242119L51.2624 0.159466C52.8978 -0.204778 54.2968 0.186888 55.4137 1.0849C56.4867 1.9476 57.2453 3.23074 57.7873 4.58969Z" fill="#51B598" transform="translate(78.19 36.7) rotate(-6.22)"/><g transform="translate(129.61 77.58) rotate(-1.08)">
<path d="M1.30157 5.27044C1.8084 3.57746 4.04693 4.56503 5.10284 5.27044C3.35707 2.93913 4.37543 2.63384 5.10284 2.77261C4.37074 1.88449 5.1967 1.26929 5.70118 1.0727C6.94012 -0.87006 8.02418 0.263214 8.41135 1.0727C10.0726 1.26697 9.26781 2.56446 8.65773 3.18891C10.4317 1.77348 10.3589 2.46038 10.1008 2.98076C10.9174 1.87061 11.8724 2.37943 12.2478 2.77261C12.7171 2.93451 13.6909 3.30687 13.8317 3.50114C13.9725 3.69542 13.773 3.8365 13.6557 3.88276C13.7613 4.31063 13.9091 5.38145 13.6557 6.24182C13.4023 7.10218 11.626 7.38666 10.7695 7.42135C11.4852 7.60637 13.0081 8.18458 13.3741 9.01719C13.7402 9.8498 12.8696 10.428 12.3886 10.613C13.1489 10.4743 13.1981 10.6708 13.1277 10.7865C11.5791 13.6174 9.54939 13.1687 8.72812 12.5905L9.0449 13.1455C7.83412 13.1455 7.36717 12.3592 7.28505 11.966C7.36952 13.4092 6.89788 13.1455 6.6515 12.8333C5.91941 15.0259 4.68047 13.955 4.15252 13.1455C2.29412 14.2279 2.0407 12.6945 2.14629 11.7926C1.81859 10.759 2.47258 10.0066 3.08906 9.59705C1.03211 10.5289 0.357107 8.61563 0.280855 7.45604C-0.535715 6.59568 0.621092 5.64049 1.30157 5.27044Z" fill="#F07078" transform="translate(0 0) rotate(-1.08)"/>
<path d="M3.67934 2.48167C3.67934 3.39992 2.90254 4.1443 1.94432 4.1443C0.986101 4.1443 0.20931 3.39992 0.20931 2.48167C0.20931 1.56343 0.986101 0.819044 1.94432 0.819044C2.90254 0.819044 3.67934 1.56343 3.67934 2.48167Z" fill="#FAD769" transform="translate(5.28 5.72) rotate(-1.08)"/></g>
<path fill-rule="evenodd" clip-rule="evenodd" d="M18.1103 0.623472C17.6997 0.246723 17.0546 0.256432 16.6693 0.645158L4.03477 13.3934C3.8052 13.6251 3.7107 13.9523 3.78207 14.2686C3.85343 14.5849 4.08152 14.8496 4.39202 14.9766L13.209 18.5828L0.804842 32.8872C0.447175 33.2997 0.509714 33.9183 0.944528 34.2689C1.37934 34.6195 2.02178 34.5693 2.37944 34.1569L15.6617 18.8398C15.8674 18.6026 15.942 18.2837 15.8629 17.9807C15.7837 17.6777 15.5602 17.4265 15.2605 17.3039L6.53502 13.7352L18.1561 2.00949C18.5414 1.62076 18.5209 1.00022 18.1103 0.623472Z" fill="white" transform="translate(118.24 36.38) rotate(-6.22)"/><g transform="translate(115.14 100.3) rotate(-1.08)">
<path d="M1.30157 5.27044C1.8084 3.57746 4.04693 4.56503 5.10284 5.27044C3.35707 2.93913 4.37543 2.63384 5.10284 2.77261C4.37074 1.88449 5.1967 1.26929 5.70118 1.0727C6.94012 -0.87006 8.02418 0.263214 8.41135 1.0727C10.0726 1.26697 9.26781 2.56446 8.65773 3.18891C10.4317 1.77348 10.3589 2.46038 10.1008 2.98076C10.9174 1.87061 11.8724 2.37943 12.2478 2.77261C12.7171 2.93451 13.6909 3.30687 13.8317 3.50114C13.9725 3.69542 13.773 3.8365 13.6557 3.88276C13.7613 4.31063 13.9091 5.38145 13.6557 6.24182C13.4023 7.10218 11.626 7.38666 10.7695 7.42135C11.4852 7.60637 13.0081 8.18458 13.3741 9.01719C13.7402 9.8498 12.8696 10.428 12.3886 10.613C13.1489 10.4743 13.1981 10.6708 13.1277 10.7865C11.5791 13.6174 9.54939 13.1687 8.72812 12.5905L9.0449 13.1455C7.83412 13.1455 7.36717 12.3592 7.28505 11.966C7.36952 13.4092 6.89788 13.1455 6.6515 12.8333C5.91941 15.0259 4.68047 13.955 4.15252 13.1455C2.29412 14.2279 2.0407 12.6945 2.14629 11.7926C1.81859 10.759 2.47258 10.0066 3.08906 9.59705C1.03211 10.5289 0.357107 8.61563 0.280855 7.45604C-0.535715 6.59568 0.621092 5.64049 1.30157 5.27044Z" fill="#F07078" transform="translate(0 0) rotate(-1.08)"/>
<path d="M3.67611 2.48155C3.67611 3.39979 2.89931 4.14418 1.94109 4.14418C0.982872 4.14418 0.20608 3.39979 0.20608 2.48155C0.20608 1.5633 0.982872 0.818915 1.94109 0.818915C2.89931 0.818915 3.67611 1.5633 3.67611 2.48155Z" fill="#FAD769" transform="translate(5.27 5.72) rotate(-1.08)"/></g>
<path d="M53.6894 69.5209C53.9405 69.0303 53.7386 68.4405 53.2385 68.2036L29.019 56.7307C28.5189 56.4938 27.9099 56.6994 27.6588 57.19C27.4078 57.6806 27.6096 58.2703 28.1098 58.5072L52.3292 69.9801C52.8294 70.2171 53.4384 70.0114 53.6894 69.5209Z" fill="#585AF1" transform="translate(-1.55 23.62) rotate(-6.22)"/>
<path d="M47.8937 80.8454C48.1447 80.3548 47.9429 79.7651 47.4427 79.5281L23.2233 68.0552C22.7231 67.8183 22.1141 68.024 21.8631 68.5145C21.612 69.0051 21.8139 69.5948 22.314 69.8318L46.5335 81.3047C47.0336 81.5416 47.6426 81.3359 47.8937 80.8454Z" fill="#585AF1" transform="translate(-1.55 23.62) rotate(-6.22)"/>
<path fill-rule="evenodd" clip-rule="evenodd" d="M102.853 4.02482C100.683 2.52449 98.4396 2.31453 97.0678 3.16268C95.7684 3.9661 94.7171 6.0789 95.7496 10.4843L96.1567 12.2217L94.4611 11.6427C93.9549 11.4699 93.4785 11.2865 93.0197 11.1099C90.9725 10.3217 89.27 9.66629 86.785 10.6651C86.6519 10.7186 86.3375 10.9605 86.0545 11.5068C85.7875 12.0223 85.6015 12.7151 85.6332 13.5088C85.6945 15.0446 86.5875 17.1351 89.7352 19.0661L90.9558 19.8149L70.3288 36.2807C66.2447 39.7271 63.374 42.8374 61.4739 46.0498C62.0344 48.0199 62.0877 50.1734 61.6578 52.2765C61.3361 53.8502 61.0474 55.8061 60.8095 58.4168L61.5195 75.6524L66.2194 93.1982C66.2619 93.4291 66.3223 93.6563 66.4002 93.8779C68.1563 101.117 63.2528 104.794 57.8054 102.113L14.0791 80.597C9.81587 78.4992 7.58254 74.058 8.17373 69.6543C6.77437 70.7161 4.80205 70.9746 3.08622 70.1618C0.712826 69.0375 -0.27107 66.2892 0.888624 64.0234C2.04832 61.7576 4.91245 60.8322 7.28585 61.9565C8.63109 62.5937 9.52994 63.7527 9.84507 65.0498L19.4086 46.3644C18.1454 46.9201 16.6373 46.9434 15.2878 46.3042C12.9144 45.1799 11.9305 42.4317 13.0902 40.1658C14.2499 37.9 17.1141 36.9746 19.4874 38.0989C20.8369 38.7382 21.7372 39.9024 22.0496 41.2044L23.7293 37.9227C22.6452 38.2019 21.4522 38.1177 20.3626 37.6016C17.9892 36.4773 17.0053 33.7291 18.165 31.4632C19.3247 29.1974 22.1888 28.272 24.5622 29.3963C26.1178 30.1332 27.0765 31.5676 27.2259 33.1067C30.5292 30.3862 35.2722 29.6386 39.3556 31.573L55.9177 39.4185C58.0124 40.4108 59.5446 41.9397 60.5397 43.7577C62.5542 40.7512 65.3512 37.8466 69.0325 34.741L69.0427 34.7324L87.5319 19.9731C84.8003 17.9415 83.714 15.6319 83.6313 13.5612C83.5856 12.415 83.8516 11.3831 84.2717 10.5721C84.6759 9.79181 85.2839 9.10555 86.0141 8.81208C89.0668 7.58515 91.4612 8.36119 93.4678 9.13875C92.9579 5.37145 93.9243 2.74256 95.995 1.46224C98.2877 0.0447038 101.406 0.633116 103.925 2.35128L117.534 9.37134C121.886 9.66678 124.521 12.4747 126.266 15.364C127.152 16.8311 127.838 18.3654 128.413 19.6598C128.905 20.7685 129.29 21.6331 129.647 22.2236C131.313 22.4867 132.668 23.2877 133.738 24.5408C134.884 25.8836 135.672 27.7081 136.238 29.851C137.366 34.1249 137.699 40.0328 137.902 46.9008C137.951 48.5802 137.993 50.3217 138.036 52.1177C138.349 65.1052 138.73 80.9414 142.579 96.7516C142.709 97.2889 142.38 97.8244 141.842 97.9475C141.305 98.0706 140.763 97.7347 140.632 97.1973C136.729 81.1612 136.344 65.098 136.033 52.1241L136.033 52.1216L136.033 52.1163C135.99 50.3268 135.948 48.5962 135.899 46.9325C135.695 40.025 135.361 34.3488 134.301 30.3345C133.772 28.3332 133.086 26.8375 132.219 25.8222C131.38 24.839 130.347 24.2736 128.996 24.1503L128.542 24.109L128.27 23.742C127.707 22.9812 127.187 21.81 126.66 20.6215L126.583 20.4471C126.004 19.1435 125.365 17.7197 124.553 16.3763C122.934 13.6942 120.746 11.5184 117.241 11.3526L117.02 11.3422L102.907 4.06219L102.853 4.02482ZM55.0085 41.195C57.0799 42.1763 58.511 43.843 59.2732 45.8509C58.0081 48.1898 57.1838 50.6283 56.7552 53.3002C56.6253 54.1105 56.5321 54.9406 56.4738 55.7939L24.5982 40.6216L26.2045 37.4831C28.4643 33.0679 33.9452 31.2172 38.4464 33.3495L55.0085 41.195ZM58.7337 53.6412C58.575 54.6305 58.4748 55.6553 58.4297 56.7249L58.9203 56.9584C59.1367 54.9248 59.3893 53.2957 59.6704 51.9202C59.8552 51.0163 59.9366 50.1166 59.9162 49.2408C59.3676 50.6523 58.9796 52.1079 58.7337 53.6412ZM23.6889 42.3981L56.3995 57.9679C56.3872 63.9322 57.8511 71.0625 60.2019 80.4167L60.2029 80.4207L62.0275 87.5576L63.8521 94.6946L65.3835 94.3251C65.413 94.424 65.4449 94.5223 65.4792 94.6197C66.8693 98.5743 62.5679 102.232 58.7416 100.35L15.0153 78.8335C10.5956 76.6587 8.84234 71.4056 11.0782 67.037L23.6889 42.3981Z" fill="#585AF1" transform="translate(0.2 20.62) rotate(-6.22)"/>
<path fill-rule="evenodd" clip-rule="evenodd" d="M112.269 55.7397C112.27 55.7507 112.27 55.7616 112.27 55.7725C112.253 56.0401 112.351 56.3121 112.563 56.5158C112.959 56.8963 113.606 56.8942 114.008 56.5112C115.345 55.2379 117.889 53.288 120.121 52.2113C121.269 51.658 122.156 51.4244 122.703 51.471C122.939 51.4911 123.053 51.558 123.121 51.6263C123.19 51.6944 123.293 51.8435 123.353 52.1632C123.117 53.255 122.108 54.9298 117.635 57.0641C117.41 57.165 117.198 57.2641 117 57.3599C116.499 57.6027 116.291 58.1837 116.533 58.6635C116.776 59.1432 117.378 59.3434 117.886 59.1128C118.099 59.0159 118.306 58.9193 118.508 58.8231C119.904 58.1991 121.8 57.5139 123.552 57.2062C124.564 57.0284 125.457 56.9897 126.151 57.1171C126.827 57.2411 127.231 57.5022 127.457 57.8747C127.572 58.0656 127.572 58.1728 127.565 58.2242C127.556 58.2841 127.52 58.3913 127.374 58.5494C127.052 58.8958 126.396 59.2783 125.418 59.6426C123.505 60.3555 120.895 60.8083 119.059 61.0003C118.507 61.0581 118.099 61.5266 118.14 62.0555C118.182 62.5845 118.658 62.9806 119.212 62.9476C120.377 62.8784 122.153 62.8641 123.686 63.0389C124.457 63.1268 125.114 63.2571 125.588 63.4276C126 63.5761 126.121 63.6992 126.145 63.7238C126.147 63.7259 126.149 63.7279 126.149 63.7279L126.149 63.727C126.245 63.9736 126.246 64.2339 126.149 64.466C126.055 64.6905 125.837 64.9657 125.349 65.1909C124.551 65.5586 123.072 65.7644 120.62 65.3044C119.646 64.9958 118.738 64.796 118.108 64.6966C117.578 64.6128 117.066 64.9374 116.938 65.4388C116.81 65.9402 117.11 66.4464 117.624 66.5962C118.498 66.8514 119.314 67.0503 120.072 67.1974C120.308 67.2741 120.548 67.3581 120.788 67.4494C121.887 67.8678 122.862 68.3966 123.464 69.0019L123.465 69.0145L123.466 69.0273C123.466 69.0335 123.467 69.0391 123.467 69.0442C123.467 69.0525 123.466 69.0595 123.466 69.065L123.465 69.0724C123.428 69.1002 123.319 69.1586 123.054 69.1938C122.592 69.2554 121.806 69.2177 120.556 68.9164C119.321 68.6183 117.693 68.0774 115.577 67.19C115.062 66.974 114.456 67.2001 114.225 67.6949C113.994 68.1897 114.224 68.7658 114.739 68.9818C116.919 69.896 118.657 70.4796 120.037 70.8123C121.403 71.1418 122.481 71.2413 123.315 71.13C124.165 71.0167 124.89 70.6592 125.268 69.983C125.625 69.3444 125.532 68.666 125.352 68.1816C125.312 68.0736 125.252 67.9733 125.175 67.8856C125.028 67.7168 124.867 67.5563 124.695 67.4037C125.273 67.3067 125.78 67.1532 126.22 66.9503C127.115 66.5377 127.737 65.9155 128.047 65.1744C128.352 64.4432 128.321 63.6725 128.059 63.0104C127.752 62.2342 126.964 61.8266 126.326 61.597C126.233 61.5635 126.137 61.5316 126.039 61.5015L126.083 61.4854L126.143 61.4632C127.199 61.0696 128.238 60.548 128.897 59.8378C129.24 59.4676 129.515 59.0085 129.591 58.4633C129.669 57.9095 129.527 57.3727 129.228 56.88C129.02 56.537 128.764 56.2535 128.474 56.0214L132.94 42.9386C133.592 41.0308 132.187 39.0165 130.156 38.9467L119.719 38.5884C118.401 38.5431 117.219 39.359 116.804 40.6003L113.651 50.0346C113.564 49.6103 113.466 49.1892 113.356 48.7775C113.039 47.5813 112.611 46.4136 112.031 45.474C111.459 44.5459 110.658 43.7151 109.547 43.4353C108.993 43.2958 108.425 43.3125 107.904 43.5616C107.392 43.806 107.043 44.2172 106.809 44.6479C106.362 45.4711 106.212 46.586 106.184 47.6708C106.131 49.6797 106.489 52.1111 106.865 53.9121L86.4101 73.627C86.0097 74.013 85.9965 74.643 86.3807 75.0343C86.7649 75.4256 87.401 75.4299 87.8015 75.0439L108.661 54.9391C108.915 54.6945 109.023 54.338 108.946 53.9993C108.545 52.2368 108.141 49.6801 108.193 47.6949C108.22 46.6762 108.365 45.9598 108.576 45.5725C108.671 45.3979 108.742 45.3588 108.757 45.3519C108.764 45.3484 108.83 45.3153 109.026 45.3646C109.423 45.4646 109.866 45.8055 110.313 46.5289C110.752 47.241 111.119 48.205 111.412 49.3086C111.997 51.511 112.234 54.065 112.269 55.7397ZM119.677 40.5837C119.238 40.5686 118.844 40.8405 118.706 41.2543L114.657 53.3668C116.025 52.3122 117.668 51.2147 119.216 50.4677C120.424 49.8852 121.753 49.4256 122.906 49.5237C123.519 49.5759 124.127 49.7908 124.602 50.2631C125.068 50.7266 125.314 51.3452 125.404 52.0384C125.415 52.1295 125.414 52.2218 125.399 52.3127C125.244 53.2411 124.817 54.192 123.93 55.1742C124.832 55.0629 125.735 55.0461 126.557 55.1969L126.606 55.2061L126.626 55.21L131.043 42.2726C131.26 41.6367 130.792 40.9652 130.115 40.942L119.677 40.5837ZM123.48 69.0576L123.481 69.0569L123.479 69.0601C123.478 69.0616 123.476 69.0636 123.473 69.0661C123.476 69.0616 123.48 69.0576 123.48 69.0576Z" fill="#585AF1" transform="translate(-0.4 23.62) rotate(-6.22)"/>
<path d="M114.221 20.8494C113.801 20.8809 113.367 19.8568 113.251 18.5619C113.136 17.267 113.383 16.1917 113.804 16.1602C114.224 16.1286 114.659 17.1528 114.774 18.4477C114.889 19.7426 114.642 20.8179 114.221 20.8494Z" fill="#585AF1" transform="translate(-1.55 23.62) rotate(-6.22)"/>
<path d="M108.035 18.953C108.15 20.2479 108.585 21.2721 109.005 21.2406C109.426 21.209 109.673 20.1338 109.558 18.8389C109.442 17.544 109.008 16.5198 108.588 16.5513C108.167 16.5829 107.92 17.6582 108.035 18.953Z" fill="#585AF1" transform="translate(-1.55 23.62) rotate(-6.22)"/>
<path d="M112.705 26.3069C112.154 26.3482 111.747 26.8276 111.796 27.3776C111.885 28.3788 111.105 29.324 109.958 29.41C108.811 29.496 107.874 28.6796 107.785 27.6784C107.736 27.1284 107.249 26.716 106.699 26.7573C106.148 26.7986 105.741 27.278 105.79 27.828C105.984 30.0055 107.965 31.5645 110.136 31.4017C112.306 31.239 113.985 29.4056 113.791 27.228C113.742 26.678 113.256 26.2656 112.705 26.3069Z" fill="#585AF1" transform="translate(-1.55 23.62) rotate(-6.22)"/>
<path d="M48.9481 20.4102L23.2492 0.816761C-8.62479 21.3164 1.97976 38.3161 5.13399 53.0718L28.2955 47.5415L49.6542 27.0427L48.9481 20.4102Z" fill="#51B598" transform="translate(60 42.37) rotate(-6.22)"/>
<path fill-rule="evenodd" clip-rule="evenodd" d="M0.864061 0.750219C1.00022 0.215837 1.5445 -0.104326 2.07975 0.0351139L20.2151 5.02014C20.5481 5.10689 20.8143 5.35824 20.92 5.68579C21.0258 6.01334 20.9563 6.37121 20.736 6.63353L14.7996 13.7028L34.1184 21.1007C34.6352 21.2986 34.8963 21.8771 34.7015 22.3927C34.5068 22.9082 33.93 23.1658 33.4131 22.9679L12.7769 15.0655C12.4738 14.9494 12.2448 14.6941 12.1624 14.3804C12.08 14.0666 12.1544 13.7334 12.3621 13.4861L18.183 6.55436L1.58668 1.97028C1.05143 1.83084 0.727904 1.2846 0.864061 0.750219Z" fill="white" transform="translate(74.94 46.5) rotate(-6.22)"/><g transform="translate(86.63 64.84) rotate(-1.08)">
<path d="M1.30157 5.27044C1.8084 3.57746 4.04693 4.56503 5.10284 5.27044C3.35707 2.93913 4.37543 2.63384 5.10284 2.77261C4.37074 1.88449 5.1967 1.26929 5.70118 1.0727C6.94012 -0.87006 8.02418 0.263214 8.41135 1.0727C10.0726 1.26697 9.26781 2.56446 8.65773 3.18891C10.4317 1.77348 10.3589 2.46038 10.1008 2.98076C10.9174 1.87061 11.8724 2.37943 12.2478 2.77261C12.7171 2.93451 13.6909 3.30687 13.8317 3.50114C13.9725 3.69542 13.773 3.8365 13.6557 3.88276C13.7613 4.31063 13.9091 5.38145 13.6557 6.24182C13.4023 7.10218 11.626 7.38666 10.7695 7.42135C11.4852 7.60637 13.0081 8.18458 13.3741 9.01719C13.7402 9.8498 12.8696 10.428 12.3886 10.613C13.1489 10.4743 13.1981 10.6708 13.1277 10.7865C11.5791 13.6174 9.54939 13.1687 8.72812 12.5905L9.0449 13.1455C7.83412 13.1455 7.36717 12.3592 7.28505 11.966C7.36952 13.4092 6.89788 13.1455 6.6515 12.8333C5.91941 15.0259 4.68047 13.955 4.15252 13.1455C2.29412 14.2279 2.0407 12.6945 2.14629 11.7926C1.81859 10.759 2.47258 10.0066 3.08906 9.59705C1.03211 10.5289 0.357107 8.61563 0.280855 7.45604C-0.535715 6.59568 0.621092 5.64049 1.30157 5.27044Z" fill="#F07078" transform="translate(0 0) rotate(-1.08)"/>
<path d="M3.67912 2.48108C3.67912 3.39932 2.90233 4.14371 1.94411 4.14371C0.98589 4.14371 0.209098 3.39932 0.209098 2.48108C0.209098 1.56283 0.98589 0.818447 1.94411 0.818447C2.90233 0.818447 3.67912 1.56283 3.67912 2.48108Z" fill="#FAD769" transform="translate(5.28 5.72) rotate(-1.08)"/></g>
<path d="M1.90444 5.68175C2.41189 3.98878 4.65006 4.97634 5.70571 5.68175C3.96079 3.35044 4.97926 3.04515 5.70662 3.18392C4.97484 2.2958 5.80102 1.6806 6.30558 1.48401C7.54522 -0.458748 8.62888 0.674527 9.01575 1.48401C10.677 1.67828 9.87166 2.97577 9.26136 3.60023C11.0358 2.18479 10.9628 2.87169 10.7045 3.39207C11.5215 2.28193 12.4763 2.79074 12.8516 3.18392C13.3208 3.34582 14.2945 3.71818 14.4352 3.91246C14.5759 4.10673 14.3764 4.24781 14.2591 4.29407C14.3645 4.72194 14.5119 5.79277 14.2582 6.65313C14.0045 7.51349 12.2281 7.79797 11.3716 7.83266C12.0872 8.01769 13.6099 8.59589 13.9756 9.4285C14.3414 10.2611 13.4706 10.8393 12.9895 11.0243C13.7498 10.8856 13.799 11.0822 13.7286 11.1978C12.1789 14.0287 10.1494 13.58 9.32833 13.0018L9.6449 13.5569C8.43412 13.5569 7.96746 12.7705 7.88548 12.3773C7.96943 13.8205 7.49788 13.5569 7.25162 13.2446C6.51872 15.4372 5.28018 14.3663 4.75252 13.5569C2.89373 14.6392 2.64087 13.1059 2.74679 12.2039C2.41947 11.1703 3.07373 10.4179 3.69035 10.0084C1.63307 10.9402 0.95876 9.02694 0.88293 7.86735C0.0666739 7.00699 1.22383 6.0518 1.90444 5.68175Z" fill="#F07078" transform="translate(62.47 65.21) rotate(-1.08)"/>
<path d="M3.7124 2.47498C3.71207 3.39322 2.935 4.13761 1.97678 4.13761C1.01856 4.13761 0.242041 3.39322 0.242376 2.47498C0.24271 1.55673 1.01977 0.812347 1.97799 0.812347C2.93621 0.812347 3.71274 1.55673 3.7124 2.47498Z" fill="#FAD769" transform="translate(67.75 70.93) rotate(-1.08)"/></g><g transform="translate(39.17 2) rotate(-5.52)">
<path d="M34.9396 0.586022L0.00215876 2.25367L4.93453 31.4058L40.0756 26.1872L46.4373 48.7745L48.3669 48.26L34.9396 0.586022Z" fill="#585AF1" transform="translate(0.05 0.58) rotate(-6.22)"/><g transform="translate(13.94 4.38) rotate(-0.42)">
<path d="M6.30142 3.28499C6.15765 4.61231 4.92748 5.58263 3.55374 5.45225C2.18001 5.32188 1.18292 4.14019 1.32669 2.81287C1.47046 1.48555 2.70064 0.515237 4.07437 0.64561C5.44811 0.775984 6.44519 1.95768 6.30142 3.28499Z" fill="#F4B04A" transform="translate(4.02 0.61) rotate(-6.22)"/>
<path d="M5.1088 14.3408C4.96513 15.6681 3.73502 16.6385 2.36127 16.5083C0.987529 16.378 -0.00964436 15.1964 0.134026 13.869C0.277696 12.5417 1.5078 11.5713 2.88155 11.7016C4.25529 11.8318 5.25247 13.0135 5.1088 14.3408Z" fill="#F4B04A" transform="translate(4.02 0.61) rotate(-6.22)"/>
<path fill-rule="evenodd" clip-rule="evenodd" d="M16.9581 3.96419H0.978008L1.02197 0.577754H17.0021L16.9581 3.96419Z" fill="white" transform="translate(0.02 6.58) rotate(-0.79)"/></g></g><g transform="translate(45.26 77.91) rotate(-1.77)">
<ellipse opacity="0.8" rx="17.61" ry="19.275" fill="#1A1D22" transform="translate(200 56) rotate(-1.07)"/><g transform="translate(1.04 -0.03) rotate(-1.07)">
<path d="M0.847555 4.81903C10.0303 2.8113 31.1889 0.117779 42.3606 2.91254L56.9605 26.9844" stroke="#565960" stroke-width="2" transform="translate(92.86 -0.03) rotate(-1.07)"/>
<path d="M1.6999 0.73398L7.4902 30.85" stroke="#565960" stroke-width="2" transform="translate(90.75 2.04) rotate(-1.07)"/>
<path d="M6.50253 33.85L0.712228 3.73397C17.5174 -1.47009 37.5702 -0.120876 45.4959 1.20424L60.4734 26.3603H58.9638L44.364 2.2884C33.1923 -0.506365 12.0339 2.81041 2.85113 4.81814L10.0249 33.85H6.50253Z" fill="#F6F6F6" transform="translate(90.69 -1.7) rotate(-1.07)"/><g transform="translate(0.47 26.85) rotate(-1.07)">
<path d="M74.2025 14.4767C73.1961 14.3445 73.7832 9.37704 74.2025 8.93534L1.74228 1.34611L1.74228 4.96003L74.2025 14.4767Z" fill="#F6F6F6" stroke="#1A1D22" stroke-width="2" transform="translate(39.32 32.62) rotate(-1.07)"/>
<path d="M66.834 2L0.160606 11.2757L50.1353 14.9777C59.5509 15.6752 66.834 23.5179 66.834 32.9592L144.2 25.1291C144.2 15.6024 136.886 7.67191 127.39 6.90308L66.834 2Z" fill="#F4B04A" stroke="#585AF1" stroke-width="2" transform="translate(84.14 -1.57) rotate(-1.07)"/>
<path d="M136.39 10.8416L0.999995 1.73409C0.999995 10.2148 2.92891 15.9488 3.89337 17.7558L153.217 28.8385C153.217 19.3465 145.86 11.4787 136.39 10.8416Z" fill="#F4B04A" stroke="#585AF1" stroke-width="2" transform="translate(0.06 3.73) rotate(-1.07)"/>
<path d="M0.496078 9.47705C0.496078 7.40532 2.07793 5.67644 4.1415 5.49279L63.8213 0.181556C66.1612 -0.0266807 68.1759 1.81671 68.1759 4.16581L68.1759 7.7757C68.1759 9.81504 66.6417 11.5279 64.6147 11.7516L4.93483 18.3375C2.56636 18.5989 0.496078 16.7445 0.496078 14.3616L0.496078 9.47705Z" fill="#585AF1" transform="translate(156.62 5.88) rotate(-1.07)"/>
<ellipse rx="5.785" ry="5.54" fill="white" transform="translate(165.14 17.53) rotate(-1.07)"/>
<ellipse rx="3.9" ry="4.82" fill="white" transform="translate(218.74 10.990000000000009) rotate(-1.07)"/>
<path d="M150.933 13.2027L0.287397 0.283518L0.811937 1.74898C3.24909 8.55793 9.36962 12.4335 15.7898 14.538C22.1787 16.6323 29.0598 17.0438 33.5028 16.7812L142.309 30.1516L155.84 32.2598C157.512 32.5204 159.204 32.5816 160.897 32.4218C168.769 31.6787 180.06 30.3826 190.489 28.9308C200.885 27.4837 210.524 25.869 215.026 24.477C219.882 22.9759 223.454 20.1601 225.688 17.0313C227.905 13.9263 228.85 10.4355 228.292 7.59499L228.119 6.7153L150.933 13.2027Z" fill="#585AF1" transform="translate(1.61 18.26) rotate(-1.77)"/></g>
<path opacity="0.7" d="M62.4097 7.79541L5.5062 12.0716C2.82621 12.273 0.531617 10.1462 0.528195 7.45769C0.525057 4.99251 2.46244 2.97142 4.92509 2.87081L61.9515 0.541071C64.2666 0.446492 66.0885 2.51438 65.7015 4.79725C65.4237 6.43583 64.0678 7.67081 62.4097 7.79541Z" fill="white" transform="translate(158.43 53.4) rotate(-4.17)"/>
<path d="M17.7998 6.19906L4.73212 8.3297C2.69518 8.66182 0.850517 7.08727 0.859412 5.02407C0.86684 3.30125 2.18299 1.86401 3.89878 1.70507L17.0808 0.484014C18.7777 0.326838 20.237 1.66755 20.2236 3.37129C20.2126 4.77765 19.1882 5.97268 17.7998 6.19906Z" fill="white" transform="translate(187.79 51.68) rotate(0.34)"/></g><g transform="translate(111.94 52.6) rotate(-1.77)"><g transform="translate(0 0) rotate(-1.77)">
<path d="M35.7163 19.2742C35.7025 29.9191 27.8061 38.5485 18.0794 38.5485C8.35263 38.5485 0.478765 29.9191 0.492618 19.2742C0.506471 8.62936 8.4028 0 18.1296 0C27.8563 0 35.7302 8.62936 35.7163 19.2742Z" fill="#1A1D22" transform="translate(0.52 -0.01) rotate(-1.07)"/>
<path opacity="0.2" d="M21.8513 15.0969C21.8434 22.9475 17.106 29.3116 11.2699 29.3116C5.43388 29.3116 0.709225 22.9475 0.717117 15.0969C0.725009 7.24629 5.46246 0.882133 11.2985 0.882133C17.1346 0.882133 21.8592 7.24629 21.8513 15.0969Z" fill="white" transform="translate(2.85 3.8) rotate(-1.07)"/>
<path fill-rule="evenodd" clip-rule="evenodd" d="M10.6342 16.4975C11.674 15.0078 12.3834 12.8422 12.3885 10.3547C12.3936 7.86722 11.6931 5.70163 10.6594 4.21197C9.62075 2.71522 8.37817 2.05186 7.23512 2.05186C6.09208 2.05186 4.84678 2.71522 3.80202 4.21197C2.76222 5.70163 2.0528 7.86722 2.0477 10.3547C2.04261 12.8422 2.74316 15.0078 3.77686 16.4975C4.81548 17.9942 6.05807 18.6576 7.20111 18.6576C8.34415 18.6576 9.58946 17.9942 10.6342 16.4975ZM7.19701 20.6576C11.1571 20.6576 14.3769 16.0448 14.3885 10.3547C14.4002 4.66461 11.1993 0.0518646 7.23922 0.0518646C3.27911 0.0518646 0.0593598 4.66461 0.0477035 10.3547C0.0360473 16.0448 3.2369 20.6576 7.19701 20.6576Z" fill="white" transform="translate(6.32 7.86) rotate(-0.41)"/>
<path fill-rule="evenodd" clip-rule="evenodd" d="M0.377736 0.923472C0.546086 0.704583 0.860006 0.663612 1.0789 0.831963C2.2975 1.7692 4.52123 4.83657 4.52123 9.9693C4.52123 10.2454 4.29738 10.4693 4.02123 10.4693C3.74509 10.4693 3.52123 10.2454 3.52123 9.9693C3.52123 5.11231 1.41542 2.35235 0.469245 1.62463C0.250356 1.45628 0.209385 1.14236 0.377736 0.923472Z" fill="white" transform="translate(23.47 6.01) rotate(-1.77)"/>
<path fill-rule="evenodd" clip-rule="evenodd" d="M0.328295 1.17693C0.50159 0.958531 0.81642 0.918398 1.03149 1.08729C2.22822 2.0271 4.38397 5.10195 4.28108 10.2467C4.27556 10.5228 4.04723 10.7466 3.77109 10.7466C3.49495 10.7466 3.27556 10.5228 3.28108 10.2467C3.3785 5.37554 1.3329 2.60772 0.40393 1.87819C0.188863 1.7093 0.155 1.39533 0.328295 1.17693Z" fill="white" transform="translate(29.59 11.08) rotate(12.92)"/></g></g><g transform="translate(18 46) rotate(-1.07)">
<ellipse rx="13.585" ry="14.815" fill="#1A1D22" transform="translate(13.86 14.560000000000002) rotate(-1.07)"/>
<path opacity="0.2" d="M18.1128 14.563C16.5626 21.115 11.3511 25.5641 6.47241 24.5005C1.59375 23.4368 -1.10456 17.2632 0.445569 10.7112C1.9957 4.15927 7.20726 -0.289868 12.0859 0.77378C16.9646 1.83743 19.6629 8.01108 18.1128 14.563Z" fill="white" transform="translate(1.02 1.6) rotate(-1.77)"/>
<path fill-rule="evenodd" clip-rule="evenodd" d="M8.52177 14.3628C9.65565 13.3563 10.668 11.7343 11.1734 9.71192C11.6791 7.68854 11.5397 5.8166 11.014 4.44992C10.4867 3.07883 9.66261 2.38913 8.8408 2.20001C8.00573 2.00785 6.91182 2.27166 5.76761 3.28732C4.63373 4.29382 3.62139 5.91584 3.11597 7.93823C2.61031 9.96161 2.74965 11.8336 3.27534 13.2002C3.80272 14.5713 4.62677 15.261 5.44859 15.4501C6.28365 15.6423 7.37756 15.3785 8.52177 14.3628ZM5.00193 17.3992C8.29856 18.1578 11.9304 14.934 13.1138 10.1987C14.2972 5.46332 12.5841 1.00959 9.28745 0.250977C5.99082 -0.507635 2.35903 2.71614 1.17562 7.45149C-0.00779648 12.1868 1.7053 16.6406 5.00193 17.3992Z" fill="white" transform="translate(3.88 5.07) rotate(-1.77)"/></g></g>
<path opacity="0.7" fill-rule="evenodd" clip-rule="evenodd" d="M10.4021 0.836381C10.4017 0.836381 10.4013 0.836047 10.4013 0.835635V0.835635C10.4013 0.835223 10.401 0.834888 10.4006 0.834888L2.55105 0.835013C1.44651 0.835031 0.513504 1.7719 0.983657 2.77139C1.75512 4.41141 3.47645 5.55304 5.47615 5.55301C7.50161 5.55298 9.24152 4.38169 9.99808 2.70762C10.1419 2.3894 10.4438 2.15779 10.793 2.15783V2.15783C11.1422 2.15787 11.444 2.38954 11.5877 2.70779C12.3442 4.38264 14.0846 5.55473 16.1106 5.55498C18.1104 5.55522 19.8317 4.41363 20.6029 2.77351C21.0728 1.77411 20.14 0.837429 19.0356 0.837294L11.1849 0.836333C11.1849 0.836333 11.1849 0.836365 11.1849 0.836405V0.836405C11.1849 0.836445 11.1848 0.836477 11.1848 0.836477L10.4021 0.836381Z" fill="#EC4C56" transform="translate(112.94 40.27) rotate(-6.22)"/></g>
<g opacity="0.086" class="cloud_82">
<path d="M27.625 6.31245C29.239 6.33226 30.5628 5.09049 30.5819 3.5389C30.6009 1.9873 29.3079 0.713428 27.6939 0.693623C26.08 0.673817 24.7561 1.91558 24.7371 3.46718C24.7181 5.01877 26.011 6.29265 27.625 6.31245Z" fill="#F6F6F6" class="cloud_82"/>
<path d="M39.434 23.0043C39.4327 23.1096 39.4295 23.2145 39.4245 23.3189C48.7322 23.5837 56.2855 30.4356 57.286 39.1472C57.331 39.1484 57.376 39.15 57.4209 39.1517L57.421 39.1473C57.5098 31.9065 63.6876 26.1116 71.2195 26.2041C78.7515 26.2965 84.7853 32.2412 84.6965 39.482C84.6077 46.7228 78.4299 52.5177 70.898 52.4253C69.9481 52.4136 69.0221 52.3089 68.1291 52.1202C67.125 57.23 62.425 61.063 56.8276 60.9943C53.1778 60.9496 49.9501 59.2557 47.9022 56.6593C45.1732 58.1223 42.0206 58.9394 38.6705 58.8983C28.4486 58.7729 20.2598 50.705 20.3803 40.8782C20.4303 36.8056 21.8996 33.07 24.3309 30.1006C22.034 28.4231 20.5642 25.7576 20.6008 22.7732C20.6622 17.7736 24.9278 13.7724 30.1284 13.8362C35.3291 13.9 39.4953 18.0047 39.434 23.0043Z" fill="#F6F6F6" class="cloud_82"/>
<path d="M13.9541 34.867C13.9118 38.315 10.9699 41.0745 7.38328 41.0305C3.79665 40.9865 0.92339 38.1557 0.96569 34.7077C1.00799 31.2597 3.94983 28.5002 7.53647 28.5442C11.1231 28.5882 13.9964 31.419 13.9541 34.867Z" fill="#F6F6F6" class="cloud_82"/>
<path d="M86.9949 37.0127C88.2502 37.0281 89.2799 36.0623 89.2947 34.8555C89.3095 33.6487 88.3038 32.6579 87.0485 32.6425C85.7932 32.6271 84.7635 33.5929 84.7487 34.7997C84.7339 36.0065 85.7396 36.9973 86.9949 37.0127Z" fill="#F6F6F6" class="cloud_82"/>
</g></g></g>
<defs><clipPath id="clip_0_113"><rect width="387" height="352"/></clipPath>
</defs>
</svg>