<svg width="122" height="84" viewBox="0 0 122 84" fill="none" xmlns="http://www.w3.org/2000/svg">
<path d="M121 83V67.3148C121 39.0193 101 34.9194 97.8725 34.0431C95.7738 33.4551 89.4204 25.2235 85.1943 22.1604C96.8973 10.246 85.7051 8.74609 78.6461 9.48545C79.8722 3.14799 72.6981 -2.35699 66.8037 3.46486L54.1254 17.4073C37.8526 19.8155 30.6265 38.7962 29.0475 47.9855C18.5055 47.8271 -1.7984 54.6082 1.32241 83" stroke="#585AF1" stroke-width="2"/>
<ellipse rx="1.20825" ry="3.83895" transform="matrix(-0.984145 0.177368 0.181666 0.98336 55.7354 37.0236)" fill="#585AF1"/>
<ellipse rx="1.20825" ry="3.83895" transform="matrix(-0.984145 0.177368 0.181666 0.98336 63.8872 35.5538)" fill="#585AF1"/>
<path opacity="0.7" fill-rule="evenodd" clip-rule="evenodd" d="M53.6198 39.1021C53.6198 39.102 53.6199 39.1019 53.62 39.1019L65.1182 37.8399C65.1182 37.8399 65.1183 37.8399 65.1183 37.84C65.1183 37.8401 65.1183 37.8401 65.1184 37.8401L76.8618 36.5512C77.9598 36.4306 78.9756 37.2328 78.8385 38.3282C78.3593 42.1578 75.2751 45.3054 71.2225 45.7502C67.6834 46.1386 64.4067 44.356 62.7548 41.4789C62.4493 40.9467 61.8775 40.598 61.2681 40.6649C60.6587 40.7318 60.1784 41.196 59.9986 41.7814C59.0265 44.9466 56.2259 47.3963 52.6868 47.7847C48.6343 48.2295 44.9257 45.8275 43.6069 42.1952C43.2297 41.1564 44.0425 40.1535 45.1404 40.033L53.6197 39.1023C53.6198 39.1023 53.6199 39.1022 53.6198 39.1021Z" fill="#EC4C56"/>
<path d="M65.151 49.4554C65.151 47.8086 63.7994 46.4736 62.1321 46.4736C60.4649 46.4736 59.1133 47.8086 59.1133 49.4554" stroke="#585AF1" stroke-width="2" stroke-linecap="round"/>
<path d="M50.8842 50.2019L50.3748 51.5607C49.416 54.1183 48.4575 58.3993 51.189 58.3993C53.9195 58.3993 52.9523 54.121 51.9755 51.5711L51.4503 50.1999C51.3506 49.9397 50.9821 49.941 50.8842 50.2019Z" stroke="#585AF1" stroke-width="2" stroke-linejoin="round"/>
</svg>
