<svg width="301" height="181" viewBox="0 0 301 181" fill="none" xmlns="http://www.w3.org/2000/svg">
<ellipse rx="92.1148" ry="3.38333" transform="matrix(0.982727 0.185059 -0.186625 0.982431 114.631 159.887)" fill="#E0E0E0"/>
<ellipse rx="92.1148" ry="3.38333" transform="matrix(0.98271 0.185153 -0.186531 0.982449 181.649 150.954)" fill="#E0E0E0"/>
<ellipse opacity="0.8" rx="16.8055" ry="19.0517" transform="matrix(0.999919 0.0127103 -0.0128152 0.999918 270.54 149.586)" fill="#1A1D22"/>
<path d="M71.4518 104.538L107.151 121.469C114.887 125.138 123.413 118.052 121.17 109.818L113.978 83.4056C114.213 80.8692 114.493 78.9389 114.807 77.3707C115.775 72.5263 114.091 67.5618 109.651 65.377L94.582 57.9607C89.6269 55.5221 83.6074 57.5498 81.1371 62.4896L79.2294 66.3045L66.8223 91.1148C64.3267 96.1053 66.4103 102.147 71.4518 104.538Z" fill="#F07078"/>
<path d="M79.2294 66.3045L66.8223 91.1148C64.3267 96.1053 66.4103 102.147 71.4518 104.538L107.151 121.469C114.887 125.137 123.413 118.052 121.17 109.818L113.978 83.4056M79.2294 66.3045L113.978 83.4056M79.2294 66.3045L81.1371 62.4896C83.6074 57.5498 89.6269 55.5221 94.582 57.9607L109.651 65.377C114.091 67.5618 115.775 72.5263 114.807 77.3707C114.493 78.9389 114.213 80.8692 113.978 83.4056" stroke="#585AF1" stroke-width="2"/>
<path d="M101.27 105.426L78.2273 94.0862" stroke="white" stroke-width="2" stroke-linecap="round"/>
<path d="M106.867 94.2321L83.8249 82.892" stroke="white" stroke-width="2" stroke-linecap="round"/>
<g opacity="0.3">
<path d="M80.114 55.6506C78.3472 54.7811 76.2128 55.4995 75.3419 57.241C74.471 58.9825 75.1857 61.1031 76.9525 61.9726C78.7193 62.8421 80.8537 62.1237 81.7246 60.3822C82.5955 58.6406 81.8808 56.5201 80.114 55.6506Z" stroke="#6A6CF0" stroke-width="2"/>
<ellipse rx="2.72044" ry="2.73421" transform="matrix(0.447288 -0.894436 -0.897194 -0.441545 78.5293 58.8114)" fill="#6A6CF0"/>
</g>
<path d="M63.4343 87.8361C61.6675 86.9666 59.5331 87.685 58.6622 89.4265C57.7913 91.1681 58.506 93.2886 60.2728 94.1581C62.0396 95.0276 64.174 94.3092 65.0449 92.5677C65.9158 90.8262 65.2011 88.7056 63.4343 87.8361Z" stroke="#6A6CF0" stroke-width="2"/>
<path d="M75.2195 64.2531C73.4527 63.3836 71.3183 64.102 70.4474 65.8435C69.5765 67.5851 70.2912 69.7056 72.058 70.5751C73.8248 71.4446 75.9592 70.7262 76.8301 68.9847C77.701 67.2432 76.9863 65.1226 75.2195 64.2531Z" stroke="#6A6CF0" stroke-width="2"/>
<ellipse rx="2.72044" ry="2.73421" transform="matrix(0.447288 -0.894436 -0.897194 -0.441545 73.6348 67.414)" fill="#6A6CF0"/>
<ellipse rx="2.72044" ry="2.73421" transform="matrix(0.447288 -0.894436 -0.897194 -0.441545 61.8535 90.9963)" fill="#6A6CF0"/>
<path d="M136.473 134.015C151.483 135.514 163.758 105.985 167.166 90.4952L175.305 93.9104L177.176 90.1903L177.33 88.5547L179.289 85.4371L178.245 83.2773L180.912 81.4632L180.912 77.5233L185.431 62.3968L171.72 61.1363L167.087 72.6466L172.141 59.8758L181.765 46.0668C186.867 44.892 188.141 53.3985 188.141 57.7986C189.596 105.063 191.104 117.339 192.877 117.641L151.472 137.709L136.473 134.015C135.423 133.91 134.361 133.654 133.286 133.23L136.473 134.015Z" fill="#51B598"/>
<path d="M167.166 90.4952C163.519 107.068 149.723 139.712 133.286 133.23L151.472 137.709L192.877 117.641C191.104 117.339 189.596 105.063 188.141 57.7986C188.141 53.3985 186.867 44.892 181.765 46.0668L172.141 59.8758L167.087 72.6466L171.72 61.1363L185.431 62.3968L180.912 77.5233L180.912 81.4632L178.245 83.2773L179.289 85.4371L177.33 88.5547L177.176 90.1903L175.305 93.9104L167.166 90.4952Z" stroke="#51B598" stroke-width="2"/>
<path d="M178.297 95.938C178.937 94.3174 180.972 95.4872 181.91 96.2746C180.468 93.8266 181.464 93.6164 182.142 93.8174C181.529 92.8789 182.371 92.3468 182.869 92.198C184.227 90.3966 185.152 91.6074 185.445 92.438C187.006 92.7763 186.12 93.9814 185.482 94.5417C187.3 93.3063 187.167 93.9756 186.873 94.4647C187.752 93.4449 188.613 94.03 188.933 94.4501C189.364 94.6509 190.255 95.1034 190.37 95.307C190.486 95.5106 190.283 95.6317 190.167 95.6668C190.228 96.0971 190.269 97.1636 189.948 97.9876C189.627 98.8115 187.912 98.9341 187.095 98.8924C187.758 99.1378 189.152 99.8414 189.422 100.693C189.692 101.544 188.811 102.036 188.337 102.176C189.072 102.106 189.101 102.304 189.023 102.412C187.288 105.059 185.401 104.438 184.674 103.797L184.924 104.371C183.773 104.264 183.402 103.449 183.361 103.055C183.307 104.482 182.883 104.181 182.678 103.852C181.778 105.944 180.7 104.781 180.274 103.938C178.407 104.838 178.309 103.307 178.493 102.429C178.278 101.383 178.97 100.701 179.594 100.353C177.552 101.087 177.088 99.1453 177.124 97.9978C176.428 97.0791 177.616 96.2418 178.297 95.938Z" fill="#F07078"/>
<ellipse rx="1.65605" ry="1.64293" transform="matrix(0.995688 0.0927713 -0.0941688 0.995556 183.455 98.613)" fill="#FAD769"/>
<path d="M187.328 49.9102L175.182 62.5099L184.788 66.5915L172.006 81.7303" stroke="white" stroke-width="2" stroke-linecap="round" stroke-linejoin="round"/>
<ellipse rx="0.729062" ry="2.32491" transform="matrix(-0.99714 0.0773684 0.0786994 0.99676 162.472 41.6027)" fill="#585AF1"/>
<ellipse rx="0.729062" ry="2.32491" transform="matrix(-0.99714 0.0773684 0.0786994 0.99676 167.452 41.2162)" fill="#585AF1"/>
<path d="M160.492 50.357C160.616 51.9279 162 53.1018 163.584 52.9789C165.167 52.856 166.351 51.4829 166.227 49.912" stroke="#585AF1" stroke-width="2" stroke-linecap="round"/>
<path opacity="0.7" fill-rule="evenodd" clip-rule="evenodd" d="M166.206 42.763C166.207 42.763 166.207 42.7627 166.207 42.7622C166.207 42.7618 166.207 42.7615 166.208 42.7615L173.607 42.702C174.712 42.6931 175.654 43.6212 175.2 44.6277C174.472 46.2411 172.846 47.371 170.947 47.3862C169.008 47.4018 167.333 46.2502 166.6 44.593C166.466 44.2888 166.177 44.0692 165.844 44.0719C165.512 44.0746 165.227 44.2989 165.097 44.6052C164.393 46.2748 162.738 47.4541 160.798 47.4699C158.899 47.4855 157.254 46.382 156.499 44.7804C156.028 43.7815 156.954 42.8385 158.058 42.8295L165.459 42.769C165.459 42.769 165.459 42.769 165.459 42.769C165.459 42.7691 165.459 42.7691 165.459 42.7691L166.206 42.763Z" fill="#EC4C56"/>
<path d="M159.875 69.8086L135.868 49.9369C105.001 68.5115 113.916 86.3583 117.835 102.089L139.977 96.624L160.503 76.3641L159.875 69.8086Z" fill="#51B598"/>
<path d="M128.941 55.2405L147.168 60.1681L140.584 68.2175L160.222 76.0286" stroke="white" stroke-width="2" stroke-linecap="round" stroke-linejoin="round"/>
<path d="M139.813 80.8014C140.452 79.1808 142.488 80.3506 143.426 81.138C141.983 78.69 142.98 78.4798 143.658 78.6808C143.045 77.7423 143.887 77.2102 144.385 77.0615C145.743 75.26 146.668 76.4708 146.96 77.3014C148.521 77.6397 147.636 78.8448 146.998 79.4051C148.815 78.1697 148.682 78.839 148.389 79.3281C149.268 78.3083 150.128 78.8934 150.448 79.3135C150.879 79.5143 151.77 79.9668 151.886 80.1704C152.002 80.374 151.799 80.4951 151.683 80.5302C151.744 80.9605 151.784 82.027 151.464 82.851C151.143 83.6749 149.428 83.7975 148.611 83.7558C149.274 84.0012 150.667 84.7049 150.938 85.5564C151.208 86.4079 150.327 86.8996 149.853 87.039C150.588 86.9698 150.617 87.1676 150.539 87.2751C148.804 89.9229 146.916 89.3017 146.19 88.6602L146.439 89.2343C145.289 89.1271 144.918 88.3122 144.876 87.9181C144.822 89.3453 144.399 89.0442 144.194 88.7152C143.294 90.8073 142.216 89.6442 141.79 88.8011C139.923 89.7014 139.825 88.1704 140.009 87.2924C139.794 86.2466 140.485 85.5644 141.109 85.2161C139.068 85.9506 138.604 84.0087 138.64 82.8612C137.944 81.9425 139.132 81.1052 139.813 80.8014Z" fill="#F07078"/>
<ellipse rx="1.65605" ry="1.64293" transform="matrix(0.995688 0.0927713 -0.0941688 0.995556 144.971 83.4758)" fill="#FAD769"/>
<path d="M162.196 116.713C162.835 115.092 164.871 116.262 165.808 117.05C164.366 114.602 165.362 114.391 166.041 114.592C165.428 113.654 166.27 113.122 166.768 112.973C168.126 111.172 169.051 112.382 169.343 113.213C170.904 113.551 170.018 114.756 169.381 115.317C171.198 114.081 171.065 114.751 170.771 115.24C171.651 114.22 172.511 114.805 172.831 115.225C173.262 115.426 174.153 115.878 174.269 116.082C174.384 116.286 174.182 116.407 174.066 116.442C174.126 116.872 174.167 117.939 173.846 118.763C173.525 119.587 171.811 119.709 170.994 119.667C171.657 119.913 173.05 120.616 173.321 121.468C173.591 122.319 172.71 122.811 172.235 122.951C172.971 122.881 172.999 123.079 172.922 123.187C171.187 125.834 169.299 125.213 168.573 124.572L168.822 125.146C167.671 125.039 167.301 124.224 167.259 123.83C167.205 125.257 166.782 124.956 166.576 124.627C165.677 126.719 164.599 125.556 164.172 124.713C162.306 125.613 162.207 124.082 162.392 123.204C162.176 122.158 162.868 121.476 163.492 121.128C161.45 121.862 160.987 119.92 161.022 118.773C160.326 117.854 161.515 117.017 162.196 116.713Z" fill="#F07078"/>
<ellipse rx="1.65605" ry="1.64293" transform="matrix(0.995688 0.0927713 -0.0941688 0.995556 167.35 119.388)" fill="#FAD769"/>
<path d="M115.903 78.5733C116.542 76.9527 118.578 78.1224 119.515 78.9099C118.073 76.4619 119.069 76.2517 119.748 76.4526C119.135 75.5141 119.977 74.982 120.475 74.8333C121.833 73.0318 122.758 74.2427 123.05 75.0733C124.611 75.4115 123.725 76.6167 123.088 77.177C124.905 75.9416 124.772 76.6109 124.478 77.1C125.358 76.0802 126.218 76.6653 126.538 77.0853C126.969 77.2861 127.86 77.7387 127.976 77.9423C128.091 78.1458 127.889 78.267 127.773 78.3021C127.833 78.7324 127.874 79.7989 127.553 80.6228C127.233 81.4468 125.518 81.5694 124.701 81.5276C125.364 81.773 126.757 82.4767 127.028 83.3282C127.298 84.1797 126.417 84.6714 125.942 84.8109C126.678 84.7417 126.706 84.9394 126.629 85.0469C124.894 87.6947 123.006 87.0736 122.28 86.4321L122.529 87.0062C121.378 86.899 121.008 86.084 120.966 85.69C120.912 87.1172 120.489 86.816 120.283 86.4871C119.384 88.5792 118.306 87.416 117.879 86.5729C116.013 87.4732 115.914 85.9423 116.099 85.0643C115.883 84.0185 116.575 83.3362 117.199 82.9879C115.157 83.7225 114.694 81.7805 114.729 80.633C114.033 79.7143 115.222 78.8771 115.903 78.5733Z" fill="#F07078"/>
<ellipse rx="1.65605" ry="1.64293" transform="matrix(0.995688 0.0927714 -0.0941688 0.995556 121.057 81.2489)" fill="#FAD769"/>
<path d="M179.928 78.4434L184.44 65.0424C184.867 63.7745 183.951 62.452 182.612 62.4044L172.82 62.0558C171.932 62.0242 171.13 62.5823 170.852 63.4259L166.78 75.7722" stroke="#585AF1" stroke-width="2" stroke-linecap="round" stroke-linejoin="round"/>
<path d="M141.385 96.3973L161.432 76.5267C160.678 72.975 159.887 66.0594 162.761 66.8103C165.635 67.5613 166.443 74.5727 166.488 77.9845" stroke="#585AF1" stroke-width="2" stroke-linecap="round" stroke-linejoin="round"/>
<path d="M166.503 78.1001C169.178 75.4795 176.603 70.1096 177.12 74.4892C176.85 76.0939 175.533 78.0998 170.46 80.4807C173.273 79.0736 179.291 76.935 180.856 79.6375C182.42 82.34 175.644 83.7909 172.061 84.1785C174.359 84.0372 179.091 84.1149 179.631 85.5554C180.307 87.3561 178.473 90.1296 170.863 87.8246C172.322 88.0637 175.594 88.9631 177.005 90.6479C177.476 91.9897 176.375 93.7828 168.199 90.2212" stroke="#585AF1" stroke-width="2" stroke-linecap="round" stroke-linejoin="round"/>
<path d="M182.181 45.5757L182.088 46.571L181.63 46.5277L181.365 46.1526L182.181 45.5757ZM171.011 32.9234L170.963 33.9219L170.737 33.9109L170.539 33.8042L171.011 32.9234ZM157.836 25.8577L157.364 26.7385L157.306 26.7073L157.252 26.6687L157.836 25.8577ZM149.536 33.2621L150.513 33.0493L150.898 34.8054L149.203 34.2042L149.536 33.2621ZM141.551 32.3128L141.166 31.3894L141.551 32.3128ZM144.17 42.3702L144.707 41.5279L145.869 42.269L144.806 43.1427L144.17 42.3702ZM125.421 57.7808L124.764 57.0257L124.774 57.0169L124.785 57.0083L125.421 57.7808ZM116.985 101.941L116.013 102.173L116.012 102.169L116.985 101.941ZM194.6 118.315C194.723 118.854 194.386 119.389 193.847 119.511C193.308 119.633 192.772 119.296 192.649 118.757L194.6 118.315ZM181.365 46.1526C180.806 45.3637 180.297 44.1291 179.777 42.8963C179.234 41.6077 178.634 40.2002 177.869 38.8722C176.338 36.2137 174.272 34.0842 170.963 33.9219L171.059 31.9249C175.373 32.1365 177.934 34.9791 179.602 37.8763C180.437 39.3261 181.081 40.8423 181.621 42.1215C182.184 43.4565 182.597 44.4337 182.997 44.9989L181.365 46.1526ZM170.539 33.8042L157.364 26.7385L158.308 24.9769L171.483 32.0426L170.539 33.8042ZM157.252 26.6687C155.196 25.1893 153.091 25.0001 151.81 25.8163C150.584 26.5982 149.556 28.6816 150.513 33.0493L148.559 33.4749C147.539 28.8218 148.43 25.5979 150.733 24.1302C152.981 22.6968 156.015 23.3158 158.42 25.0466L157.252 26.6687ZM149.203 34.2042C146.553 33.2649 144.814 32.0414 141.935 33.2361L141.166 31.3894C144.949 29.8193 147.678 31.5428 149.87 32.32L149.203 34.2042ZM141.935 33.2361C141.826 33.2812 141.529 33.5093 141.254 34.0513C140.996 34.56 140.813 35.2465 140.837 36.0348C140.886 37.5628 141.728 39.6265 144.707 41.5279L143.632 43.2126C140.204 41.0243 138.911 38.4021 138.838 36.0953C138.802 34.9662 139.062 33.948 139.469 33.1455C139.86 32.3765 140.449 31.6872 141.166 31.3894L141.935 33.2361ZM144.806 43.1427L126.057 58.5532L124.785 57.0083L143.534 41.5978L144.806 43.1427ZM126.077 58.5358C119.212 64.4969 115.9 69.4403 114.887 75.6966C113.858 82.0501 115.172 89.8814 117.959 101.713L116.012 102.169C113.236 90.3865 111.811 82.1779 112.912 75.3749C114.029 68.4749 117.717 63.1453 124.764 57.0257L126.077 58.5358ZM182.274 44.5805C184.103 44.7534 185.556 45.5846 186.668 46.9458C187.753 48.2741 188.492 50.0767 189.016 52.1925C190.063 56.4144 190.339 62.2514 190.484 69.0399C190.777 82.7024 190.545 100.526 194.6 118.315L192.649 118.757C188.538 100.72 188.775 82.6487 188.484 69.0804C188.338 62.2535 188.058 56.6411 187.074 52.6711C186.583 50.6909 185.938 49.2118 185.119 48.2093C184.327 47.2397 183.355 46.6908 182.088 46.571L182.274 44.5805ZM117.958 101.709L121.341 115.817L119.395 116.281L116.013 102.173L117.958 101.709Z" fill="#585AF1"/>
<path d="M170.472 88.2968C179.26 86.4238 199.483 84.0182 210.106 86.916L223.725 110.885" stroke="#565960" stroke-width="2"/>
<path d="M168.438 87.1986L173.572 117.035" stroke="#565960" stroke-width="2"/>
<path d="M173.584 117.035L168.449 87.1987C184.551 82.259 203.666 83.8357 211.211 85.2416L225.176 110.287L223.736 110.268L210.117 86.2994C199.494 83.4016 179.263 86.4232 170.476 88.2962L176.944 117.077L173.584 117.035Z" fill="#F6F6F6"/>
<path d="M187.115 156.245C186.156 156.102 186.78 151.199 187.185 150.768L118.145 142.388L118.099 145.96L187.115 156.245Z" fill="#F6F6F6" stroke="#1A1D22" stroke-width="2"/>
<path d="M225.518 110.789L161.785 119.148L208.853 123.363C218.154 124.196 225.245 132.05 225.126 141.389L299.043 134.588C299.164 125.165 292.044 117.221 282.664 116.315L225.518 110.789Z" fill="#F4B04A" stroke="#585AF1" stroke-width="2"/>
<path d="M210.047 123.247L81.5547 112.651C81.4473 121.033 83.2151 126.724 84.1124 128.521L226.447 141.286C226.567 131.899 219.403 124.019 210.047 123.247Z" fill="#F4B04A" stroke="#585AF1" stroke-width="2"/>
<path d="M230.686 129.151C230.712 127.084 232.309 125.378 234.369 125.214L291.012 120.718C293.359 120.531 295.358 122.402 295.328 124.756L295.284 128.232C295.258 130.265 293.71 131.956 291.687 132.161L235.028 137.909C232.651 138.15 230.594 136.268 230.625 133.879L230.686 129.151Z" fill="#585AF1"/>
<ellipse rx="5.52179" ry="5.47737" transform="matrix(0.999919 0.0127103 -0.0128152 0.999918 238.58 131.318)" fill="white"/>
<ellipse rx="3.72121" ry="4.76293" transform="matrix(0.999919 0.0127103 -0.0128152 0.999918 289.902 126.493)" fill="white"/>
<path d="M226.332 140.809L83.9961 128.163C88.3481 140.793 106.016 142.891 114.307 142.362L218.219 155.591L230.95 157.646C232.599 157.912 234.269 157.974 235.932 157.81C250.974 156.332 278.816 152.7 287.199 150.016C296.071 147.176 300.15 139.4 299.218 134.463L226.332 140.809Z" fill="#585AF1" stroke="#585AF1" stroke-width="2"/>
<path opacity="0.7" d="M290.71 144.801L236.903 151.349C234.263 151.67 231.909 149.669 231.801 147.011C231.703 144.581 233.533 142.504 235.956 142.296L289.962 137.655C292.239 137.459 294.119 139.41 293.839 141.678C293.637 143.314 292.346 144.602 290.71 144.801Z" fill="white"/>
<path d="M275.393 145.77L263.07 147.371C261.043 147.635 259.269 146.01 259.352 143.969C259.422 142.275 260.765 140.909 262.458 140.811L274.865 140.096C276.551 139.999 277.951 141.38 277.876 143.067C277.814 144.451 276.767 145.591 275.393 145.77Z" fill="white"/>
<path d="M134.032 130.216C124.095 127.505 120.368 116.662 117.883 101.877L121.051 101.261L155.686 116.6C153.155 123.533 143.969 132.927 134.032 130.216Z" fill="white"/>
<path d="M89.9102 6.19482L121.418 4.63698L127.691 27.8145L94.248 32.9582L89.9102 6.19482Z" fill="#585AF1"/>
<path d="M133.964 50.992L127.691 27.8145M127.691 27.8145L121.418 4.63698L89.9102 6.19482L94.248 32.9582L127.691 27.8145Z" stroke="#585AF1" stroke-width="2"/>
<ellipse rx="2.85462" ry="2.843" transform="matrix(0.998637 0.0521226 -0.0525502 0.998622 109.213 11.0683)" fill="#F4B04A"/>
<ellipse rx="2.85462" ry="2.843" transform="matrix(0.998637 0.0521226 -0.0525502 0.998622 108.529 24.1284)" fill="#F4B04A"/>
<path fill-rule="evenodd" clip-rule="evenodd" d="M117.887 20.0619L99.6424 19.1096L99.8516 15.1349L118.096 16.0871L117.887 20.0619Z" fill="white"/>
<path fill-rule="evenodd" clip-rule="evenodd" d="M25.7875 73.0592C27.3275 73.0788 28.5919 71.8513 28.6115 70.3177C28.6312 68.784 27.3987 67.5248 25.8587 67.5053C24.3187 67.4857 23.0544 68.7131 23.0347 70.2468C23.0151 71.7805 24.2475 73.0396 25.7875 73.0592ZM37.039 89.5582C37.0377 89.6623 37.0346 89.766 37.0297 89.8691C45.9105 90.1309 53.1109 96.9037 54.0571 105.515C54.1001 105.516 54.1431 105.517 54.1859 105.519L54.186 105.515C54.2777 98.3576 60.178 92.6297 67.3646 92.721C74.5512 92.8124 80.3027 98.6884 80.211 105.846C80.1193 113.003 74.219 118.731 67.0324 118.639C66.1261 118.628 65.2426 118.524 64.3907 118.338C63.4277 123.389 58.9394 127.177 53.5987 127.109C50.1162 127.065 47.0381 125.391 45.0866 122.824C42.4812 124.271 39.4723 125.078 36.2759 125.038C26.5226 124.914 18.717 116.939 18.8415 107.226C18.8931 103.2 20.2987 99.5077 22.6214 96.5725C20.4314 94.9144 19.0316 92.2797 19.0694 89.3298C19.1327 84.388 23.2067 80.433 28.1689 80.496C33.1311 80.5591 37.1024 84.6164 37.039 89.5582ZM12.7156 101.284C12.6719 104.692 9.86223 107.42 6.44004 107.376C3.01784 107.333 0.279022 104.535 0.322713 101.127C0.366404 97.7185 3.17606 94.9909 6.59826 95.0344C10.0205 95.0779 12.7593 97.876 12.7156 101.284ZM82.4064 103.405C83.6041 103.42 84.5875 102.465 84.6028 101.272C84.6181 100.08 83.6595 99.1003 82.4617 99.085C81.264 99.0698 80.2806 100.024 80.2653 101.217C80.25 102.41 81.2086 103.39 82.4064 103.405Z" fill="#F6F6F6"/>
<ellipse rx="16.8055" ry="19.0517" transform="matrix(0.999919 0.0127105 -0.012815 0.999918 203.224 157.067)" fill="#1A1D22"/>
<ellipse opacity="0.2" rx="10.0833" ry="14.0507" transform="matrix(0.999919 0.0127103 -0.0128152 0.999918 198.68 155.818)" fill="white"/>
<path d="M204.387 156.255C204.322 158.895 203.542 161.222 202.388 162.851C201.23 164.486 199.772 165.328 198.318 165.292C196.864 165.256 195.45 164.344 194.374 162.653C193.303 160.97 192.641 158.607 192.707 155.967C192.772 153.327 193.552 151 194.706 149.371C195.864 147.736 197.322 146.894 198.776 146.93C200.23 146.966 201.644 147.878 202.72 149.569C203.791 151.252 204.453 153.615 204.387 156.255Z" stroke="white" stroke-width="2"/>
<path d="M208.855 144.948C209.888 145.771 211.954 148.651 211.954 153.588" stroke="white" stroke-linecap="round"/>
<path d="M214.391 150.248C215.17 151.313 216.402 154.633 215.097 159.396" stroke="white" stroke-linecap="round"/>
<ellipse rx="12.9642" ry="14.646" transform="matrix(0.999919 0.0127103 -0.0128152 0.999918 105.205 142.364)" fill="#1A1D22"/>
<ellipse opacity="0.2" rx="8.63976" ry="12.0307" transform="matrix(0.975401 0.22034 -0.223561 0.974712 102.206 141.047)" fill="white"/>
<path d="M106.758 142.392C106.231 144.566 105.171 146.348 103.935 147.485C102.692 148.626 101.368 149.043 100.219 148.769C99.0694 148.495 98.0807 147.526 97.4968 145.95C96.9155 144.38 96.7878 142.314 97.3144 140.14C97.8409 137.966 98.9008 136.183 100.137 135.047C101.38 133.906 102.704 133.489 103.854 133.763C105.003 134.037 105.991 135.006 106.575 136.582C107.157 138.152 107.284 140.218 106.758 142.392Z" stroke="white" stroke-width="2"/>
</svg>
