<svg width="280" height="280" viewBox="0 0 280 280" fill="none" xmlns="http://www.w3.org/2000/svg">
<circle cx="140" cy="140" r="140" fill="white"/>
<path d="M49.2002 163.217H66.2556C70.171 163.217 73.9314 165.406 76.5305 168.335C83.2496 175.906 97.0123 188.147 107.003 189.45C115.26 192.642 119.994 193.744 123.986 194.327C128.885 195.043 132.534 199.037 132.534 203.987V248.417C132.534 253.94 128.056 258.417 122.534 258.417H107.003H49.2002C43.6773 258.417 39.2002 253.94 39.2002 248.417V173.217C39.2002 167.694 43.6774 163.217 49.2002 163.217Z" fill="#F4B04A"/>
<path d="M107.003 258.417H49.2002C43.6773 258.417 39.2002 253.94 39.2002 248.417V173.217C39.2002 167.694 43.6774 163.217 49.2002 163.217H66.2556C70.171 163.217 73.9314 165.406 76.5305 168.335C83.2496 175.906 97.0123 188.147 107.003 189.45M107.003 258.417V189.45M107.003 258.417H122.534C128.056 258.417 132.534 253.94 132.534 248.417V203.987C132.534 199.037 128.885 195.043 123.986 194.327C119.994 193.744 115.26 192.642 107.003 189.45" stroke="#585AF1" stroke-width="3"/>
<path d="M61.6001 192.15V237.883" stroke="white" stroke-width="3" stroke-linecap="round"/>
<path d="M84 192.15V237.883" stroke="white" stroke-width="3" stroke-linecap="round"/>
<path d="M142.77 141.736C166.358 154.035 203.003 194.984 225.749 217.626C227.714 219.582 230.533 215.483 248.073 213.014C253.4 212.263 256.87 216.417 251.022 222.238C241.249 231.965 227.855 245.298 222.379 250.749L170.57 200.435M170.57 200.435C172.255 206.026 173.518 222.238 173.518 236.493V251.303C178.713 250.465 183.867 250.749 190.788 254.103C193.513 255.424 194.158 261.65 190.788 262.489C188.092 263.16 155.406 267.52 139.4 269.617C140.804 255.641 147 232.75 136.452 205.466L134.416 200.861C132.833 197.281 129.315 195.03 125.422 194.626C109.675 192.991 77.7728 183.927 56.4668 132.883M170.57 200.435C168.464 191.63 159.281 169.324 139.4 150.541" stroke="#585AF1" stroke-width="3" stroke-linecap="round" stroke-linejoin="round"/>
<circle cx="129.733" cy="102.683" r="2.66667" fill="#F07078"/>
<circle cx="131.734" cy="104.684" r="2.66667" fill="#F07078"/>
<circle cx="127.734" cy="104.684" r="2.66667" fill="#F07078"/>
<circle cx="128.4" cy="107.35" r="2.66667" fill="#F07078"/>
<circle cx="131.066" cy="107.35" r="2.66667" fill="#F07078"/>
<circle cx="129.733" cy="105.35" r="1.33333" fill="#FAD769"/>
<ellipse cx="139.533" cy="275.216" rx="104.067" ry="4.66667" fill="#E0E0E0"/>
<g opacity="0.3">
<circle cx="118.481" cy="265.498" r="6.61475" stroke="#6A6CF0" stroke-width="3"/>
<circle cx="118.482" cy="265.497" r="4.86885" fill="#6A6CF0"/>
</g>
<circle cx="53.6182" cy="266.431" r="6.61475" stroke="#6A6CF0" stroke-width="3"/>
<circle cx="100.805" cy="266.431" r="6.61475" stroke="#6A6CF0" stroke-width="3"/>
<circle cx="100.805" cy="266.43" r="4.86885" fill="#6A6CF0"/>
<circle cx="53.6179" cy="266.431" r="4.86885" fill="#6A6CF0"/>
<path d="M170.57 200.435C172.255 206.025 173.518 222.238 173.518 236.493V250.483L141.4 254.683C143.412 244.439 144.313 218.159 131.818 194.984C119.21 194.973 95.4431 189.407 77.278 167.75C77.18 167.64 77.0874 167.529 77 167.417C77.0925 167.528 77.1852 167.639 77.278 167.75C80.8425 171.74 91.3976 173.662 107.567 151.317L141.4 140.35C154.311 149.683 189.187 178.15 225.4 217.35L209.067 236.493L170.57 200.435Z" fill="#585AF1"/>
<path d="M170.57 200.435C172.255 206.025 173.518 222.238 173.518 236.493V250.483L141.4 254.683C143.412 244.439 144.313 218.159 131.818 194.984M170.57 200.435C168.464 191.63 159.281 169.324 139.4 150.54M170.57 200.435L209.067 236.493L225.4 217.35C189.187 178.15 154.311 149.683 141.4 140.35L107.567 151.317C90.9533 174.277 80.2667 171.617 77 167.417C95.2 189.35 119.146 194.973 131.818 194.984M136.452 205.466L131.818 194.984" stroke="#585AF1" stroke-width="3" stroke-linecap="round" stroke-linejoin="round"/>
<path d="M139.533 157.617C150.422 166.794 168 181.883 172.667 203.35" stroke="white" stroke-width="3" stroke-linecap="round"/>
<path d="M78.0498 166.6C97.1831 172.2 109.2 133.817 111.533 114.684L121.333 115.617L122.733 113.284V111.417L124.6 107.684L123.2 105.351L126 103.017L124.133 98.3505L127.866 81.0839L113.866 81.5505L109.55 94.5004L113.4 81.0839L123.2 62.8838C128.8 61.0172 131.133 70.5061 131.6 75.4839C138.25 128.8 141.244 142.528 143.266 142.684L84.9329 173.951L78.0498 166.6Z" fill="#51B598" stroke="#51B598"/>
<path d="M124.601 119.667C125.146 117.766 127.554 118.875 128.69 119.667C126.812 117.05 127.908 116.707 128.69 116.863C127.903 115.866 128.791 115.175 129.334 114.954C130.667 112.773 131.833 114.046 132.25 114.954C134.037 115.172 133.171 116.629 132.515 117.33C134.423 115.741 134.345 116.512 134.067 117.097C134.946 115.85 135.973 116.421 136.377 116.863C136.882 117.045 137.93 117.463 138.081 117.681C138.233 117.899 138.018 118.057 137.892 118.109C138.006 118.59 138.165 119.792 137.892 120.758C137.619 121.724 135.708 122.043 134.787 122.082C135.557 122.29 137.195 122.939 137.589 123.874C137.983 124.809 137.046 125.458 136.529 125.665C137.347 125.51 137.4 125.73 137.324 125.86C135.658 129.038 133.474 128.535 132.591 127.886L132.931 128.509C131.629 128.509 131.126 127.626 131.038 127.184C131.129 128.805 130.621 128.509 130.356 128.158C129.569 130.62 128.236 129.418 127.668 128.509C125.668 129.724 125.396 128.002 125.509 126.99C125.157 125.829 125.86 124.985 126.524 124.525C124.311 125.571 123.584 123.423 123.502 122.121C122.624 121.155 123.868 120.083 124.601 119.667Z" fill="#F07078"/>
<circle cx="130.666" cy="122.15" r="1.86667" fill="#FAD769"/>
<path d="M132.986 63.3499L117.552 82.1796L128.764 85.7846L116.027 104.258" stroke="white" stroke-width="3" stroke-linecap="round" stroke-linejoin="round"/>
<ellipse rx="0.821691" ry="2.64115" transform="matrix(-0.985293 0.170872 0.170872 0.985293 101.068 59.8675)" fill="#585AF1"/>
<ellipse rx="0.821691" ry="2.64115" transform="matrix(-0.985293 0.170872 0.170872 0.985293 106.618 58.9053)" fill="#585AF1"/>
<path d="M99.7767 69.9797C100.083 71.7438 101.761 72.9259 103.525 72.62C105.289 72.314 106.471 70.6359 106.165 68.8718" stroke="#585AF1" stroke-width="2" stroke-linecap="round"/>
<path opacity="0.7" fill-rule="evenodd" clip-rule="evenodd" d="M99.8031 66.6822C97.5786 66.9097 95.535 65.7261 94.5622 63.8561C94.0524 62.8762 94.8844 61.8596 95.9833 61.7472L104.535 60.8728C104.535 60.8728 104.535 60.8728 104.535 60.8728C104.535 60.8728 104.535 60.8728 104.535 60.8728L107.484 60.5712C107.484 60.5712 107.484 60.5713 107.484 60.5714C107.484 60.5716 107.484 60.5717 107.484 60.5716L113.929 59.9126C115.028 59.8003 116.049 60.6274 115.748 61.6902C115.173 63.7184 113.412 65.2912 111.187 65.5186C109.011 65.7412 107.008 64.6131 106.011 62.8129C105.829 62.4842 105.481 62.2672 105.107 62.3054C104.733 62.3437 104.436 62.6266 104.324 62.9853C103.713 64.9497 101.979 66.4597 99.8031 66.6822Z" fill="#EC4C56"/>
<path d="M179.948 81.0443C192.732 81.0443 203.095 70.8152 203.095 58.1971C203.095 45.5789 192.732 35.3499 179.948 35.3499C167.163 35.3499 156.8 45.5789 156.8 58.1971C156.8 63.9022 158.918 69.1189 162.421 73.1226L160.437 83.329L171.34 79.4123C174.001 80.4651 176.906 81.0443 179.948 81.0443Z" stroke="#585AF1" stroke-width="3" stroke-linejoin="round"/>
<path d="M181.21 51.3435H190.47" stroke="#F07078" stroke-width="3"/>
<path d="M168.584 51.3435H177.002" stroke="#F07078" stroke-width="3"/>
<path d="M172.793 55.5518V47.1344" stroke="#F07078" stroke-width="3"/>
<path d="M169.622 67.948L176.294 61.2752" stroke="#F07078" stroke-width="3"/>
<path d="M176.295 67.948L169.623 61.2752" stroke="#F07078" stroke-width="3"/>
<path d="M182.053 64.811H190.47" stroke="#F07078" stroke-width="3"/>
<path d="M184.578 59.7605H187.524" stroke="#F07078" stroke-width="3"/>
<path d="M184.578 69.0198H187.524" stroke="#F07078" stroke-width="3"/>
<path d="M101.149 92.0499L72.0997 72.0999C39.433 96.3665 51.3324 115.617 57.3993 133L81.6661 124.483L102.549 99.3999L101.149 92.0499Z" fill="#51B598"/>
<path d="M62.0669 77.3499L85.8669 82.4832L79.3336 92.2832L102.2 99.0499" stroke="white" stroke-width="3" stroke-linecap="round" stroke-linejoin="round"/>
<path d="M79.8002 106.6C80.3455 104.7 82.7539 105.808 83.8899 106.6C82.0117 103.983 83.1073 103.64 83.8899 103.796C83.1023 102.799 83.9909 102.108 84.5337 101.887C85.8666 99.7063 87.033 100.979 87.4495 101.887C89.2369 102.106 88.371 103.562 87.7146 104.263C89.6231 102.674 89.5449 103.445 89.2672 104.03C90.1457 102.783 91.1732 103.355 91.5771 103.796C92.082 103.978 93.1297 104.396 93.2811 104.614C93.4326 104.832 93.218 104.99 93.0918 105.042C93.2054 105.523 93.3644 106.725 93.0918 107.691C92.8192 108.657 90.9081 108.976 89.9866 109.015C90.7566 109.223 92.395 109.872 92.7889 110.807C93.1827 111.742 92.2461 112.391 91.7286 112.599C92.5465 112.443 92.5995 112.663 92.5238 112.793C90.8576 115.972 88.6739 115.468 87.7903 114.819L88.1311 115.442C86.8285 115.442 86.3261 114.559 86.2377 114.118C86.3286 115.738 85.8212 115.442 85.5561 115.091C84.7685 117.553 83.4355 116.351 82.8675 115.442C80.8681 116.657 80.5955 114.936 80.7091 113.923C80.3565 112.762 81.0601 111.918 81.7234 111.458C79.5103 112.504 78.7841 110.356 78.7021 109.054C77.8235 108.088 79.0681 107.016 79.8002 106.6Z" fill="#F07078"/>
<circle cx="85.8662" cy="109.083" r="1.86667" fill="#FAD769"/>
<path d="M108.734 144.867C109.279 142.967 111.688 144.075 112.824 144.867C110.945 142.25 112.041 141.907 112.824 142.063C112.036 141.066 112.925 140.375 113.467 140.155C114.8 137.973 115.967 139.246 116.383 140.155C118.17 140.373 117.305 141.829 116.648 142.53C118.557 140.941 118.478 141.713 118.201 142.297C119.079 141.05 120.107 141.622 120.511 142.063C121.016 142.245 122.063 142.663 122.215 142.881C122.366 143.099 122.152 143.258 122.025 143.309C122.139 143.79 122.298 144.992 122.025 145.958C121.753 146.924 119.842 147.243 118.92 147.282C119.69 147.49 121.329 148.139 121.722 149.074C122.116 150.009 121.18 150.658 120.662 150.866C121.48 150.71 121.533 150.931 121.457 151.06C119.791 154.239 117.607 153.735 116.724 153.086L117.065 153.709C115.762 153.709 115.26 152.826 115.171 152.385C115.262 154.005 114.755 153.709 114.49 153.358C113.702 155.82 112.369 154.618 111.801 153.709C109.802 154.924 109.529 153.203 109.643 152.19C109.29 151.029 109.994 150.185 110.657 149.725C108.444 150.771 107.718 148.623 107.636 147.321C106.757 146.355 108.002 145.283 108.734 144.867Z" fill="#F07078"/>
<circle cx="114.8" cy="147.35" r="1.86667" fill="#FAD769"/>
<path d="M52.7338 106.6C53.2791 104.7 55.6875 105.808 56.8235 106.6C54.9453 103.983 56.0409 103.64 56.8235 103.796C56.0359 102.799 56.9245 102.108 57.4673 101.887C58.8002 99.7063 59.9666 100.979 60.3831 101.887C62.1705 102.106 61.3046 103.562 60.6482 104.263C62.5567 102.674 62.4784 103.445 62.2008 104.03C63.0793 102.783 64.1068 103.355 64.5107 103.796C65.0156 103.978 66.0633 104.396 66.2147 104.614C66.3662 104.832 66.1516 104.99 66.0254 105.042C66.139 105.523 66.298 106.725 66.0254 107.691C65.7527 108.657 63.8417 108.976 62.9202 109.015C63.6902 109.223 65.3286 109.872 65.7225 110.807C66.1163 111.742 65.1797 112.391 64.6622 112.599C65.4801 112.443 65.5331 112.663 65.4574 112.793C63.7912 115.972 61.6075 115.468 60.7239 114.819L61.0647 115.442C59.7621 115.442 59.2597 114.559 59.1713 114.118C59.2622 115.738 58.7548 115.442 58.4897 115.091C57.7021 117.553 56.3691 116.351 55.8011 115.442C53.8017 116.657 53.529 114.936 53.6427 113.923C53.2901 112.762 53.9937 111.918 54.657 111.458C52.4439 112.504 51.7177 110.356 51.6357 109.054C50.7571 108.088 52.0017 107.016 52.7338 106.6Z" fill="#F07078"/>
<circle cx="58.7998" cy="109.084" r="1.86667" fill="#FAD769"/>
<path d="M124.567 99.7046L128.292 83.7068C128.595 82.406 127.562 81.1795 126.229 81.2566L114.666 81.9255C113.776 81.9769 113.028 82.6112 112.831 83.4806L109.529 98.0685" stroke="#585AF1" stroke-width="3" stroke-linecap="round" stroke-linejoin="round"/>
<path d="M83.2132 124.079L103.6 99.4869C102.377 95.5484 100.756 87.8082 104.06 88.3548C107.365 88.9015 109.016 96.7481 109.428 100.603" stroke="#585AF1" stroke-width="3" stroke-linecap="round" stroke-linejoin="round"/>
<path d="M109.462 100.732C112.185 97.4852 119.948 90.6277 120.992 95.5278C120.86 97.3716 119.595 99.7796 114.155 103.008C117.162 101.119 123.689 98.0658 125.731 100.958C127.774 103.851 120.324 106.206 116.343 107.022C118.908 106.62 124.226 106.209 124.985 107.782C125.934 109.748 124.171 113.079 115.386 111.273C117.049 111.39 120.816 112.063 122.578 113.82C123.25 115.288 122.205 117.433 112.651 114.265" stroke="#585AF1" stroke-width="3" stroke-linecap="round" stroke-linejoin="round"/>
<path d="M123.611 62.284L123.608 63.784L122.917 63.783L122.469 63.2571L123.611 62.284ZM109.732 49.1476L109.798 50.6462L109.458 50.6612L109.145 50.528L109.732 49.1476ZM94.1968 42.5425L93.6099 43.9229L93.5187 43.8841L93.4334 43.8336L94.1968 42.5425ZM85.6692 51.7933L87.0988 51.339L87.9173 53.9146L85.2986 53.2468L85.6692 51.7933ZM76.6074 51.5606L75.9016 50.237L76.6074 51.5606ZM80.6145 62.6624L81.3047 61.3306L83.1243 62.2736L81.6754 63.7229L80.6145 62.6624ZM61.211 82.0712L60.1219 81.0399L60.1359 81.0251L60.1502 81.0107L61.211 82.0712ZM145.626 143.15C145.884 143.938 145.454 144.785 144.667 145.042C143.879 145.3 143.032 144.87 142.775 144.083L145.626 143.15ZM122.469 63.2571C121.727 62.3861 121.003 60.9987 120.298 59.6765C119.55 58.2744 118.737 56.7639 117.752 55.3627C115.778 52.5544 113.337 50.4896 109.798 50.6462L109.665 47.6491C114.721 47.4254 118 50.4981 120.207 53.6375C121.312 55.2102 122.205 56.8763 122.945 58.265C123.728 59.7334 124.275 60.751 124.752 61.3108L122.469 63.2571ZM109.145 50.528L93.6099 43.9229L94.7837 41.162L110.319 47.7672L109.145 50.528ZM93.4334 43.8336C91.0371 42.4168 88.8388 42.4916 87.6618 43.4141C86.554 44.2824 85.575 46.5444 87.0988 51.339L84.2397 52.2476C82.5864 47.0455 83.1976 43.1013 85.8112 41.0529C88.3555 39.0588 92.0095 39.5065 94.9603 41.2513L93.4334 43.8336ZM85.2986 53.2468C82.1353 52.4401 80.2511 51.3177 77.3131 52.8842L75.9016 50.237C80.1459 47.974 83.5882 49.7146 86.0399 50.3398L85.2986 53.2468ZM77.3131 52.8842C77.3297 52.8754 77.2608 52.911 77.1452 53.0616C77.0358 53.2042 76.9136 53.4128 76.8067 53.6864C76.5928 54.2337 76.4677 54.9696 76.5718 55.7992C76.7711 57.3872 77.8485 59.5395 81.3047 61.3306L79.9244 63.9942C75.7557 61.8339 73.9387 58.9102 73.5952 56.1727C73.4279 54.8395 73.6194 53.6003 74.0125 52.5943C74.3849 51.6415 75.018 50.7082 75.9016 50.237L77.3131 52.8842ZM81.6754 63.7229L62.2718 83.1318L60.1502 81.0107L79.5537 61.6019L81.6754 63.7229ZM62.3002 83.1026C55.2611 90.536 52.1293 96.4008 51.6645 103.469C51.19 110.685 53.4697 119.341 57.8569 132.441L55.0122 133.394C50.6489 120.365 48.152 111.165 48.671 103.272C49.1996 95.2329 52.8314 88.7388 60.1219 81.0399L62.3002 83.1026ZM123.613 60.784C125.792 60.7871 127.605 61.6201 129.061 63.1082C130.473 64.5507 131.515 66.5682 132.336 68.9295C133.974 73.6387 134.907 80.2523 135.79 87.9099C137.572 103.352 139.2 123.495 145.626 143.15L142.775 144.083C136.231 124.069 134.575 103.556 132.81 88.2537C131.92 80.5394 131.013 74.2591 129.503 69.9149C128.749 67.7494 127.89 66.2004 126.917 65.2067C125.989 64.2587 124.934 63.7859 123.608 63.784L123.613 60.784Z" fill="#585AF1"/>
</svg>
