<svg width="166" height="126" viewBox="0 0 166 126" fill="none" xmlns="http://www.w3.org/2000/svg">
<path d="M162 115V93.8405C162 55.6696 135.333 50.1388 131.163 48.9567C128.365 48.1635 119.894 37.0589 114.259 32.9268C120 17.9569 114.94 14.8308 105.528 15.8282C105.528 5.38689 97.5975 -0.147372 89.7383 7.70637L72.8339 26.5148C51.1369 29.7635 41.502 55.3687 39.3967 67.7652C25.3406 67.5514 -1.7312 76.6992 2.42988 115" stroke="#585AF1" stroke-width="3"/>
<ellipse rx="1.6116" ry="5.17681" transform="matrix(-0.983779 0.179386 0.179624 0.983735 74.9811 52.9767)" fill="#585AF1"/>
<ellipse rx="1.6116" ry="5.17681" transform="matrix(-0.983779 0.179386 0.179624 0.983735 85.8493 50.9957)" fill="#585AF1"/>
<path opacity="0.7" fill-rule="evenodd" clip-rule="evenodd" d="M72.1619 55.7815C72.1619 55.7812 72.1621 55.7809 72.1624 55.7808L87.4928 54.0784C87.493 54.0784 87.4931 54.0785 87.4931 54.0787C87.4931 54.0788 87.4932 54.0789 87.4934 54.0789L103.813 52.2666C104.911 52.1447 105.919 52.9411 105.85 54.0435C105.51 59.5191 101.275 64.1231 95.6312 64.7498C90.9073 65.2744 86.5338 62.8637 84.3337 58.9749C83.9316 58.2641 83.1709 57.7993 82.3593 57.8894C81.5476 57.9795 80.9076 58.6 80.6715 59.3817C79.3795 63.6586 75.6422 66.9702 70.918 67.4948C65.2745 68.1215 60.1312 64.5589 58.5962 59.2917C58.2871 58.2312 59.0954 57.2331 60.1932 57.1112L72.1614 55.7821C72.1617 55.7821 72.1619 55.7818 72.1619 55.7815Z" fill="#EC4C56"/>
<ellipse cx="83.5095" cy="69.748" rx="4.02516" ry="4.0224" stroke="#585AF1" stroke-width="3"/>
<path d="M96.5723 116.039C89.167 116.039 95.5075 104.332 100.411 100.658C110.772 92.8962 119.169 95.5001 124.557 103.568C132.186 116.29 125.052 118.546 122.999 116.616C120.437 114.206 119.575 111.529 119.449 109.268C120.114 121.198 116.881 122.172 113.985 120.866C111.669 119.82 112.432 113.305 113.103 109.823C111.776 115.226 109.181 123.304 103.821 121.821C99.1593 120.531 102.797 112.307 105.768 107.777C101.26 114.305 99.7934 115.592 96.5723 116.039Z" fill="white"/>
<path d="M63.4276 116.039C70.8329 116.039 64.4924 104.332 59.5888 100.658C49.2281 92.8962 40.8311 95.5001 35.4433 103.568C27.8136 116.29 34.9483 118.546 37.0006 116.616C39.5624 114.206 40.425 111.529 40.551 109.268C39.8861 121.198 43.1192 122.172 46.0144 120.866C48.3306 119.82 47.5681 113.305 46.8973 109.823C48.2241 115.226 50.8188 123.304 56.1792 121.821C60.8406 120.531 57.2026 112.307 54.2323 107.777C58.7402 114.305 60.2065 115.592 63.4276 116.039Z" fill="white"/>
<path d="M96.5723 116.039C89.167 116.039 95.5075 104.332 100.411 100.658C110.772 92.8962 119.169 95.5001 124.557 103.568C132.186 116.29 125.052 118.546 122.999 116.616C120.437 114.206 119.575 111.529 119.449 109.268C120.114 121.198 116.881 122.172 113.985 120.866C111.669 119.82 112.432 113.305 113.103 109.823C111.776 115.226 109.181 123.304 103.821 121.821C99.1593 120.531 102.797 112.307 105.768 107.777C101.26 114.305 99.7934 115.592 96.5723 116.039Z" stroke="#585AF1" stroke-width="3" stroke-linecap="round" stroke-linejoin="round"/>
<path d="M63.4276 116.039C70.8329 116.039 64.4924 104.332 59.5888 100.658C49.2281 92.8962 40.8311 95.5001 35.4433 103.568C27.8136 116.29 34.9483 118.546 37.0006 116.616C39.5624 114.206 40.425 111.529 40.551 109.268C39.8861 121.198 43.1192 122.172 46.0144 120.866C48.3306 119.82 47.5681 113.305 46.8973 109.823C48.2241 115.226 50.8188 123.304 56.1792 121.821C60.8406 120.531 57.2026 112.307 54.2323 107.777C58.7402 114.305 60.2065 115.592 63.4276 116.039Z" stroke="#585AF1" stroke-width="3" stroke-linecap="round" stroke-linejoin="round"/>
</svg>
