<svg width="161" height="148" viewBox="0 0 161 148" fill="none" xmlns="http://www.w3.org/2000/svg">
<path d="M94.3288 89.9933L98.5465 70.9865C99.1245 68.3817 97.0449 65.9568 94.3861 66.1353L83.9494 66.8363C81.2745 67.016 79.039 68.9504 78.4736 71.5745L74.9259 88.0393" stroke="white" stroke-width="2" stroke-linecap="round" stroke-linejoin="round"/>
<path d="M108.06 36.7635L108.065 37.7639L107.603 37.7673L107.302 37.4177L108.06 36.7635ZM90.0211 19.8566L90.0718 20.8557L89.8441 20.8679L89.6338 20.78L90.0211 19.8566ZM69.921 11.4531L69.5338 12.3764L69.4728 12.3509L69.4157 12.3176L69.921 11.4531ZM59.033 23.5676L59.9836 23.256L60.5414 24.9723L58.7907 24.5389L59.033 23.5676ZM47.3491 23.3686L47.8279 24.2456L47.3491 23.3686ZM52.6401 37.7449L53.0964 36.8536L54.3027 37.4701L53.3546 38.4427L52.6401 37.7449ZM27.8473 63.1792L27.114 62.5012L27.1232 62.4912L27.1327 62.4814L27.8473 63.1792ZM127.552 115.882C127.459 116.426 126.943 116.794 126.398 116.702C125.854 116.61 125.489 116.094 125.582 115.549L127.552 115.882ZM107.302 37.4177C106.42 36.3927 105.528 34.7155 104.579 32.9597C103.602 31.1511 102.511 29.1489 101.187 27.2858C98.5356 23.554 95.1011 20.5869 90.0718 20.8557L89.9703 18.8576C96.0158 18.5345 100.013 22.1761 102.817 26.1232C104.222 28.0996 105.366 30.2046 106.338 32.0043C107.339 33.8569 108.112 35.2895 108.818 36.1092L107.302 37.4177ZM89.6338 20.78L69.5338 12.3764L70.3082 10.5298L90.4083 18.9333L89.6338 20.78ZM69.4157 12.3176C66.1364 10.4024 62.8522 10.3666 60.9255 11.916C59.0406 13.4319 57.9224 16.9132 59.9836 23.256L58.0825 23.8793C55.9352 17.272 56.7968 12.6729 59.6759 10.3574C62.5133 8.07557 66.7773 8.45749 70.4264 10.5886L69.4157 12.3176ZM58.7907 24.5389C54.9241 23.5816 51.9993 21.9566 47.8279 24.2456L46.8703 22.4916C51.914 19.7239 55.8878 21.7577 59.2754 22.5964L58.7907 24.5389ZM47.8279 24.2456C47.5482 24.3991 47.0961 24.8909 46.7578 25.7863C46.4332 26.6454 46.2606 27.763 46.4255 28.9999C46.7492 31.4268 48.3983 34.4524 53.0964 36.8536L52.1838 38.6362C47.0083 35.991 44.869 32.4556 44.4441 29.2696C44.2347 27.7 44.4479 26.2481 44.8882 25.0826C45.3149 23.9533 46.0071 22.9653 46.8703 22.4916L47.8279 24.2456ZM53.3546 38.4427L28.5618 63.877L27.1327 62.4814L51.9256 37.0471L53.3546 38.4427ZM28.5805 63.8572C19.5136 73.6774 15.3872 81.532 14.8505 91.0284C14.3082 100.623 17.4149 112.015 23.2106 128.96L21.3191 129.612C15.5395 112.714 12.287 100.963 12.8547 90.9205C13.4278 80.7794 17.8803 72.5021 27.114 62.5012L28.5805 63.8572ZM108.055 35.763C117.803 35.691 124.781 43.6257 128.247 57.3154C131.725 71.052 131.812 90.9795 127.552 115.882L125.582 115.549C129.819 90.7822 129.69 71.1671 126.309 57.8116C122.916 44.4093 116.392 37.7024 108.065 37.7639L108.055 35.763Z" fill="white"/>
<mask id="path-3-inside-1" fill="white">
<ellipse rx="0.956392" ry="3.09644" transform="matrix(-0.98351 0.180853 0.178166 0.984 79.8308 34.0629)"/>
</mask>
<ellipse rx="0.956392" ry="3.09644" transform="matrix(-0.98351 0.180853 0.178166 0.984 79.8308 34.0629)" fill="#585AF1"/>
<path d="M80.8572 33.8741C80.9841 34.5749 81.1752 35.1151 81.33 35.4133C81.4133 35.5737 81.4345 35.5639 81.3514 35.4849C81.3065 35.4423 80.8238 34.9951 80.0261 35.1418L80.7388 39.0778C79.6814 39.2722 78.9204 38.7001 78.5946 38.3904C78.2306 38.0444 77.9683 37.6257 77.7815 37.266C77.3963 36.5241 77.101 35.5796 76.9231 34.5976L80.8572 33.8741ZM80.0261 35.1418C79.2285 35.2884 78.9336 35.8786 78.9066 35.9345C78.8565 36.038 78.8797 36.0396 78.9014 35.8599C78.9418 35.5258 78.9313 34.9523 78.8044 34.2516L82.7384 33.5282C82.9162 34.5102 82.971 35.499 82.8706 36.3302C82.8219 36.7332 82.7233 37.2183 82.5039 37.6715C82.3076 38.0772 81.7962 38.8833 80.7388 39.0778L80.0261 35.1418ZM78.8044 34.2516C78.6775 33.5509 78.4864 33.0107 78.3316 32.7125C78.2483 32.5521 78.2271 32.5618 78.3102 32.6408C78.3551 32.6835 78.8378 33.1307 79.6354 32.984L78.9228 29.048C79.9801 28.8535 80.7412 29.4257 81.067 29.7354C81.431 30.0813 81.6933 30.5 81.8801 30.8597C82.2653 31.6016 82.5606 32.5462 82.7384 33.5282L78.8044 34.2516ZM79.6354 32.984C80.4331 32.8373 80.728 32.2472 80.755 32.1913C80.8051 32.0878 80.7818 32.0862 80.7601 32.2659C80.7198 32.6 80.7303 33.1734 80.8572 33.8741L76.9231 34.5976C76.7453 33.6155 76.6906 32.6268 76.791 31.7955C76.8397 31.3925 76.9383 30.9075 77.1576 30.4543C77.3539 30.0486 77.8654 29.2424 78.9228 29.048L79.6354 32.984Z" fill="white" mask="url(#path-3-inside-1)"/>
<mask id="path-5-inside-2" fill="white">
<ellipse rx="0.956392" ry="3.09644" transform="matrix(-0.98351 0.180853 0.178166 0.984 86.2795 32.8771)"/>
</mask>
<ellipse rx="0.956392" ry="3.09644" transform="matrix(-0.98351 0.180853 0.178166 0.984 86.2795 32.8771)" fill="#585AF1"/>
<path d="M87.3059 32.6884C87.4328 33.3891 87.6239 33.9293 87.7788 34.2275C87.862 34.3879 87.8832 34.3781 87.8001 34.2992C87.7552 34.2565 87.2725 33.8093 86.4749 33.956L87.1875 37.892C86.1302 38.0864 85.3691 37.5143 85.0433 37.2046C84.6793 36.8586 84.417 36.4399 84.2302 36.0803C83.845 35.3383 83.5497 34.3938 83.3719 33.4118L87.3059 32.6884ZM86.4749 33.956C85.6772 34.1027 85.3823 34.6928 85.3553 34.7487C85.3052 34.8522 85.3285 34.8538 85.3502 34.6741C85.3905 34.34 85.38 33.7666 85.2531 33.0658L89.1872 32.3424C89.365 33.3245 89.4197 34.3132 89.3193 35.1445C89.2706 35.5474 89.172 36.0325 88.9527 36.4857C88.7564 36.8914 88.2449 37.6976 87.1875 37.892L86.4749 33.956ZM85.2531 33.0658C85.1262 32.3651 84.9351 31.8249 84.7803 31.5267C84.697 31.3663 84.6758 31.376 84.7589 31.455C84.8038 31.4977 85.2866 31.9449 86.0842 31.7982L85.3715 27.8622C86.4289 27.6678 87.1899 28.2399 87.5157 28.5496C87.8797 28.8956 88.142 29.3142 88.3288 29.6739C88.714 30.4159 89.0093 31.3604 89.1872 32.3424L85.2531 33.0658ZM86.0842 31.7982C86.8818 31.6515 87.1767 31.0614 87.2038 31.0055C87.2538 30.902 87.2306 30.9004 87.2089 31.0801C87.1685 31.4142 87.179 31.9876 87.3059 32.6884L83.3719 33.4118C83.1941 32.4297 83.1393 31.441 83.2397 30.6097C83.2884 30.2068 83.3871 29.7217 83.6064 29.2685C83.8027 28.8628 84.3141 28.0566 85.3715 27.8622L86.0842 31.7982Z" fill="white" mask="url(#path-5-inside-2)"/>
<path d="M77.4255 47.0327C77.8398 49.3209 80.0163 50.8374 82.2869 50.4199C84.5575 50.0024 86.0623 47.8089 85.6479 45.5208" stroke="white" stroke-width="2" stroke-linecap="round"/>
<path d="M54.5649 108.653L67.2999 89.9495C65.6782 84.8471 63.5013 74.8105 67.7671 75.483C72.0329 76.1555 74.2497 86.33 74.8249 91.3332" stroke="white" stroke-width="2" stroke-linecap="round" stroke-linejoin="round"/>
<path d="M74.869 91.4997C78.3432 87.2512 88.272 78.2544 89.6736 84.6081C89.5235 87.0048 87.921 90.1474 80.9443 94.403C84.8 91.9156 93.178 87.8744 95.8438 91.6085C98.5096 95.3426 88.9328 98.4875 83.8111 99.5932C87.112 99.0417 93.9629 98.4472 94.9593 100.482C96.2049 103.025 93.9695 107.372 82.6254 105.126C84.7705 105.259 89.6336 106.09 91.925 108.353C92.8073 110.252 91.4842 113.05 79.1337 109.044" stroke="white" stroke-width="2" stroke-linecap="round" stroke-linejoin="round"/>
<path opacity="0.7" fill-rule="evenodd" clip-rule="evenodd" d="M78.1584 35.7408C78.1584 35.7408 78.1584 35.7408 78.1584 35.7408L87.2541 34.7222C87.2541 34.7222 87.2541 34.7222 87.2541 34.7222C87.2541 34.7222 87.2541 34.7222 87.2542 34.7222L96.1293 33.7283C97.2268 33.6054 98.2456 34.4112 98.0496 35.4989C97.5241 38.4147 95.1553 40.7624 92.0829 41.1065C89.2785 41.4205 86.6822 39.9762 85.3778 37.6469C85.1411 37.2243 84.6902 36.9483 84.2087 37.0022C83.7273 37.0561 83.3475 37.4252 83.2087 37.8898C82.4434 40.4509 80.2252 42.4344 77.4207 42.7485C74.3484 43.0925 71.5259 41.3261 70.378 38.5978C69.9498 37.58 70.7683 36.5684 71.8658 36.4455L78.1584 35.7408C78.1584 35.7408 78.1584 35.7408 78.1584 35.7408Z" fill="#F4B04A"/>
<path d="M143.582 37.0711C152.649 37.0711 160 29.7597 160 20.7406C160 11.7216 152.649 4.41016 143.582 4.41016C134.515 4.41016 127.164 11.7216 127.164 20.7406C127.164 24.8184 128.667 28.5472 131.151 31.4089L129.744 38.7041L137.477 35.9046C139.364 36.6571 141.424 37.0711 143.582 37.0711Z" stroke="white" stroke-width="2" stroke-linejoin="round"/>
<path fill-rule="evenodd" clip-rule="evenodd" d="M150.733 15.7376L149.849 16.6215L151.087 17.859L150.026 18.9196L148.789 17.6822L147.728 18.7428L148.966 19.9803L147.905 21.0409L146.667 19.8035L143.662 22.8087L142.602 21.748L149.673 14.677L150.733 15.7376Z" fill="#F4B04A"/>
<circle cx="140.303" cy="25.1067" r="4" transform="rotate(-45 140.303 25.1067)" stroke="#F4B04A" stroke-width="1.5"/>
</svg>
