<svg width="80" height="27" viewBox="0 0 80 27" fill="none" xmlns="http://www.w3.org/2000/svg">
<path d="M56.6129 12.3878L51.8863 21.1595L48.5559 20.8287L45.6875 11.3027L49.0008 11.6318L50.6475 17.4389L53.5375 12.0824L56.6129 12.3878Z" fill="#96989C"/>
<path fill-rule="evenodd" clip-rule="evenodd" d="M36.0249 4.71742L32.5863 4.44434L32.1533 9.82537C31.3832 9.35879 30.4943 9.0598 29.5337 8.98352C26.2591 8.72346 23.3923 11.1501 23.1305 14.4035C22.8688 17.6569 25.3112 20.5051 28.5858 20.7652C29.5464 20.8415 30.4719 20.6866 31.3068 20.3475L31.2574 20.9612L34.696 21.2343L36.0249 4.71742ZM31.5504 15.0721C31.4433 16.4033 30.2606 17.4362 28.8626 17.3252C27.4646 17.2141 26.462 16.0077 26.5691 14.6766C26.6762 13.3454 27.859 12.3125 29.257 12.4235C30.655 12.5346 31.6575 13.741 31.5504 15.0721Z" fill="#96989C"/>
<path fill-rule="evenodd" clip-rule="evenodd" d="M75.3411 4.47268L71.8991 4.69934L72.2527 9.99969C71.459 9.68812 70.585 9.54215 69.6769 9.60196C66.399 9.81781 63.9178 12.6328 64.1351 15.8895C64.3524 19.1461 67.1857 21.6112 70.4636 21.3953C71.3718 21.3355 72.2187 21.0762 72.9641 20.6633L73.0021 21.2326L76.4441 21.006L75.3411 4.47268ZM72.5634 15.3345C72.6523 16.6668 71.6334 17.8597 70.2339 17.9518C68.8344 18.044 67.6659 16.9952 67.5771 15.6628C67.4882 14.3305 68.5071 13.1376 69.9066 13.0454C71.3061 12.9533 72.4745 14.0021 72.5634 15.3345Z" fill="#96989C"/>
<path fill-rule="evenodd" clip-rule="evenodd" d="M39.2676 11.2207L42.7076 10.9668L43.8178 21.6769L40.3777 21.9308L39.2676 11.2207Z" fill="#96989C"/>
<path d="M42.8716 7.81425C42.9676 9.10677 41.996 10.1963 40.7016 10.2479C39.4072 10.2994 38.2801 9.29339 38.1841 8.00087C38.0882 6.70835 39.0598 5.61878 40.3542 5.56725C41.6486 5.51571 42.7757 6.52173 42.8716 7.81425Z" fill="#96989C"/>
<path fill-rule="evenodd" clip-rule="evenodd" d="M58.4238 9.94482L61.8694 10.1076L61.3547 20.8628L57.9092 20.7001L58.4238 9.94482Z" fill="#96989C"/>
<path d="M62.6955 6.70385C62.7671 7.99795 61.7767 9.10515 60.4832 9.17684C59.1898 9.24853 58.0831 8.25757 58.0115 6.96346C57.9398 5.66936 58.9303 4.56216 60.2237 4.49047C61.5172 4.41878 62.6238 5.40975 62.6955 6.70385Z" fill="#96989C"/>
<path fill-rule="evenodd" clip-rule="evenodd" d="M16.5568 19.9562C18.3958 18.3313 19.5551 15.9576 19.5551 13.3138C19.5551 8.41533 15.5754 4.44434 10.6662 4.44434C5.75703 4.44434 1.77734 8.41533 1.77734 13.3138C1.77734 18.2123 5.75703 22.1833 10.6662 22.1833C11.9158 22.1833 13.1051 21.926 14.184 21.4616L16.1202 22.7373C16.3793 22.908 16.7225 22.7103 16.7039 22.401L16.5568 19.9562Z" fill="#96989C"/>
<ellipse rx="1.37441" ry="1.37142" transform="matrix(0.99863 -0.0523358 0.0525644 0.998618 10.5442 10.3459)" fill="#D5D6D7"/>
<ellipse rx="1.3744" ry="1.37142" transform="matrix(0.99863 -0.0523362 0.052564 0.998618 10.8762 16.6457)" fill="#D5D6D7"/>
<path fill-rule="evenodd" clip-rule="evenodd" d="M15.1526 14.2246L6.3685 14.6849L6.26758 12.7676L15.0517 12.3072L15.1526 14.2246Z" fill="white"/>
</svg>
