<svg width="80" height="27" viewBox="0 0 80 27" fill="none" xmlns="http://www.w3.org/2000/svg">
<path d="M50.2534 11.9153L43.1634 25.0727L38.1679 24.5766L33.8652 10.2876L38.8352 10.7812L41.3052 19.4918L45.6402 11.4571L50.2534 11.9153Z" fill="#585AF1"/>
<path fill-rule="evenodd" clip-rule="evenodd" d="M19.3703 0.40962L14.2124 0L13.563 8.07155C12.4079 7.37168 11.0744 6.9232 9.63361 6.80877C4.72167 6.41868 0.421462 10.0586 0.0288307 14.9387C-0.363801 19.8188 3.29982 24.0912 8.21176 24.4813C9.65261 24.5957 11.0408 24.3634 12.2932 23.8547L12.2191 24.7753L17.377 25.1849L19.3703 0.40962ZM12.6587 15.9417C12.498 17.9385 10.7239 19.4878 8.62691 19.3212C6.52991 19.1547 5.02606 17.3451 5.18671 15.3483C5.34736 13.3516 7.12146 11.8023 9.21846 11.9688C11.3155 12.1353 12.8193 13.945 12.6587 15.9417Z" fill="#585AF1"/>
<path fill-rule="evenodd" clip-rule="evenodd" d="M78.3455 0.0425143L73.1826 0.382505L73.713 8.33303C72.5225 7.86568 71.2114 7.64673 69.8492 7.73643C64.9324 8.06022 61.2107 12.2827 61.5366 17.1677C61.8625 22.0527 66.1126 25.7503 71.0294 25.4265C72.3916 25.3368 73.6621 24.9478 74.7801 24.3285L74.8371 25.1824L80 24.8424L78.3455 0.0425143ZM74.1791 16.3352C74.3124 18.3337 72.7841 20.123 70.6848 20.2613C68.5856 20.3995 66.8329 18.8263 66.6996 16.8277C66.5662 14.8292 68.0946 13.0399 70.1938 12.9017C72.2931 12.7634 74.0458 14.3366 74.1791 16.3352Z" fill="#585AF1"/>
<path fill-rule="evenodd" clip-rule="evenodd" d="M24.2363 10.1646L29.3964 9.78369L31.0616 25.8489L25.9015 26.2297L24.2363 10.1646Z" fill="#585AF1"/>
<path d="M29.6424 5.05536C29.7863 6.99414 28.329 8.6285 26.3874 8.7058C24.4457 8.7831 22.7551 7.27407 22.6112 5.33529C22.4673 3.39651 23.9246 1.76215 25.8662 1.68485C27.8078 1.60756 29.4985 3.11658 29.6424 5.05536Z" fill="#F4B04A"/>
<path fill-rule="evenodd" clip-rule="evenodd" d="M52.9688 8.25098L58.1371 8.49509L57.3651 24.628L52.1968 24.3838L52.9688 8.25098Z" fill="#585AF1"/>
<path d="M59.3752 3.38927C59.4827 5.33043 57.997 6.99122 56.0568 7.09876C54.1167 7.20629 52.4567 5.71985 52.3492 3.77869C52.2418 1.83754 53.7274 0.176742 55.6676 0.0692063C57.6078 -0.0383296 59.2678 1.44811 59.3752 3.38927Z" fill="#F4B04A"/>
</svg>
