<svg width="100" height="30" viewBox="0 0 100 30" fill="none" xmlns="http://www.w3.org/2000/svg">
<path fill-rule="evenodd" clip-rule="evenodd" d="M19.0066 22.9485C21.3716 20.8588 22.8624 17.8062 22.8624 14.4063C22.8624 8.10675 17.7445 3 11.4312 3C5.11793 3 0 8.10675 0 14.4063C0 20.7057 5.11793 25.8125 11.4312 25.8125C13.0382 25.8125 14.5677 25.4816 15.9551 24.8845L18.4451 26.525C18.7783 26.7445 19.2197 26.4902 19.1957 26.0925L19.0066 22.9485Z" fill="#585AF1"/>
<ellipse rx="1.7675" ry="1.76366" transform="matrix(0.99863 -0.0523361 0.0525641 0.998618 11.2777 10.5894)" fill="#F4B04A"/>
<ellipse rx="1.7675" ry="1.76366" transform="matrix(0.99863 -0.0523361 0.0525641 0.998618 11.7035 18.6912)" fill="#F4B04A"/>
<path fill-rule="evenodd" clip-rule="evenodd" d="M17.2017 15.5773L5.90518 16.1693L5.77539 13.7036L17.0719 13.1116L17.2017 15.5773Z" fill="white"/>
<path d="M73.1145 13.8622L66.7065 25.7541L62.1915 25.3056L58.3027 12.3911L62.7946 12.8372L65.027 20.71L68.9451 13.4481L73.1145 13.8622Z" fill="#585AF1"/>
<path fill-rule="evenodd" clip-rule="evenodd" d="M45.2024 3.46324L40.5407 3.09302L39.9537 10.3882C38.9097 9.75562 37.7045 9.35028 36.4023 9.24686C31.9628 8.89429 28.0762 12.1841 27.7214 16.5948C27.3665 21.0055 30.6777 24.8669 35.1172 25.2194C36.4194 25.3229 37.6741 25.1129 38.806 24.6531L38.7391 25.4852L43.4008 25.8554L45.2024 3.46324ZM39.1363 17.5013C38.9911 19.306 37.3877 20.7063 35.4924 20.5558C33.5971 20.4052 32.2379 18.7697 32.3831 16.965C32.5283 15.1603 34.1318 13.76 36.0271 13.9105C37.9223 14.0611 39.2815 15.6966 39.1363 17.5013Z" fill="#585AF1"/>
<path fill-rule="evenodd" clip-rule="evenodd" d="M98.5033 3.13156L93.837 3.43884L94.3164 10.6246C93.2403 10.2022 92.0554 10.0043 90.8243 10.0854C86.3804 10.378 83.0167 14.1944 83.3112 18.6095C83.6058 23.0246 87.447 26.3665 91.8909 26.0739C93.1221 25.9928 94.2703 25.6412 95.2809 25.0814L95.3324 25.8533L99.9987 25.546L98.5033 3.13156ZM94.7376 17.857C94.8581 19.6634 93.4768 21.2805 91.5795 21.4055C89.6821 21.5304 88.0981 20.1085 87.9776 18.3022C87.8571 16.4959 89.2384 14.8787 91.1357 14.7538C93.0331 14.6288 94.6171 16.0507 94.7376 17.857Z" fill="#585AF1"/>
<path fill-rule="evenodd" clip-rule="evenodd" d="M49.5996 12.2798L54.2633 11.9356L55.7684 26.4554L51.1046 26.7997L49.5996 12.2798Z" fill="#585AF1"/>
<path d="M54.4847 7.66205C54.6147 9.41434 53.2976 10.8915 51.5427 10.9613C49.7879 11.0312 48.2599 9.66733 48.1298 7.91504C47.9997 6.16275 49.3169 4.68561 51.0717 4.61574C52.8266 4.54588 54.3546 5.90976 54.4847 7.66205Z" fill="#F4B04A"/>
<path fill-rule="evenodd" clip-rule="evenodd" d="M75.5703 10.5503L80.2415 10.7709L79.5438 25.352L74.8726 25.1314L75.5703 10.5503Z" fill="#585AF1"/>
<path d="M81.359 6.1563C81.4562 7.91074 80.1134 9.41178 78.3598 9.50898C76.6063 9.60617 75.106 8.2627 75.0089 6.50827C74.9117 4.75383 76.2545 3.25278 78.0081 3.15559C79.7616 3.0584 81.2619 4.40186 81.359 6.1563Z" fill="#F4B04A"/>
</svg>
