<svg width="80" height="25" viewBox="0 0 80 25" fill="none" xmlns="http://www.w3.org/2000/svg">
<path d="M17.6382 6.83148C18.4221 6.83148 19.0576 6.19599 19.0576 5.41208C19.0576 4.62816 18.4221 3.99268 17.6382 3.99268C16.8542 3.99268 16.2188 4.62816 16.2188 5.41208C16.2188 6.19599 16.8542 6.83148 17.6382 6.83148Z" fill="#96989C"/>
<path d="M20.6975 14.2744C20.2791 16.1473 19.2351 17.8218 17.7375 19.0218C16.2399 20.2218 14.3782 20.8757 12.4591 20.8757C10.54 20.8757 8.67822 20.2218 7.18062 19.0218C5.68302 17.8218 4.63902 16.1473 4.2207 14.2744H20.6975Z" fill="#BDBDBD"/>
<path d="M11.1542 12.4329H4.01758L8.48911 4.98307L9.08299 3.99268V7.59732C9.08083 9.31195 9.74067 10.9612 10.9249 12.2012C10.9994 12.281 11.0762 12.3578 11.1542 12.4329Z" fill="#96989C"/>
<path d="M20.9006 12.4329H15.9126C14.59 12.4327 13.3215 11.9072 12.3863 10.9719C11.4512 10.0366 10.9258 8.76809 10.9258 7.44545V3.99268L11.0617 4.11086L11.7531 4.69588L19.0587 10.8728L19.3151 11.0897L20.6093 12.1841L20.9006 12.4329Z" fill="#96989C"/>
<path d="M30.7341 16.6794C30.7341 17.1432 30.5125 17.6071 29.8991 17.6071H27.9869C27.1719 17.6071 26.3903 17.2834 25.8141 16.7071C25.2378 16.1308 24.9141 15.3493 24.9141 14.5343V7.94726C24.9141 7.29074 25.4353 7.12646 25.8844 7.12646C26.3482 7.12646 26.8547 7.29074 26.8547 7.94726V14.5319C26.8553 14.8477 26.981 15.1503 27.2043 15.3736C27.4276 15.5969 27.7302 15.7226 28.046 15.7232H29.9003C30.0853 15.7172 30.2667 15.7753 30.4138 15.8875C30.6413 16.066 30.7341 16.3727 30.7341 16.6794Z" fill="#96989C"/>
<path d="M33.5771 14.2411C33.5771 14.9602 33.5771 15.9488 34.8057 15.9488C34.9552 15.9488 35.9591 15.9039 35.9591 14.5111V10.7641C35.9591 10.1347 36.4082 9.91018 36.8875 9.91018C37.3519 9.91018 37.833 10.1347 37.833 10.7641V16.8151C37.833 17.4445 37.3537 17.669 36.8875 17.669C36.4212 17.669 36.1689 17.4917 36.049 17.2347C35.9899 17.1 35.9308 17.1 35.8717 17.1C35.7966 17.1 35.7068 17.1898 35.5419 17.2944C35.1354 17.5502 34.8358 17.6684 34.1615 17.6684C32.4685 17.6684 31.7051 16.4104 31.7051 14.8976V10.7611C31.7051 10.1318 32.1695 9.90723 32.6334 9.90723C33.0973 9.90723 33.5789 10.1318 33.5789 10.7611L33.5771 14.2411Z" fill="#96989C"/>
<path d="M42.0631 17.3247C41.8982 17.2201 41.8084 17.1001 41.7334 17.1001C41.6743 17.1001 41.6152 17.1001 41.5561 17.2349C41.4379 17.4895 41.1814 17.6692 40.717 17.6692C40.2525 17.6692 39.7715 17.4446 39.7715 16.8153V7.97742C39.7715 7.33331 40.2513 7.12354 40.717 7.12354C41.1826 7.12354 41.6459 7.33331 41.6459 7.97742V10.2389C41.6459 10.4162 41.7641 10.4339 41.8232 10.4339C41.8982 10.4339 41.988 10.3157 42.1529 10.2093C42.4821 9.99957 42.917 9.90975 43.291 9.90975C45.3433 9.90975 46.0471 11.572 46.0471 13.7892C46.0471 16.0063 45.3433 17.6686 43.291 17.6686C42.8573 17.6733 42.4313 17.5539 42.0631 17.3247ZM44.1313 13.7898C44.1313 12.4868 43.9363 11.6926 42.8579 11.6926C41.6595 11.6926 41.6447 12.8313 41.6447 13.7898C41.6447 14.6436 41.6595 15.887 42.8579 15.887C43.9641 15.887 44.1301 15.0928 44.1301 13.7898H44.1313Z" fill="#96989C"/>
<path d="M51.8237 10.5543C51.9886 10.0597 52.3183 9.91016 52.6327 9.91016C53.0824 9.91016 53.6964 10.2098 53.6964 10.764C53.6993 10.8977 53.6737 11.0305 53.6213 11.1535L50.8824 18.2381C50.4782 19.3017 49.5794 20.5752 48.1866 20.5752C47.6772 20.5752 47.4078 20.2307 47.4078 19.7213C47.4078 19.1971 47.6619 18.9874 48.0064 18.8975C48.8756 18.673 49.1291 18.0111 49.2349 17.6844L49.3247 17.4143C49.3663 17.309 49.3916 17.1981 49.3998 17.0852C49.398 17.0131 49.3827 16.9419 49.3549 16.8754L47.0928 11.1535C47.0407 11.0304 47.0151 10.8977 47.0178 10.764C47.0178 10.2547 47.5573 9.91016 48.0814 9.91016C48.3964 9.91016 48.7255 10.0597 48.8904 10.5543L50.2383 14.4638C50.2684 14.5383 50.2684 14.7185 50.3884 14.7185C50.493 14.7185 50.493 14.6003 50.5379 14.4638L51.8237 10.5543Z" fill="#96989C"/>
<path d="M60.4655 11.114C60.4655 11.5637 59.9709 12.1026 59.5366 12.1026C59.237 12.1026 58.9079 11.9324 58.6378 11.8426C58.2933 11.7244 58.1438 11.6925 57.859 11.6925C56.6606 11.6925 56.5861 12.4867 56.5861 13.7897C56.5861 15.0927 56.6606 15.8869 57.859 15.8869C58.2188 15.8869 58.5332 15.8118 58.9226 15.6168C59.1472 15.5122 59.2819 15.3923 59.552 15.3923C60.0608 15.3923 60.4655 15.9466 60.4655 16.3968C60.4694 16.499 60.4497 16.6007 60.4081 16.6942C60.3665 16.7876 60.3041 16.8702 60.2256 16.9358C59.5644 17.4747 58.6981 17.6685 57.859 17.6685C55.253 17.6685 54.668 16.0057 54.668 13.7891C54.668 11.5725 55.2524 9.90967 57.859 9.90967C58.6679 9.90967 59.5815 10.1248 60.1807 10.5745C60.2661 10.6368 60.3361 10.7178 60.3854 10.8113C60.4348 10.9048 60.4622 11.0083 60.4655 11.114Z" fill="#96989C"/>
<path d="M65.1129 9.91016C67.7194 9.91016 68.3039 11.5724 68.3039 13.7896C68.3039 16.0067 67.7206 17.6684 65.1129 17.6684C62.5051 17.6684 61.9219 16.0055 61.9219 13.789C61.9219 11.5724 62.5069 9.91016 65.1129 9.91016ZM65.1129 15.8868C66.3113 15.8868 66.3863 15.0926 66.3863 13.7896C66.3863 12.4866 66.3113 11.6924 65.1129 11.6924C63.9145 11.6924 63.84 12.4866 63.84 13.7896C63.84 15.0926 63.9145 15.8868 65.1129 15.8868Z" fill="#96989C"/>
<path d="M74.1082 13.3399C74.1082 12.6213 74.1082 11.6327 72.8797 11.6327C72.7302 11.6327 71.6518 11.6776 71.6518 13.0704V16.8151C71.6518 17.4445 71.1873 17.669 70.7228 17.669C70.2584 17.669 69.7773 17.4445 69.7773 16.8151V10.764C69.7773 10.1347 70.2566 9.91016 70.7228 9.91016C71.1891 9.91016 71.442 10.0874 71.5619 10.3445C71.621 10.4792 71.6801 10.4792 71.7392 10.4792C71.8143 10.4792 71.9041 10.3894 72.0689 10.2842C72.4731 10.0295 72.8478 9.91016 73.5214 9.91016C75.2144 9.91016 75.9785 11.1682 75.9785 12.681V16.8175C75.9785 17.4468 75.514 17.6714 75.0496 17.6714C74.5851 17.6714 74.1041 17.4468 74.1041 16.8175L74.1082 13.3399Z" fill="#96989C"/>
</svg>
