<svg width="192" height="142" viewBox="0 0 192 142" fill="none" xmlns="http://www.w3.org/2000/svg">
<g filter="url(#filter0_d)">
<mask id="path-1-inside-1" fill="white">
<path fill-rule="evenodd" clip-rule="evenodd" d="M157.389 26C157.32 25.7535 157.226 25.5083 157.106 25.2669L151.578 14.2111C150.104 11.2629 145.896 11.2629 144.422 14.2111L138.894 25.2669C138.774 25.5083 138.68 25.7535 138.611 26H24C19.5817 26 16 29.5817 16 34V114C16 118.418 19.5817 122 24 122H168C172.418 122 176 118.418 176 114V34C176 29.5817 172.418 26 168 26H157.389Z"/>
</mask>
<path fill-rule="evenodd" clip-rule="evenodd" d="M157.389 26C157.32 25.7535 157.226 25.5083 157.106 25.2669L151.578 14.2111C150.104 11.2629 145.896 11.2629 144.422 14.2111L138.894 25.2669C138.774 25.5083 138.68 25.7535 138.611 26H24C19.5817 26 16 29.5817 16 34V114C16 118.418 19.5817 122 24 122H168C172.418 122 176 118.418 176 114V34C176 29.5817 172.418 26 168 26H157.389Z" fill="white"/>
<path d="M157.389 26L155.462 26.5362L155.869 28H157.389V26ZM157.106 25.2669L158.894 24.3725L158.894 24.3724L157.106 25.2669ZM151.578 14.2111L153.367 13.3167L153.367 13.3167L151.578 14.2111ZM144.422 14.2111L142.633 13.3167L142.633 13.3167L144.422 14.2111ZM138.894 25.2669L140.683 26.1613L140.683 26.1613L138.894 25.2669ZM138.611 26V28H140.131L140.538 26.5362L138.611 26ZM159.315 25.4638C159.212 25.0933 159.072 24.7282 158.894 24.3725L155.317 26.1613C155.38 26.2884 155.428 26.4138 155.462 26.5362L159.315 25.4638ZM158.894 24.3724L153.367 13.3167L149.789 15.1056L155.317 26.1613L158.894 24.3724ZM153.367 13.3167C151.155 8.89442 144.845 8.89442 142.633 13.3167L146.211 15.1056C146.948 13.6315 149.052 13.6315 149.789 15.1056L153.367 13.3167ZM142.633 13.3167L137.106 24.3724L140.683 26.1613L146.211 15.1056L142.633 13.3167ZM137.106 24.3724C136.928 24.7281 136.788 25.0933 136.685 25.4638L140.538 26.5362C140.572 26.4138 140.62 26.2884 140.683 26.1613L137.106 24.3724ZM24 28H138.611V24H24V28ZM18 34C18 30.6863 20.6863 28 24 28V24C18.4772 24 14 28.4772 14 34H18ZM18 114V34H14V114H18ZM24 120C20.6863 120 18 117.314 18 114H14C14 119.523 18.4772 124 24 124V120ZM168 120H24V124H168V120ZM174 114C174 117.314 171.314 120 168 120V124C173.523 124 178 119.523 178 114H174ZM174 34V114H178V34H174ZM168 28C171.314 28 174 30.6863 174 34H178C178 28.4772 173.523 24 168 24V28ZM157.389 28H168V24H157.389V28Z" fill="white" mask="url(#path-1-inside-1)"/>
</g>
<defs>
<filter id="filter0_d" x="0" y="0" width="192" height="142" filterUnits="userSpaceOnUse" color-interpolation-filters="sRGB">
<feFlood flood-opacity="0" result="BackgroundImageFix"/>
<feColorMatrix in="SourceAlpha" type="matrix" values="0 0 0 0 0 0 0 0 0 0 0 0 0 0 0 0 0 0 127 0"/>
<feOffset dy="4"/>
<feGaussianBlur stdDeviation="8"/>
<feColorMatrix type="matrix" values="0 0 0 0 0.345098 0 0 0 0 0.352941 0 0 0 0 0.945098 0 0 0 0.2 0"/>
<feBlend mode="normal" in2="BackgroundImageFix" result="effect1_dropShadow"/>
<feBlend mode="normal" in="SourceGraphic" in2="effect1_dropShadow" result="shape"/>
</filter>
</defs>
</svg>
